<svg width="32" height="32" viewBox="0 0 32 32" xmlns="http://www.w3.org/2000/svg">
<path fill="#133E35" d="M16,0L16,0c8.8,0,16,7.2,16,16l0,0c0,8.8-7.2,16-16,16l0,0C7.2,32,0,24.8,0,16l0,0C0,7.2,7.2,0,16,0z"/>
<path fill="#FFFFFF" d="M14.9,16.1c0.4,0.7,0.6,1.3,0.6,2c0,1-0.4,1.8-1.1,2.6c-0.4,0.4-0.8,0.6-1.3,0.8c-0.5,0.2-1,0.3-1.5,0.3
	c-0.8,0-1.6-0.2-2.2-0.7C8.8,20.7,8.2,20,7.6,19l-0.1-0.2l1.6-1L9.2,18c0.3,0.6,0.7,1.1,1.1,1.5c0.3,0.3,0.8,0.4,1.2,0.4
	c0.4,0,0.7-0.1,1-0.3c0.3-0.2,0.5-0.4,0.7-0.7c0.2-0.3,0.3-0.7,0.2-1c0-0.4-0.1-0.7-0.4-1c-0.4-0.5-1.1-1.2-2.1-1.9
	c-1.1-0.8-1.7-1.4-2-1.8c-0.5-0.6-0.7-1.3-0.7-2.1c0-0.6,0.1-1.2,0.4-1.7C9,9.3,9.1,9.1,9.3,8.9C9.6,8.7,9.8,8.6,10,8.4
	C10.6,8.1,11.1,8,11.7,8c0.6,0,1.3,0.2,1.8,0.5c0.6,0.3,1.1,0.9,1.7,1.7l0.2,0.2L14,11.5l-0.2-0.2c-0.5-0.6-0.8-1-1.1-1.2
	c-0.3-0.2-0.6-0.3-1-0.3c-0.4,0-0.8,0.1-1,0.4c-0.1,0.1-0.2,0.3-0.3,0.4c-0.1,0.2-0.1,0.3-0.1,0.5c0,0.2,0.1,0.5,0.2,0.7
	c0.1,0.2,0.3,0.5,0.6,0.7c0.1,0.1,0.3,0.2,0.4,0.3c0.2,0.2,0.6,0.5,1.2,0.9C13.7,14.7,14.5,15.4,14.9,16.1z M23.5,10.4l-4,9.3
	L15.7,11l-1.5,1.2l4.9,11.4h0.6l5.7-13.1H23.5z"/>
</svg>
