<svg width="32" height="32" viewBox="0 0 32 32" xmlns="http://www.w3.org/2000/svg">
<path fill="#133E35" d="M16,0L16,0c8.8,0,16,7.2,16,16l0,0c0,8.8-7.2,16-16,16l0,0C7.2,32,0,24.8,0,16l0,0C0,7.2,7.2,0,16,0z"/>
<path fill="#FFFFFF" d="M23,12c-0.2-0.4-0.5-0.7-0.8-0.9c-0.4-0.2-0.7-0.3-1.1-0.3c-0.5,0-1,0.2-1.5,0.5c-0.4,0.4-0.6,0.9-0.6,1.4
	c0,0.5,0.2,1,0.5,1.3c0.5,0.4,1.1,0.8,1.7,1c1,0.4,1.7,0.8,2.1,1.3c0.4,0.5,0.7,1.3,0.6,2c0,1-0.4,1.9-1,2.6c-0.7,0.7-1.6,1.1-2.6,1
	c-0.6,0-1.1-0.1-1.7-0.3c-0.4-0.2-0.8-0.4-1.1-0.8c0.1-0.2,0.1-0.4,0.2-0.6c0.1-0.2,0.1-0.4,0.1-0.6l0.3-0.1c0.3,0.4,0.6,0.9,1,1.1
	c0.4,0.3,0.9,0.4,1.4,0.4c0.6,0,1.2-0.2,1.7-0.7c0.4-0.4,0.7-1.1,0.6-1.7c0-0.5-0.2-1-0.5-1.4c-0.5-0.5-1.1-0.8-1.7-1
	c-1-0.4-1.7-0.8-2.1-1.3c-0.5-0.5-0.7-1.3-0.6-2c0-0.9,0.3-1.7,0.9-2.2c0.6-0.5,1.4-0.9,2.2-0.9c0.5,0,0.9,0.1,1.4,0.2
	c0.4,0.1,0.8,0.3,1.2,0.5c-0.1,0.2-0.2,0.4-0.2,0.6c-0.1,0.2-0.1,0.4-0.2,0.7L23,12z M11,17.1c-0.5-0.9-1-1.9-1.7-3.1l-1-1.6
	c-0.5-0.8-0.8-1.3-1-1.6c-0.1-0.2-0.2-0.3-0.3-0.5c0.3,0.1,0.6,0.1,1,0.1s0.7,0,1-0.1c0.1,0.3,0.2,0.6,0.4,0.9
	c0.1,0.3,0.3,0.7,0.6,1.2l0.6,1.2c0.5,1,1,1.8,1.4,2.5c0.4-0.7,0.8-1.5,1.3-2.4l0.7-1.3c0.3-0.4,0.4-0.8,0.6-1.1
	c0.2-0.3,0.3-0.7,0.4-1c0.3,0.1,0.5,0.1,0.7,0.1c0.2,0,0.5,0,0.7-0.1c-0.1,0.2-0.3,0.3-0.3,0.5c-0.2,0.3-0.5,0.8-0.9,1.6l-1,1.5
	c-0.6,1.1-1.2,2-1.6,2.9v1c0,1.3,0,2.2,0,2.8c0,0.4,0.1,0.9,0.1,1.4c-0.3-0.1-0.5-0.1-0.8-0.1c-0.3,0-0.5,0-0.8,0.1
	C11,21.4,11,21,11,20.5c0-0.5,0-1.5,0-2.8V17.1z"/>
</svg>
