<svg width="72" height="72" viewBox="0 0 72 72" fill="none" xmlns="http://www.w3.org/2000/svg">
<path d="M33.2,55.1c-14.7-0.4-17.6-0.9-19.8-1c-0.2,0.4-0.5,1.4-0.6,1.7c0,0,0,0.1,0,0.1l-0.1,0.3
	c-0.3,0.8-0.4,1.6-0.5,2.4c0,1.2,0.3,2.4,1.2,3.2c0.1,0.1,0.2,0.2,0.3,0.3c1,0.7,1.6,0.8,3,1.1c1.4,0.3,16.9,0.2,16.9,0.2L33.2,55.1
	z M11.1,35.3l-6.7-1.7c6-0.6,9.3-1.3,14.4-3.5c0.3,6,1.1,9.1,2.8,14.5l-4.1-5.4c-1.5,2.5-2.1,3.8-3.2,5.9c-1.2,2.2-2.2,4.5-2.7,6
	s-1,3.1-1.3,4.3C10,56.8,10,58,9.9,58.6l-0.1,0.9c0,0-4.4-7.1-5.1-9c0,0,0-0.1-0.1-0.2c-0.3-0.9-0.2-1.8,0.1-2.7
	C6.3,43.8,9.6,38.3,11.1,35.3z M51.3,34c6.9,13,7.9,15.8,8.9,17.8c0.4,0,1.5-0.2,1.8-0.3c0,0,0.1,0,0.1,0l0.3-0.1
	c0.8-0.2,1.6-0.4,2.4-0.8c1.1-0.6,1.9-1.5,2.1-2.6c0-0.1,0.1-0.3,0.1-0.4c0.2-1.2-0.1-1.8-0.6-3.1c-0.5-1.4-8.1-14.8-8.1-14.8
	L51.3,34z M45,63l1.9,6.6c-3.5-4.9-5.7-7.4-10.2-10.8c5.1-3.3,7.4-5.5,11.2-9.6l-2.7,6.2c2.9,0.1,4.3-0.1,6.7-0.1
	c2.5-0.1,5-0.3,6.6-0.6c1.6-0.3,3.1-0.7,4.4-1c1.2-0.3,2.4-0.9,2.9-1.2l0.8-0.4c0,0-4,7.3-5.3,8.9c0,0-0.1,0.1-0.1,0.2
	c-0.6,0.7-1.5,1.1-2.4,1.2C54.7,63,48.3,62.8,45,63z M23.7,28.7c7.7-12.5,9.7-14.8,10.9-16.6c-0.2-0.3-0.9-1.2-1.1-1.4
	c0,0-0.1-0.1-0.1-0.1l-0.2-0.2c-0.6-0.6-1.2-1.2-1.8-1.7c-1-0.6-2.2-0.9-3.4-0.5c-0.1,0-0.3,0.1-0.4,0.1c-1.1,0.5-1.5,1-2.4,2
	c-1,1.1-8.7,14.5-8.7,14.5L23.7,28.7z M51.9,19.6l4.8-4.9c-2.5,5.5-3.5,8.7-4.3,14.2c-5.4-2.8-8.5-3.6-13.9-4.9l6.7-0.8
	c-1.4-2.6-2.2-3.7-3.5-5.8c-1.3-2.1-2.8-4.1-3.8-5.4c-1-1.2-2.2-2.4-3.1-3.3s-2-1.6-2.5-1.9l-0.7-0.5c0,0,8.3-0.3,10.4,0.1
	c0,0,0.1,0,0.2,0c0.9,0.2,1.7,0.8,2.2,1.5C47,11.2,50.1,16.8,51.9,19.6z" fill="#133E35" />
</svg>
