<svg width="32" height="32" viewBox="0 0 32 32" xmlns="http://www.w3.org/2000/svg">
<path fill="#133E35" d="M16,0L16,0c8.8,0,16,7.2,16,16l0,0c0,8.8-7.2,16-16,16l0,0C7.2,32,0,24.8,0,16l0,0C0,7.2,7.2,0,16,0z"/>
<path fill="#FFFFFF" d="M21.8,21.5c-6.5,3.5-10.5,0.6-13.1-1.2c-0.2-0.1-0.4,0-0.2,0.3c0.9,1.2,3.7,4,7.3,4c3.7,0,5.9-2.3,6.1-2.6
	C22.2,21.6,22,21.4,21.8,21.5L21.8,21.5z M23.6,20.4c-0.2-0.3-1.1-0.3-1.6-0.2c-0.6,0.1-1.4,0.5-1.3,0.7c0,0.1,0.1,0,0.5,0
	c0.4,0,1.5-0.2,1.7,0.1c0.2,0.3-0.3,1.9-0.4,2.2c-0.1,0.3,0,0.3,0.2,0.2c0.2-0.2,0.5-0.6,0.7-1.2C23.6,21.5,23.7,20.6,23.6,20.4z"/>
<path fill="#FFFFFF" fill-rule="evenodd" clip-rule="evenodd" d="M17.4,14.5c0,0.9,0,1.7-0.4,2.5c-0.3,0.7-0.9,1.1-1.4,1.1c-0.8,0-1.3-0.7-1.3-1.7c0-2,1.6-2.4,3.1-2.4V14.5z
	 M19.5,20.1c-0.1,0.1-0.3,0.1-0.5,0.1c-0.7-0.6-0.8-0.9-1.2-1.6c-1.1,1.3-1.9,1.7-3.4,1.7c-1.7,0-3.1-1.2-3.1-3.6
	c0-1.9,0.9-3.2,2.2-3.8c1.1-0.6,2.7-0.7,3.9-0.8v-0.3c0-0.6,0-1.2-0.3-1.7c-0.3-0.4-0.7-0.6-1.2-0.6c-0.8,0-1.5,0.5-1.7,1.4
	c0,0.2-0.2,0.4-0.4,0.4l-2-0.2c-0.2,0-0.4-0.2-0.3-0.5C12.1,7.8,14.3,7,16.3,7c1,0,2.3,0.3,3.1,1.2c1,1.1,0.9,2.5,0.9,4v3.6
	c0,1.1,0.4,1.6,0.8,2.2c0.1,0.2,0.2,0.5,0,0.6C20.7,19,19.9,19.7,19.5,20.1L19.5,20.1"/>
</svg>
