<?xml version="1.0" encoding="utf-8"?>
<!-- Generator: Adobe Illustrator 25.2.1, SVG Export Plug-In . SVG Version: 6.00 Build 0)  -->
<svg version="1.1" id="Layer_1" xmlns="http://www.w3.org/2000/svg" xmlns:xlink="http://www.w3.org/1999/xlink" x="0px" y="0px"
	 width="130px" height="23px" viewBox="0 0 130 23" style="enable-background:new 0 0 130 23;" xml:space="preserve">
<style type="text/css">
	.st0{fill:#133E35;}
</style>
<path class="st0" d="M5.6,23l1.9-8.5L1,8.8L9.6,8L13,0l3.4,8L25,8.8l-6.5,5.7l2,8.5L13,18.5L5.6,23z M31.6,23l2-8.5L27,8.8L35.6,8
	L39,0l3.4,8L51,8.8l-6.5,5.7l2,8.5L39,18.5L31.6,23z M57.6,23l2-8.5L53,8.8L61.6,8L65,0l3.4,8L77,8.8l-6.5,5.7l2,8.5L65,18.5
	L57.6,23z M83.6,23l2-8.5L79,8.8L87.6,8L91,0l3.4,8l8.6,0.8l-6.5,5.7l2,8.5L91,18.5L83.6,23z M109.6,23l2-8.5L105,8.8l8.6-0.8l3.4-8
	l3.4,8l8.6,0.8l-6.5,5.7l2,8.5l-7.4-4.5L109.6,23z"/>
</svg>
