<svg width="25" height="18" viewBox="0 0 25 18" fill="none" xmlns="http://www.w3.org/2000/svg">
<path d="M24.766 8.89931C20.3767 6.95763 17.5895 2.75319 16.5381 0.472688C16.492 0.372805 16.3427 0.406505 16.3495 0.516281C16.6145 4.77281 20.054 8.38567 20.5952 8.92937C20.6353 8.96969 20.6353 9.03032 20.5952 9.07064C20.0524 9.61599 16.5935 13.2493 16.3472 17.5227C16.3409 17.6308 16.4847 17.6626 16.5307 17.5646C18.8897 12.5299 22.8339 9.8937 24.7649 9.09229C24.8488 9.05748 24.8491 8.93605 24.766 8.89931Z" fill="#ACACA9"/>
<path d="M0.334635 7.61328C8.48049 8.18916 13.2413 8.19248 21.668 8.30559L21.668 9.6902C13.3995 9.72012 0.334635 10.3825 0.334635 10.3825L0.334635 7.61328Z" fill="#ACACA9"/>
</svg>
