<svg width="289" height="124" viewBox="0 0 289 124" fill="none" xmlns="http://www.w3.org/2000/svg">
<path d="M153.248 109.879C153.931 116.14 155.159 120.084 157.043 123.228L179.481 118.953C179.618 118.953 179.618 118.705 179.481 118.705C175.96 118.567 167.389 116.995 167.416 104.087V37.2334H166.379L140.664 43.3286C140.664 43.3286 140.555 43.5492 140.691 43.5768C148.28 44.3491 152.566 47.7966 152.566 53.7263V96.8063C152.566 100.998 152.73 104.501 152.894 107.645C148.935 112.692 142.875 116.168 135.287 116.168C123.576 116.168 118.717 108.307 118.717 96.2823V37.2334H117.68L91.9652 43.3286C91.9652 43.3286 91.856 43.5492 91.9925 43.5768C99.5812 44.3491 103.867 47.7966 103.867 53.7263V97.4958C103.867 113.547 111.456 124 127.698 124C139.436 124 148.935 116.857 153.248 109.879Z" fill="#FCEEA3"/>
<path d="M75.2597 9.10142C67.9985 3.66815 58.2532 0 47.8528 0H0.0273243C0.0273243 0.1379 0.0272977 0.0827402 0 0.22064C3.71248 0.799822 11.2739 2.81316 11.2739 12.3559V109.879C11.2739 120.028 3.38491 121.352 0 122.042C0 122.18 2.66585e-05 122.152 0.0273243 122.29H40.9465C40.9465 122.152 40.9465 122.18 40.9738 122.042C37.5889 121.352 28.0347 120.028 28.0347 109.879V4.68861H43.5944C53.558 4.68861 70.2642 9.32206 70.2642 35.9092C70.2642 55.6841 58.9357 68.9777 36.5243 69.5293C36.4424 69.5293 36.3878 69.5845 36.3878 69.6672C36.3878 69.75 36.4424 69.8051 36.5243 69.7775C46.2149 70.3843 55.3324 70.4395 64.2587 67.6539C78.7811 63.1032 87.9258 50.1405 87.9258 34.7233C87.9258 24.1601 83.5581 15.3069 75.2597 9.10142Z" fill="#FCEEA3"/>
<path d="M277.725 109.852V37.2334H276.688L250.974 43.3286C250.974 43.3286 250.892 43.5492 251.028 43.5768C259.217 44.5145 262.875 50.72 262.875 57.2014V109.907C262.821 119.946 254.986 121.353 251.601 122.07C251.601 122.208 251.601 122.18 251.629 122.318H288.972C288.972 122.18 288.972 122.208 288.999 122.07C285.614 121.38 277.753 119.974 277.725 109.879V109.852Z" fill="#FCEEA3"/>
<path d="M269.641 25.2912C274.636 25.2912 278.786 21.0991 278.786 16.2174C278.786 11.3357 274.636 7.14355 269.641 7.14355C264.645 7.14355 260.496 11.3357 260.496 16.2174C260.496 21.0991 264.618 25.2912 269.641 25.2912Z" fill="#FCEEA3"/>
<path d="M195.477 57.1738V109.879C195.422 119.918 187.588 121.325 184.203 122.042C184.203 122.18 184.203 122.152 184.23 122.29H221.573C221.573 122.152 221.573 122.18 221.601 122.042C218.216 121.353 210.354 119.946 210.327 109.852V37.2334H209.29L183.575 43.3286C183.575 43.3286 183.493 43.5492 183.63 43.5768C191.819 44.5145 195.477 50.72 195.477 57.2014V57.1738Z" fill="#FCEEA3"/>
<path d="M239.887 50.8579C243.899 48.4585 245.264 41.6738 245.264 41.6738C245.264 41.6738 240.897 37.2334 232.298 37.2334C225.419 37.2334 219.823 40.4327 215.974 47.1898C213.954 50.7476 213.299 54.7467 213.299 54.7467C216.22 49.0377 221.597 48.5412 224.218 48.8998C227.93 49.3962 229.213 50.7476 231.779 51.5474C234.4 52.3749 237.457 52.2921 239.887 50.8579Z" fill="#FCEEA3"/>
</svg>
