<svg width="185" height="38" viewBox="0 0 185 38" fill="none" xmlns="http://www.w3.org/2000/svg">
<path d="M8.07025 10.6313C8.07025 7.72095 10.1969 5.85392 13.0051 5.85392C15.8133 5.85392 17.5583 7.61112 18.4035 9.99981L23.6928 7.7484C22.2205 3.60252 18.4308 0.74707 13.2233 0.74707C6.78886 0.74707 2.2902 5.27734 2.2902 11.0431C2.2902 23.014 19.0578 18.8682 19.0578 26.7755C19.0578 30.3997 16.1678 32.7335 12.7597 32.7335C8.96998 32.7335 6.40708 30.2625 5.48009 26.2539L0 27.8189C1.17237 33.8867 6.16177 37.8404 12.6234 37.8404C19.4941 37.8404 24.9469 32.8433 24.9469 26.4461C24.9469 14.0084 8.09754 17.8248 8.09754 10.6313H8.07025Z" fill="#FCEEA3"/>
<path d="M38.7422 37.2908H58.8088V32.184H44.604V21.0642H58.618V15.9848H44.604V6.43008H58.8088V1.32324H38.7422V37.2908Z" fill="#FCEEA3"/>
<path d="M91.0617 0.774414C80.8375 0.774414 72.6582 9.06618 72.6582 19.3073C72.6582 29.5485 80.8375 37.8403 91.0617 37.8403C101.286 37.8403 109.438 29.5485 109.438 19.3073C109.438 9.06618 101.259 0.774414 91.0617 0.774414ZM91.0617 32.2392C84.1093 32.2392 78.6564 26.6656 78.6564 19.3073C78.6564 11.9491 84.1093 6.37548 91.0617 6.37548C98.0141 6.37548 103.467 11.9491 103.467 19.3073C103.467 26.6656 97.9869 32.2392 91.0617 32.2392Z" fill="#FCEEA3"/>
<path d="M144.553 23.2607C144.553 29.2736 141.472 32.3762 136.892 32.3762C132.312 32.3762 129.176 29.2736 129.176 23.2607V1.32324H123.26V23.3431C123.26 32.7331 129.231 37.84 136.892 37.84C144.553 37.84 150.47 32.7331 150.47 23.3431V1.32324H144.553V23.2607Z" fill="#FCEEA3"/>
<path d="M170.205 1.32324H164.289V37.2908H184.219V32.184H170.205V1.32324Z" fill="#FCEEA3"/>
</svg>
