<svg width="133" height="108" viewBox="0 0 133 108" fill="none" xmlns="http://www.w3.org/2000/svg">
<path d="M49.9644 96.6862C46.7654 98.4522 43.2655 99.2799 39.7658 99.2799C31.2624 99.2799 27.8447 93.8441 27.8447 86.256V27.3723H46.3552L47.8864 22.6263H27.8447V0H26.8057C21.638 11.1476 11.9863 24.1164 0.0925624 27.1516C-0.0441477 27.1792 -0.0168057 27.3723 0.0925624 27.3723H12.9433V89.3464C12.9433 101.736 19.8608 107.972 30.4148 107.972C43.0195 107.972 49.0074 98.7557 50.1284 96.8242C50.1831 96.7138 50.0737 96.6034 49.9644 96.6586V96.6862Z" fill="#FCEEA3"/>
<path d="M93.5463 21.0264C72.6843 21.0264 54.0918 38.9067 54.0918 64.8718C54.0918 90.8369 72.6843 108 93.5463 108C114.408 108 133.001 90.1195 133.001 64.1544C133.001 38.1893 114.244 21.0264 93.5463 21.0264ZM94.5853 104.854C79.6292 104.854 70.7704 83.2764 70.7704 61.2019C70.7704 39.1274 78.4261 24.1996 92.4799 24.1996C106.534 24.1996 116.295 43.3216 116.295 67.8518C116.295 89.2365 108.475 104.854 94.5853 104.854Z" fill="#FCEEA3"/>
</svg>
