<svg xmlns="http://www.w3.org/2000/svg" width="1252px" height="2161px" viewBox="0 0 1252 2161">
<path style="fill:#F0EFED;" id="map-area-jeju" d="M284.3,2054.9l-0.1-0.2c-0.1-0.2-0.1-0.4-0.1-0.5l0.2-1.1l0,0c0.3-2.3,0.6-5,0.6-7.3 c0-1.6-0.1-3.9-1.1-6c-1.1-2.2-2.9-3.9-5.5-5l-0.3-0.1c-7.2-2.4-13.2-6.8-19.1-11l-0.6-0.4l-0.2-0.2l-0.3-0.2 c-8.1-5.9-15.7-11.4-25.4-10.6l-50.6,0.7l-0.4,0.1c-19.3,8.6-45,12.6-62.4,9.7h-0.3l-4.3,1.4h-0.1c-9.2,3.2-17.1,6-28,5.5H86 l-15.4,8.6c-13.2,7.4-25.6,14.2-26.4,14.8l-0.2,0.2h-0.2v0.2l-0.1,0.3c-4.8,12.5-14.7,19.7-23.4,26.1l-0.1,0.1 c-7.6,5.7-15.5,11.6-19.2,20.3l-0.1,0.3v0.3l0.1,0.3c0.5,2.1,1,4.5,1.6,7.9v0.2c1.2,7.3,2.3,14.2,8.2,19.7l0.3,0.3 c8.8,12.9,16.3,22,28.5,30.2l0.4,0.3l0.2,0.2h0.2l0.5-0.2c2.3-0.9,3.4-3.1,4.7-6l0.1-0.1c1.7-3.7,3.7-8,9.4-8.8l44.5,2.3 c12.3,0,35.6,1,53.9,7.8l0.2,0.1h0.3l0.3-0.1c4.9-1.1,9.3-3.4,13.7-5.8l0.1-0.1c8.1-4.3,17.3-9.3,30.7-6.1l0.2,0.1h0.3l0.3-0.1 c6.9-1.8,14.1-4.5,20.5-6.8l1.8-0.6c9.4-3.6,19.4-7.2,29.2-9.1c5.5-1.8,8.5-7,11.7-12.5l0.1-0.1v-0.1c3.7-6.4,8-13.6,16.9-15.7 l0.7-0.2h0.3v-1.1c0.4-8.3,1.7-14.8,7.5-23.1l0.1-0.4c0.5-1.7,0.7-3.3,0.7-5C288.8,2064,286.9,2060,284.3,2054.9z"/>
<path style="fill:#F0EFED;" d="M446.2,453.7c-1.1-1.2-2.1-2.3-3.2-3.3c-0.5-0.5-1-0.9-1.5-1.3c-0.1-0.1-0.2-0.1-0.3-0.2 c-0.4-0.2-0.7-0.4-1-0.5l-0.4-0.1h-0.2l-0.5,0.2c-1.3,0.8-3.7,1.9-6.3,2.9c-1.7,0.7-3.5,1.4-5,2c-0.8,0.3-1.6,0.6-2.2,0.9 c-0.4,0.2-0.9,0-1.2-0.3l-5.7-7.6c-0.2-0.2-0.2-0.4-0.2-0.7c0-0.3,0.1-0.6,0.3-0.8l9.2-10.5l0,0h0.1v-0.1v-0.1l-0.1-0.1l-1.9-10.6 c-0.2-1-0.4-2-0.5-2.8c-0.4-2.3-0.6-3.5-0.7-3.7c-2.2-6.2-4.4-12-6.4-16.2c-1.1-2.3-2.1-4.3-3.1-6c-0.6-0.9-0.9-1.5-1.3-1.9 c-0.4-0.5-0.9-0.9-1.1-1l0,0l-2.2-0.1c-4.9-0.1-9,0.1-12.3,0.6c-2.2,0.3-3.8,0.8-5.1,1.4c-1.3,0.6-2.5,1.4-3.4,2.4l0,0l-0.2,0.3 l0,0c-3.3,4.9-8.8,13.7-10.9,17l-0.3,0.5c-0.2,0.2-0.4,0.4-0.7,0.5c-0.3,0.1-0.5,0-0.8-0.2l-10.8-8.3l-0.4-0.2l-0.7,1.3 c-2.8,4.9-6,10.7-8.8,15.7c-3.1,5.6-5.3,9.7-5.8,11l-1.4,1.6c-1,0.4-2.6,0.7-4.4,0.8c-1.9,0.1-4.3,0-6.4-0.1 c-1.8-0.1-3.5-0.3-5-0.5c-0.4,0-0.7-0.1-1-0.1c-1.7-0.2-3-0.5-3.4-0.7s-1.7-0.8-3.6-2.2c-2-1.5-4.1-3.1-6.1-4.7l-0.5-0.4l-0.2-0.2 l-0.2,0.2l-7.2,3.8l-0.2,0.2v0.1l-0.1,0.5v0.4L304,447l-0.2,0.4l0.4,0.2l9.5,2c0.3,0.1,0.5,0.3,0.7,0.4l8.1,11.9 c0.1,0.1,0.1,0.4,0.1,0.7v0.2l-2.2,14.9v0.3l0.2,0.2l6.5,2.7h0.3l0.6-0.3c1.3-0.6,2.7-1.3,4.1-1.6c0.7-0.2,1.2-0.2,1.8-0.2 c0.6,0,0.9,0.2,1.3,0.5c0.3,0.2,0.7,0.7,0.6,1.5l-0.1,0.6l0.1,0.3c0.2,0.4,0.5,1,1,1.6s1.1,1.3,1.9,2.1c1.4,1.5,3.3,3.3,5.2,5.1 l0.3,0.3c4.5,4.1,9.8,8.5,13.4,11.5l0.4,0.3l0.2,0.2h0.2l10.8-4l15.4-4.2c0.4-0.2,0.9,0.1,1.2,0.5l6.9,11.3v0.2h0.3l9.4,1.7h0.2 l8.5-8.9l0.3-0.3l15.7-8.3h0.2l0.6-0.9c0.3-0.6,0.8-1.4,1.4-2.4c0.8-1.4,1.8-3,2.6-4.4c0.7-1.2,1.3-2.2,1.5-2.5l0.1-0.2l0.8-14.1 c0-0.3,0.1-0.5,0.3-0.8l12.3-10.3l0.2-0.2v-0.8L446.2,453.7z"/>
<path style="fill:#F0EFED;" d="M1023.9,1428l-0.1,0.4l0.4,0.1l1.9,0.3l1.2,0.2c3.4,2,7.4,4.3,11.5,6.1c4.1,1.8,8.3,3,12,2.8h0.1h-0.1 c0.3,0,0.5,0.1,0.7,0.2l0,0c6.3,4.9,10.6,12.5,14.4,19.2l0,0l0,0c2.4,4.2,4.4,7.7,6.6,10.5l0.4,0.4c2.2,1.2,4.6,2.3,7.4,3.4 c6.4,2.7,11.6,4.1,16.7,11.4c1.6,2.3,2.5,5,2.8,7.8l0.5,6l0,0v0.5l3.3,0.1c4.1,0.1,8.1,0.2,11.4,1.8c3.3,1.5,6.2,4.5,8,10.6 l0.1,0.2l0.1,0.3c1.1,3,1.5,5.2,1.9,7.6c0.7,4.3,1.4,8.1,5.7,12.7l0.3,0.2c0.8,0.5,1.2,1.2,1.6,2l0.4,0.7l0.1,0.2h0.2h0.8l0,0h0.1 h0.1l0,0l0,0l0.2-0.1l0.1-0.1c2.6-1.6,4.5-2.7,4.7-2.9c0.1,0,0.1-0.1,0.1-0.1c0.1-0.1,0.2-0.1,0.3-0.2c0.2-0.2,0.5-0.5,0.9-0.8 c0.8-0.6,1.8-1.5,2.9-2.3l0,0l5.9-4.8l0.2-0.1v-0.3v-0.5c-0.2-2.3-0.5-5.6-0.5-8.9v-0.2c0-3.2,0.2-5.1,0.6-6.4v-0.1 c1.4-4.4,2.2-7.9,2.2-10.1v-0.1c0-0.7-0.1-1.2-0.3-1.7v-0.1c-0.4-1-1-2.8-1.5-5c-0.5-2.3-1.1-4.9-1.5-7.1c0-0.1,0-0.1,0-0.1v-0.1 l0,0c0-0.5,0.1-1,0.5-1.1h0.1l8.3-4.2l0,0l0.2-0.3l1.7-8.8l0.1-0.2l4.2-10.2l0,0c0.2-0.4,0.4-0.6,0.8-0.7h0.1 c0.3-0.1,0.7,0.1,1,0.4l3.6,3.8c0.1,0.1,0.2,0.3,0.3,0.5l1.5,5.4l5.3,2.7l0.1-0.4l2.6-7.9l0.1-0.2l9-13.4l0.1-0.1 c1.5-3.5,2-7.5,2.5-11.4c0.7-5.7,1.6-10.6,4.3-15l0.3-0.5l0.2-0.2l-0.2-0.4l-0.2-0.3c-2.7-4.9-4-9.7-4-14.7c0-3.8,0.7-7.8,2.2-12.2 l0.1-0.3l0.2-0.6l0.1-0.3l-0.3-0.2l-0.8-0.3c-4.4-2.4-26.9-14.7-28.5-15.6l-0.4-0.2c-0.3-0.2-0.8,0.1-0.8,0.1 c-2.9,1.3-5.7,2.1-8.3,2.8l-0.4,0.1c-5.2,1.4-9.4,2.6-14.1,7.4l-0.9,0.3c-2.5-0.2-7.1-1.2-11.1-3.4c-4-2.2-7.3-5.6-7.3-10.3 l0.2-0.6c0.5-0.9,0.7-1.9,0.7-3l0,0l0,0c0-2-0.8-4.2-1.9-6.2s-2.4-3.8-3.4-5.2c-2.4-2.5-4.7-3.5-7.2-3.5c-2.4,0-5,0.9-8.2,2.2h-0.1 c-0.4,0.1-0.6,0.1-0.8,0l-0.1-0.1l-18.6-10.7h-0.1l-0.1-0.1l-0.2,0.2l0,0l0,0l-0.5,0.5c-3.4,3.7-7.2,5.7-11.1,7.6 c-5,2.4-10.1,4.6-13.1,11.5l0.1,0.4l-0.1,13.9c0,0.5-0.3,1-0.8,1.1l0,0c-1.9,0.5-3.7,0.7-5.4,0.8h-0.1c-1.8,0.1-3.3,0.4-4.5,0.9 c-1.3,0.5-2.3,1.4-3.1,2.9l-0.2,0.2l-0.1,0.1v0.1v0.5c0,0.4,0.1,0.8,0.1,1.2l0,0c0,6-1.8,11.5-4.8,15.1l-0.1,0.1 c-2.4,2.9-5.6,4.6-9.7,5.1l0,0h-0.3l0,0h-0.2l-0.3,0.4c0,0-3.6,5.5-3.6,8.8c0,1.4,0.2,2.8,0.4,4.4s0.4,3.2,0.4,4.9v0.5l-0.2,1.9 l0,0c0,0.1,0,0.1,0,0.1C1023.9,1427.9,1023.9,1427.9,1023.9,1428"/>
<path style="fill:#F0EFED;" d="M307,430.7c-6.4-1.9-11.7-3.6-15.6-5c-1.9-0.7-3.5-1.3-4.7-1.7c-1-0.4-1.7-0.7-2.1-0.9l-0.2-0.2 c-1.2-0.9-3.6-3.1-5.7-5.8c-2.2-2.7-4.1-5.9-4.5-8.7c-0.1-0.8-0.7-1.5-1.4-2.1c-0.7-0.6-1.6-1-2.5-1.4c-1.8-0.7-3.7-1-4.3-1.1 l-0.5-0.1h-0.1l-0.1,0.1l-17.2,19.7l-0.1,0.1v0.1l0.2,0.6c2.7,6.4,5.5,13.9,6.4,22.1c0,0.4-0.2,0.8-0.5,1c-1,0.9-1.7,1.7-2.2,2.3 c-0.5,0.7-0.8,1.2-0.8,1.7c0,0.3,0.1,0.5,0.3,0.9c0.2,0.3,0.4,0.7,0.8,1.3l2.4,4.2c0,0,0,0.1,0.1,0.1l0.3,0.5v0.1l0.3,0.6l0.3,1.8 l0.5,7.6c0,0.1,0,0.2,0,0.3l-3,11.9v0.1v0.1l0.2,0.4c0.3,0.5,2,3.6,4.3,7.6c3.6,6.5,8.7,15.5,11.3,20.2l1.9,3.5v0.1h0.1l12,5 l0.1,0.1l0.1-0.1l2.5-3.3l12.6-14.8v-0.1v-0.1v-13.9v-0.1l-0.1-0.1l-11.6-9.7c-0.3-0.2-0.5-0.6-0.5-1l-0.8-12 c0-0.4,0.2-0.8,0.5-1.1c0.4-0.3,0.8-0.3,1.2-0.2l5.9,2.3h0.1h0.1l5.2-2.7h0.1v-0.1l1.5-12.7c0.1-0.4,0.2-0.7,0.5-0.9c0,0,0,0,0.1,0 s0.1-0.1,0.2-0.1l0.4-0.1h0.1v-0.1l6.9-15.3l0.1-0.2V431L307,430.7z"/>
<path style="fill:#F0EFED;" d="M973.6,1574.4l-7.6,17.1l0,0c-0.2,0.4-0.6,0.7-0.9,0.7c-1.8,0-2.9-0.8-5.7-1.3s-5.4-1-7.7-1.2 c-0.3,0-0.7-0.1-1-0.1c-1.2-0.1-2.4,0-3.4,0.1c-1,0.2-1.8,0.5-2.5,1.1l-0.1,0.2c-0.4,0.4-0.7,1.5-0.8,2.3l0.1,0.4l0.1,0.1l10.3,12 l0.1,0.2c0.2,0.2,0.1,0.4,0.1,0.7c0,0.2,0,0.2,0,0.2v0.1l-5.9,24.4l-0.1,0.5l-0.1,0.3l0.3,0.1l0.1,0.1l6,2.1l0,0 c4.2,1.6,7.7,3.6,12,4.4c4.3,0.7,8.5,0.5,12-1.9c0.2-0.1,0.4-0.2,0.6-0.2h0.1c1.8,0.1,3.4-0.9,4.8-2.2c1.4-1.3,2.6-3,3.8-4.7 l0.1-0.1c1.2-1.6,2.2-3,3.4-4.1s2.1-1.9,3.4-2h0.3c1.5-0.1,2.9,0.6,4.4,2.2l0,0c0.2,0.2,0.3,0.5,0.3,0.8v0.4v0.2l0.1,6.6l-0.1,0.3 c-0.3,1.5-0.4,3.4-0.4,5.4c0,1,0.1,3.2,0.4,5.7c0.4,2.4,1.1,5.1,2.5,7l0,0l0,0c0.4,0.6,0.8,0.8,1.2,1.1l0.2,0.1l0.8,0.5l0.4,0.3 l0.1-0.2l0.1-0.2l0.5-1.1c1.1-2.6,2.6-3.8,4.1-4.3c1.6-0.5,3.4-0.4,5.2-0.1h0.1c1.8,0.3,3.4,0.5,4.7,0c1.4-0.5,2.3-1.3,3.2-3.4 l0.1-0.2c0.1-0.3,0.4-0.7,0.7-0.7l0,0c2.3-0.7,4.2-0.2,5.8,0.8c1.6,1,2.8,2.4,4.1,3.8l0.1,0.1c0.8,0.8,1.5,1.7,2.3,2.4 c0.8,0.7,1.6,1.3,2.5,1.6l0.4,0.1l1.1,0.3h0.1l0.7,0.2l-0.1-0.7h-0.1l-0.3-1.5l0,0c0-0.1,0-0.2-0.1-0.3c0-0.1,0-0.2-0.1-0.3v-0.1 c-0.1-0.5-0.2-0.9-0.2-1.3l0,0c0-0.7,0.2-1.3,0.3-1.9l0,0c0,0,0,0,0-0.1c0,0,0,0,0-0.1v-0.5c0.1-2-1.6-3.6-3.5-5.3 c-2.2-2-4-4-4.3-6.4c-0.1-1.4,0.5-3,2-4.9c0.1-0.2,0.3-0.3,0.5-0.4c2-0.7,4.1-0.4,6,0.2c2,0.7,3.8,1.9,5.7,3h0.1 c1.8,1.1,3.6,2.1,5.4,2.7s3.5,0.8,5.2,0.3l0.9-0.4v-0.2l0.9-10.8l0.1-0.6c2.5-4.2,5.5-6.5,9-7.7s7.6-1.4,12.1-1.4h0.1h0.6l0,0h0.3 l0.1-0.2l0,0l0.2-0.6c2.4-5.9,7-11.1,12.2-17l0.1-0.1c3.4-3.8,6.6-7.3,9-10.9s3.9-7.2,3.9-11.2v-0.1v-0.2c0-2.3-0.6-4.3-1.6-6.5 v-0.1c-0.1-0.2-0.1-0.3-0.1-0.5s0-0.4,0.1-0.6v-0.1l12.2-22l0.1-0.1c0.1-0.2,0.1-0.2,0.3-0.3l0,0l13.5-8.2l0.3-0.2l-0.1-0.4l0,0 l-0.1-0.2l-0.1-0.3l-0.5-0.8l-0.4-0.8l-0.3-0.3c-0.2-0.1-0.4-0.2-0.5-0.3c-5-5.3-5.8-9.9-6.6-14.4c-0.4-2.4-0.8-4.9-1.9-7.7 c-3.2-10.2-9-10.4-17.1-10.6l-3.1-0.1l-0.6-0.1l-0.4,1l0,0c-2.6,5.8-7.9,7.3-13.1,8.4c-0.4,0.1-0.7,0.1-1.1,0.2 c-1.1,0.2-2.2,0.5-3.2,0.7c-0.2,0.1-0.5,0.1-0.7,0.2c-0.2,0-0.4,0.1-0.5,0.1c-1.5,0.4-3,0.9-4.4,1.6c-4.1,2.1-7.3,5.7-10.1,9.1 l-2.8,3.5l0,0c-2.6,3.3-5.4,6.9-8.8,9.9c-1.8,1.6-3.8,3-5.9,4c-1.6,0.7-3.3,1.3-5.2,1.5c-0.5,0.1-2.9,0.3-15.8,1.5l-0.7,0.1l0,0 l-0.4,0.1h-0.2l-0.1,0.3l-0.2,0.6l0.6,0.1l0,0l-0.6-0.2c-1.1,4.3-3.1,10.1-6.5,14.7c-3,3.9-7,6.8-11.6,7.2c-0.6,0-1.3,0.1-2,0h-0.1 h-0.1h-0.1l0,0h-0.1l0,0h-0.1c-1.1,0.2-2.3,0.3-3.4,0.4c-3.6,0.2-7-0.1-9.7-0.2c-3.3-0.2-6.1-0.4-8.6-0.1c-0.2,0-0.4,0-0.5,0.1l0,0 c-1.3,0.1-2.5,0.4-3.6,0.8c-3.3,1.2-5.5,3.8-6.9,8.8L973.6,1574.4z M1064.5,1524.8l-0.2-0.2L1064.5,1524.8L1064.5,1524.8z"/>
<path style="fill:#F0EFED;" id="map-area-damyang" d="M562.5,1611.3l-3.6-6.9l-0.1-0.3c-0.4-0.5-17.4-19.7-18.1-20.5c-0.2-0.2-0.3-0.5-0.3-0.8v-0.1l0.1-0.1v-0.1 c0.6-2.3,0.9-4.5,0.9-6.6c0-9.8-7.1-14.7-14-19.4c-2.7-1.9-5.3-3.7-7.6-5.8c-0.2-0.2-0.3-0.4-0.4-0.6c-1.1-5.1-1.6-10.3-1.6-16.9 c0-2.8,0.1-5.5,0.2-8v-0.4v-0.4c0.1-2.3,0.2-4.5,0.2-6.6c0-8.1-0.8-16.6-6.3-24.4l-0.2-0.3l-0.3-0.2c-5.8-2.7-9.6-7.5-12.7-12.2 l-0.3-0.5c-3.7-5.8-6.9-11.8-13.9-11.9c-1,0-2,0.1-3.2,0.3l0,0c-2.5,0-5.1-1.5-8-3c-3.5-2-6.6-3.5-9.5-3.5c-1.7,0-3.4,0.4-5.2,1.6 l-17.3,20.4c-0.2,0.2-0.4,0.4-0.6,0.4s-0.4,0-0.5-0.2c-5.2-2.9-9.3-4.5-13.5-4.4s-8.5,1.9-14.2,6.1c-0.2,0.1-0.4,0.2-0.6,0.2 s-0.4-0.1-0.5-0.2c-4.2-3.1-9-5.4-14.5-7.8c-6.1-2.8-11.1-5.3-15.4-8.7l-0.7-0.6l-0.1,0.1l-0.1-0.1l-6.9,4.5 c-0.2,0.1-0.4,0.2-0.6,0.2s-0.5-0.2-0.6-0.4l-6.1-7.3h-0.2l0,0l-0.8,0.1c-6.2,1.7-13.2,5.3-21.7,9.9c-0.2,0.1-5.8,3.1-6.5,3.5 l-0.3,0.2c-0.4,0.4-0.6,0.5-0.9,0.6c-1.1,0-1.8-1.1-3.6-4.2l-0.2-0.3c-1.5-2.5-2.7-4.7-4-5.7c-0.8-0.5-2.4-0.8-4.4-1.2l-0.8-0.1 c-3.7-0.7-7.8-1.4-9.1-4.4c-0.2-0.5-0.4-1.1-0.4-1.9c0-1.2,0.4-2.6,1.3-4.3l9.4-11.4l-9.3-16.7c0-0.1-0.2-0.3-0.2-0.6 c0-0.2,0-0.3,0.1-0.5c1.2-2.7,3.1-4.9,5.1-7.2c2.5-2.7,5-5.6,5.2-9.1v-0.7l-0.6-0.4c-3.3-2.3-4.4-5-5.4-7.5c-1.1-3.1-2.1-5-6.7-5.7 h-0.1c0,0,0,0-0.1,0c-8.2,0.1-14.1,7-18,21.1l-0.1,0.4l2.7,8.5c0.1,0.1,0.1,0.3,0.1,0.4v0.3c-0.8,3.4-2.1,5.4-3.9,6.1 c-0.5,0.2-1,0.2-1.5,0.2c-2.4-0.1-5-2.1-7.9-4.3c-2.7-2.1-5.8-4.5-8.4-4.5c-0.4,0-0.7,0-1.1,0.1H274c-0.1,0-0.2-0.1-0.3-0.1 c-6.1-3.1-7.8-10.4-8.7-16.6c-1.5-9.6-3.2-16-13.4-16.8c-0.5-0.1-0.3-0.2-0.5-0.7c-0.7-4.2-1.9-6.7-3.5-7.5 c-0.4-0.2-0.9-0.2-1.3-0.2c-1.9,0-4.4,1.5-7.7,3.6c-2.9,2-6.1,4.1-9.1,4.2c-1,0-1.9-0.2-2.8-0.8l-0.3-0.1c-1-0.3-2-0.5-3-0.5 c-4.1,0-8.4,2.8-12.3,8.1l-0.5,0.7l0.4,0.8c1.7,3,2.6,6,2.6,9.1c0,6.4-3.3,12.4-6.5,18.2l-0.4,0.7l0.2,0.4l0.1,0.2 c0.3,0.9,0.5,1.5,0.5,2c0,3.6-3.8,5.9-6.6,7.7l-0.2,0.1c-3,1.9-6,3.8-6.9,6.9c-0.1,0.5-0.8,0.9-1.3,0.9l-13.8-2.5l0.1,1.7 c0,0.2,0,0.4,0.1,0.6v0.2c0,6.9-5.7,8.7-10.8,10.4l-3.7,1.2c-0.1,0-0.2,0.1-0.3,0.1c-0.3,0-0.6-0.1-0.8-0.3l-9.4-8.6l-0.1,0.1l0,0 l-12.8,9.7c-0.2,0.1-0.4,0.2-0.6,0.2c-0.2,0-0.3,0-0.5-0.2l-10.5-5.7c-1.6-1.2-2.4-3.2-2.4-6.2c0-1.6,0.2-3.3,0.5-5.2 c0.1-0.6,0.2-1.2,0.2-1.8l0.1-0.9l-0.7-0.4c-6.6-5.3-7.2-10.5-7.8-16v-0.1c-0.3-3-0.6-6.1-1.8-9.6l0,0l-0.1-0.1c0,0,0-0.2,0-0.3 c0-0.2,0.1-0.6,0.3-0.8c2.2-2.6,4.6-5.5,4.6-8.1v-0.6c-0.2-1.3-1.2-2.5-2.9-3.6l-0.2-0.1c-0.2-0.1-1.2-0.4-2.6-0.9 c-1.8-0.6-4.2-1.4-5.6-1.9l-0.7-0.3l0,0l0,0l-0.5,0.4c-7.1,5.9-10.5,11.4-10.5,16.9l0,0c0,0,0,0,0,0.1c0,2,0.5,4.1,1.4,6.1 c0,0.1,0,0.1,0.1,0.2c0,0.1,0,0.2,0.1,0.3v0.8c0,6.5-5.8,9.4-11.2,11.7l-0.5,0.3l-12.7,31.1c-0.2,0.5-0.6,0.8-1.1,0.8 c-0.3,0-0.6,0-0.9,0c-4.6,0.2-6.6,4-8.9,8.4l-0.1,0.2c-1.9,3.9-4.5,9.1-10.1,9c-0.4,0-0.7,0-1.1-0.1l-0.9-0.1l0,0l0,0l-0.4,0.8 c-1,1.7-1.4,3-1.4,4c0,0,0,0,0,0.1l0,0c0,0.3,0,0.6,0.1,0.9c0.6,2.9,4,4.9,7.7,7l0.3,0.2c4.4,2.7,9.4,5.7,11,11.3 c0,0.1,0,0.2,0.1,0.4c0.8,9.2,7.9,18.9,14.8,28.2l7.3,10.3l0.1,0.1l0.5,0.2c5.6,1.3,8.6,3,9.5,5.5c0.2,0.5,0.3,1.1,0.3,1.6 c0,2.8-2.2,6-4.9,9.5L98,1564c-2.7,3.7-5.8,7.9-5.8,12l0,0c0,0,0,0,0,0.1c0,0.7,0.1,1.4,0.2,1.9c0,0.1,0,0.2,0.1,0.3l0,0 c0,0.2-0.1,0.5-0.2,0.7c-1.7,2.2-3.7,3.4-5.7,3.4s-3.9-1.2-5.6-3.3c-0.2-0.2-0.2-0.5-0.2-0.8v-0.1l0.1-0.2c0.1-0.4,0.1-0.7,0.1-1 c0-4.1-5.5-11.1-8.3-13.1l-0.3-0.3l-8.2-0.6l0,0l0,0l-3,4.5l-0.2,0.4v0.3c0,0.1,0,0.2-0.1,0.2c0,0.1,0,0.2,0,0.3v0.1l0,0 c0,4.7,3.2,9.2,9.7,14c0.3,0.2,0.4,0.5,0.4,0.9s-0.2,0.8-0.5,1c-3.5,2.5-6.3,5.6-9.2,9L61,1594c-4.3,4.8-9.1,10.2-16.4,12.7 l-0.4,0.1l-0.3,0.4c-0.7,1.2-1,2.4-1,3.8l0,0c0,0,0,0,0,0.1c0,5.5,5.6,10.5,11.8,15.5l1.3,1.1l11.1-6.3c0.5-0.3,1.2-0.1,1.5,0.4 c6.1,10,5.1,17,4,25c-0.6,3.9-0.9,7.1-1,10.6c0,0.2,0,0.3-0.1,0.5v0.1c-1.5,2.6-3.7,5.3-5.9,8.1l-0.4,0.5 c-8.4,10.4-14.3,19.2-7.8,29c0.1,0.2,0.3,0.7,0.2,1.1l-1.6,3.7c-2.5,5.6-3.8,8.9,0.9,12.8c4.3,3.7,11.4,4.6,17.7,5.5 c3.9,0.5,7.3,1,10.2,2c8.7,2.8,14.7,6.1,19.6,14.4c2.1,3.5,4.9,11.8,2.1,15.8c-1.4,2.1-3.9,2.7-7.5,1.9c-5.3-1.2-8.9-5.5-12.4-9.6 l-0.5-0.6c-3.2-3.7-6.3-7.2-10.5-8.8l-2.2-0.9c-7-2.8-14.1-5.1-18-2.9c-1.3,0.8-2.2,2.1-2.6,3.9c-1.2,5.8,3.1,12.1,7,17.7l0.2,0.3 c1.8,2.5,3.3,4.7,4.4,6.9l0.8,1.5c2.1,3.8,5.7,10,2.2,13.6c-2.8,2.9-8.2-0.9-9.3-2c-4.7-4.3-8-12.8-11-21.1l-1.7-4.6 c-0.8-2.1-1.2-4.4-1.2-7.4c0-1.7,0.1-3.4,0.2-5.3c0.1-1.6,0.2-3.3,0.2-4.8c0-2.4-0.3-4.3-0.9-5.9c-2.1-5.1-10.4-9.3-17.4-11.5 l-0.9-0.3l-0.6,0.7c-4.1,4.8-5.5,9.9-7.2,17.1l-2.4,8.8l-0.5,1.3l-0.1,0.4c-0.6,1.9-1.1,3.3-1.1,4.6c0,1.3,0.4,2.7,1.4,4.6l2.8,4.3 c1.5,2.1,3.4,4.6,4.2,7.7c0.5,1.7,0.5,3.4,0.5,5.2c0,1.6,0,3.2,0.4,4.6c0.8,2.9,2.6,4.9,5.4,7.4l11.7,9.7l8.7,7.1l2.9,2.6 c5.7,5.5,10.3,8.9,15.8,4l0.5-0.2c1.2-0.3,2.9-0.4,4.4,0.8c3.2,2.4,4,8.4,4.5,14l0.1,0.4v0.1c3.1,5.7,3.5,12,3.5,17.5v6.3 c0,8.6,0.9,16,11.4,20.3c0.2,0.1,0.5,0.3,0.6,0.7c0.4,1.1,0.6,2,0.6,3c0,3.9-3.8,6.1-6.6,7.8l-0.4,0.2c-1.6,0.9-3.3,1.9-4.2,3.2 c-1.7,1.8-2.6,4-2.6,6.4c0,0.6,0.1,1.2,0.2,1.8v0.3c0.7,3.1,3.1,5.6,6.4,6.7c0.2,0.1,0.5,0.2,0.6,0.4c2,3.2,2.2,6.5,2.2,9.4 c0,0.9,0,1.9-0.1,3c0,0.5,0,1-0.1,1.4c0,0.4,0,0.8,0,1.2c0,3.5,0.5,6.1,3.1,8l0.3,0.3h1.2c1.9,0,4-0.5,5.6-1 c3.7-1,7.6-1.8,11.6,0.7l0.4,0.1h0.4c13.1-1,14.4-9.5,15.9-19.4l0.1-0.4c1.4-9.3,2.8-19,15-21.9c3.6-1.4,6.3-3.7,8.8-6 c4.6-4.1,9-8,17.7-2.7l0.9,0.4l0.7-0.7c3.1-2.9,5-6.3,5-9.1c0-0.7-0.1-1.4-0.3-2c-0.1-0.1-0.1-0.2-0.1-0.4c0-0.1,0.1-0.3,0.2-0.5 c2.5-5.1,5.3-10.5,10.5-14.3l0.7-0.4l-0.1-1.4c-0.1-0.8-0.2-1.7-0.2-2.6c0-11.5,5.2-22.5,10.2-31.8c0.2-0.4,0.6-0.7,1.1-0.6 c6,0.8,6.2,6.5,6.3,10.3v0.9c0.1,1.6,0.1,2.8,0.5,3.6c0.1,0.2,0.2,0.4,0.2,0.5c0,0.4-0.1,0.7-0.4,0.9c-2.8,2.6-4.1,5.5-4.1,9.1 c0,2.5,0.6,5.1,1.1,7.3c0.5,2.3,1.2,5.2,1.2,8c0,2-0.5,4-1.4,6.1l-0.1,0.3v0.4c0.4,3.4,1.2,7.2,3.4,9.2c1.2,1,2.8,1.4,5.1,1.2 c0.2-0.1,0.6,0.1,0.8,0.4l12.8,13.4l8.4-7.8c0.2-0.2,0.6-0.4,1.1-0.3l9.1,2.3c4.9,0.9,6.6-1.4,9.3-5.6l3.3-4.5 c0.1-0.1,0.2-0.3,0.8-0.2c3.6,0.5,5.8,0.2,7-1c0.7-0.8,1-1.9,1-3.6c0-1.3-0.2-3.1-0.5-4.9l-0.1-1c-0.2-1.5-0.4-3.3-0.4-5.1 c0-5.8,2.2-9.2,7.1-11l0.8-0.3l0.1-0.9c0.4-4.9,1.1-9.9,2-15.7c1-6.2,1.8-11.6,2.2-16.6c0-0.4,0.2-0.7,0.6-0.9l18.6-10.1l0.1-0.6 c2.8-9.6,11.2-11.8,18-13.5h0.1c4.4-1.2,8.5-2.3,11-5c0.2-0.2,0.6-0.3,0.9-0.3l12.1,1.6h0.2c9.4-1.5,16-10.1,22.3-18.5l0.1-0.2 c2.3-3.1,5.4-7,8.5-10.4c0.4-0.4,1-0.4,1.4-0.2l11.7,8.7l0.1,0.1h0.3c1.4,0.2,3.6-0.5,6.2-1.4l0.4-0.1c4.1-1.5,8.8-3.1,12-1 c0.3,0.2,0.5,0.6,0.5,1l0.5,8.1c0.8,9.5,1.5,18.5-6.8,27c-0.4,0.4-0.9,0.4-1.3,0.1l-9.1-5.6l-0.1-0.2c-1.6-1.4-1.7-3.8-1.8-6.2 c-0.2-4.4-0.7-6.4-4.4-6.3c-3.3,0-6.6,5.2-7.1,8.7c0,0.1-0.1,0.3-0.1,0.4c-2.8,4.2-2.9,9.5-3,15v0.4c-0.2,7.3-0.4,15.5-8,20.5 c-0.2,0.1-0.3,0.2-0.5,0.2c-5.6,0.8-7.5-3.2-8.8-7.5l-0.9-3.1l-1.6,2.7c-3.1,5.4-9.6,8.6-14.8,11.2l-6.4,3.5l-0.5,1.2 c-2.5,5-5.2,10.7-5.2,15.5c0,3,1.3,5.6,3.7,7.8l0.3,0.3l9.8,0.6c10.6,0.5,22.6,1,33.3,6.7c0.3,0.2,0.4,0.3,0.6,0.5l14.3,31.1v0.1 c0.4,2.5,1.4,4.3,2,5.2l1.1,1.8L396,1865c0.3-0.4,0.9-0.6,1.4-0.4c5.7,2.9,8.1-0.4,11.5-6c2.8-4.6,5.8-8.7,11.1-7.1l0.4,0.1 l0.5-0.2c3.2-1.7,4.7-3.9,4.7-6.9c0-1.9-0.6-4.1-1.2-6.4l-0.3-1c-0.7-2.3-1.3-4.4-1.3-6.4v-0.8c0-0.1,0-0.1,0.1-0.3 c3.3-9.6,9.7-8.3,15.9-7l0.4,0.1c6,1.3,11.7,2.5,16.2-4.6l0.1-0.1l0,0c0,0,0-0.1,0.1-0.1c2-2.3,2.9-4.4,2.9-6.6 c0-4-3.4-7.5-7.8-11.8c-4-3.8-9.4-9-9.4-15.3c0-0.2,0-0.3,0.1-0.4v-0.2c0,0,0-0.1,0-0.2s0.1-0.2,0.1-0.3l0.1-1l-2.4-1.4 c-6.1-3.5-13.8-7.8-16.9-15.2l-0.1-0.1c0,0,0-0.1,0-0.2c-0.6-3.6-0.9-6.8-0.9-9.7c0-6.2,1.7-11.4,4.8-14.9l0.4-0.4l-0.5-4.7 c-0.3-1.2-0.4-2.5-0.4-4c0-6.8,4.3-9.1,8.4-11.3l0.3-0.1c4.1-2.2,7.7-4.1,7.7-10.4c0-0.4,0-0.9-0.1-1.5c0-0.2,0.1-0.6,0.3-0.8 c0.3-0.3,0.6-0.4,0.9-0.4c2.8,0.2,6.6-0.2,10.3-0.7h0.2c9.8-1.1,20.9-2.3,25.8,4.4c0.3,0.5,0.3,1.1,0,1.4c-1.5,1.9-1.9,3.9-1.3,6.1 c1.3,4.2,6.3,8,10.5,9.2c0.3,0.1,0.5,0.3,0.7,0.7c6.2,16.3,5.3,26.6-2.7,30.7c-4.2,3.3-6.3,7.5-6.3,12.9c0,4.5,1.4,9.2,2.6,13.3 c1,3.4,1.6,6.1,1.8,8.4l0.1,1.1l1,0.1c3,0.5,6.3,2.8,9.3,5.3l0.5,0.4c3.3,2.6,6.5,5,9.3,4.6c0.9-0.1,1.8-0.7,2.8-1.8l0.4-0.4 l-3.7-25.4v-0.2c0-7.1,5.2-9.6,9.4-11.6c2.8-1.4,5.3-2.7,6.9-4.8c0.2-0.2,0.4-0.4,0.7-0.4s0.5,0,0.7,0.2l7.2,5.3l0.6-0.2 c9.4-2.9,18,2.9,23.7,6.8c1,0.6,4.1,2.6,4.4,2.7l0.4,0.1c0,0,0.2,0.1,0.9,0.3l2.6,0.7l-9-23.3c-0.1-0.1-0.1-0.3-0.1-0.4 c0-0.3,0.1-0.6,0.4-0.8c7.4-7.2,8-14.4,8-23.1v-4.8c0-5,0.3-9,1.1-12.7l0.3-1.3l-3.2-1l-0.2,0.1l0,0l-0.2,0.1 c-14.6,5.7-29.4,8-42.9,6.7c-0.3,0-0.6-0.2-0.8-0.4c-8.3-10.3-16.6-21.4-18.5-34.6c0-0.2,0-0.4,0.1-0.7c5.6-5.4,11-3.1,16.7-0.7 l0.1,0.1c3,1.3,6.1,2.6,9.3,2.6h0.2l16.4-7.4v-0.3l0.1-0.1l0.2-0.1v-0.9c-0.2-5.3,1-9.2,3.1-12.3c2-2.9,4.6-5.2,7.2-7.5l1.2-1.1 c0.4-0.3,0.8-0.4,1.2-0.2c1.9,0.9,3.9,1,6,0.3c3.8-1.3,7.3-5.2,10-9.1c2.7-3.8,4.8-7.9,5.6-9.7l0.3-0.5L562.5,1611.3z"/>
<path style="fill:#F0EFED;" d="M950.9,1259.2l-2-4.4c-2.5-5.4-5.2-11-5.2-16.8c0-4.1,1.4-8,4.3-11.9l0.2-0.3v-0.1c0.2-0.8,0.4-1.6,0.4-2.3 c0-2.8-1.4-5.9-4.1-9.1c-2.3-2.8-5.2-5.5-7.8-7.7l-3.6-3.4h-0.3l-23.3-1.6h-0.2l-0.3,0.1c-0.2,0.1-0.9,0.5-2,1.2 c-0.9,0.5-2,1.2-3.3,1.9c-4.1,2.3-9.9,5.7-14.6,8.4l-3.1,1.8v-0.1l-6.3,3.7l-0.1,0.1v0.1l-0.1,0.2c-1.2,2.1-2.2,4.5-3.2,7.5l0,0 c-2,5.4-4.2,11.5-11.2,14.1l-0.3,0.1h-0.2v0.2l-0.2,0.3c-0.7,1.2-0.9,2.7-1,4.7c-0.1,2.2-0.5,3.7-1.2,4.9c-0.9,1.4-2.3,2.1-4.3,2.2 c-0.2,0-0.5-0.1-0.7-0.2c-1-0.7-2.3-1.2-3.7-1.7l-1-0.4c-1.6-0.6-3.3-1.1-4.6-2.2c-1.7-1.4-2.5-3-2.5-5.2v-1c0-0.9,0.3-2,0.8-3 s1-2,1.6-2.9l0.1-0.1l0,0c0.5-0.9,1-1.8,1.4-2.5c0.4-0.8,0.6-1.6,0.6-2.2c0-0.2,0-0.4-0.1-0.6c-0.1-0.4-0.5-1-2-1.8l-0.4-0.2h-0.3 l-20.9,11.3H826v0.2l-0.1,0.2c-0.5,0.8-4.4,7.6-6.9,11.9c-0.3,0.5-0.5,0.9-0.7,1.2c-0.3,0.6-0.6,1-0.7,1.2l-0.2,0.4v0.6 c0.4,3,1.9,5.7,4,7.2c2.5,2,5.6,2.6,8.9,1.8c2.3-0.8,3.4-0.4,5.5,0.5c1.8,0.8,3.5,2.1,4.9,3.9c2.4,2.9,6.1,9.2,5.7,14.4 c-0.3,3.2-3,5.7-6.2,5.6c0,0,0,0-0.1,0c-1.7-0.1-3.4-0.5-5.3-1l-0.4-0.1c-0.4-0.1-0.7-0.2-1.1-0.2c-2-0.4-4.2-1-6.4-1l0,0 c-1.7,0.2-3,0.7-4.2,1.5c-1,0.7-1.8,1.7-2.5,3.1c-1.2,2.6-1.5,6.1-1.7,9.1l-0.2,1.8c-0.2,2-0.3,2.6-0.3,2.8c-0.3,1.9,0,4,0.8,6.6 c0.7,2.2,1.8,4.5,2.9,6.8v0.1c3,6.3,6.3,13.5,2.5,20.7l-0.1,0.1c0,0.1-0.1,0.1-0.1,0.1l-0.1,0.1v0.1c-1.3,1.1-2.4,1.8-3.6,2.1 c-1.1,0.3-2.4,0.2-3.5-0.2c-2-0.6-3.9-1.9-5.7-3.3c-0.3-0.2-0.7-0.5-1-0.7c-2.4-1.8-4-2.9-5.5-3.4l-0.5-0.2h-0.3l-0.6,0.6 c-0.4,0.4-0.8,0.8-1.2,1.1l-0.1,0.1c-0.7,0.5-1.2,1-1.6,1.4c-0.4,0.4-0.7,1-0.7,1.5c0,0.4,0.1,0.7,0.2,1l0.2,0.2 c7.7,9.1,12.9,17.1,15,28.8l0.2,1.2v0.5l6.5-2.8h0.3l22-4.6c1.4-0.4,2.6-1.2,3.9-2.6c1-1.1,1.9-2.5,2.7-3.8l0.1-0.2 c0.8-1.2,1.6-2.7,2.8-3.8c1-1,2.3-2.1,4.2-2.4l0.6-0.1h0.3v-0.3l0.1-0.7c2.7-12.5,8.2-21.8,15.7-27.8c0.2-0.1,4.5-2.9,13.6-0.3 c2.3,0.8,4,2.9,4.9,7.1c0.9,4.1,2.6,6.7,4.1,6.7c0.3,0,0.8,0,1.5-0.1c2.3-0.2,6.6,0,10.7,0.6c4.3,0.6,7.1-0.3,9.1-1.8 c1-0.8,1.6-1.8,1.8-3.1c2.2-9.7,0.8-15.7,0.8-15.7v-0.3l-0.2-0.2c-1.5-2.3-2.3-4.5-2.3-6.4c0-0.4,0-0.8,0.1-1.2 c0.3-1.6,1-2.9,2.3-4.4c1-1.1,2.1-1.9,3.2-2.8c0.3-0.2,0.5-0.4,0.8-0.6c2.1-1.6,4.5-3.5,5.7-5.9l0.1-0.3l-2.1-13.1v-0.3 c0.3-3.7,1.6-6.4,4.1-8.5c2.1-1.7,4.6-2.8,7.3-3.9l0.8-0.3c4.2-1.6,7.8-3.2,9.9-6.5l0.3-0.6L950.9,1259.2z"/>
<path style="fill:#F0EFED;" d="M472.9,1059.5c1,8,4.7,18,9.8,21.1c1,0.6,2.2,0.9,3.3,0.9c0.8,0,1.7-0.2,2.6-0.5c0.2-0.1,0.4-0.1,0.6-0.2 l0.3-0.2c3.6-3.8,8.1-6,11.7-7.8l0.4-0.2c4.4-2.1,8.5-3.6,10.2-7.7l0.2-0.4v-0.3l-3.5-7.4c-0.1-0.2-0.1-0.3-0.1-0.5 c0-0.4,0.1-0.6,0.3-0.9l-0.1-0.1c0.1-0.1,0.2-0.2,0.3-0.3c4.9-4.6,5.7-9.8,5.7-13.1c0-1.8-0.2-3.8-0.4-5.6v-0.3 c-0.2-1.8-0.4-3.5-0.4-5.3c0-3.4,0.9-6.3,2.7-8.7c0.7-0.9,1.5-1.7,2.5-2.5l0.4-0.3l0.2-0.2l-0.1-1.1v-0.4c0-7.3,5.3-13,9.6-17.5 l0.1-0.1c1.8-1.9,3.8-4,4.9-6l0.3-0.5l0.2-0.2V993l-0.2-0.6c-1.2-2.6-3.5-4.7-7-6.5c-2.6-1.3-5.8-2.3-9.1-2.6c-0.6-0.1-1-0.6-1-1.2 v-10.3v-0.1c-0.8-2.5-2-3.8-3.6-4c-1.4-0.2-2.9,0.4-3.9,1c-1.2,0.7-2.4,1.8-3.1,2.9c-0.4,0.5-0.8,0.7-1.4,0.4l-17.7-7.9 c-0.2-0.1-0.5-0.3-0.6-0.6l-5.9-14l-0.1-0.2c-0.5-0.7-1.2-1.4-2.5-2c-1-0.5-2.3-1-3.4-1.4l-3.6-1.6l-0.5-0.2v0.6l-0.4,3.2 c-0.2,2.9-0.5,5.9-1.4,8.8c-1,3.2-8.7,9.9-16.1,12.9c-1.8,0.7-4.1,2.1-5.4,2.8c-1,0.5-2.5,1-3.3,2.1l0,0c-0.3,0.8-0.4,1.6-0.3,2.5 c0.1,1.5,0.3,3.8,0.3,4.9c0,14.5-7.1,33.1-15,44.3l-0.3,0.4l-0.2,0.2v0.2l6.9,21.7c-0.3,1.1-0.4,2-0.4,3c0,2.1,0.8,7.9,2.6,9.5 c1.3,1.2,3,2.1,4.8,3.1l0.8,0.4c4.2,2.2,7.7,4.7,8.1,9.1l0.1,1.3v0.6l0.3-0.1l1.3-0.5c2.9-1,5.5-6,6.5-8.2c0.9-2,1-4.7,1-7.1v-0.3 c0-4.2,0.5-8.6,3.9-12.3c0.2-0.2,0.5-0.3,0.7-0.3l0.2-0.1c7.4,0.1,7.1,12.3,7.1,12.3L472.9,1059.5z"/>
<path style="fill:#F0EFED;" d="M463.3,913.8c-1-1.3-1.9-2.4-2.6-3.5c-1.2-1.6-2.1-2.8-2.4-3.1l-0.2-0.2v-0.2H458l-0.3-0.1 c-1.9-0.5-2.9-1.2-3.4-2.2c-0.2-0.4-0.3-0.8-0.3-1.3c0-1.1,0.5-2.2,1-3.2c0.6-1.3,1.1-2.6,1.1-4c0-0.6-0.2-1.4-0.5-2.1 c0-0.1,0-0.1-0.1-0.2v-0.1l-5.3-21.9v-0.3c0-0.3,0.1-0.6,0.3-0.8c3.5-4.2,5-7.5,5-10.5c0-2.3-1-4.4-2.9-6.8 c-0.2-0.3-0.3-0.5-0.3-0.8c0-0.2,0.1-0.4,0.1-0.6l0.1-0.2l3.8-5.5l0.4-0.6h-0.8l-13.3,0.2c-0.2,0-0.5-0.1-0.7-0.2l-0.2-0.1l0,0 l-9-6.4c-4.7-3.5-9.3-6.7-9.6-6.9l-0.4-0.1c-0.4-0.1-2.9-0.8-5.5-1.5l-0.7-0.2c-2.5-0.7-5-1.4-5.9-1.7l-0.5-0.1h-0.2l-6.9,6.6 l-0.2,0.2l0.5,6.9l0.1,1.8c0.2,2.3,0.3,4.6,0.5,6.2c0.1,1,0.1,1.6,0.1,1.9l1.7,8.3v0.6l-2.5,11.1v0.2l4.3,7.9c1,1.8,2.1,3.8,3,5.2 c0.4,0.7,0.7,1.3,1,1.9c0.3,0.6,0.6,1,0.7,1.3c0.2,0.3,0.3,0.6,0.4,0.6l0.1,0.2l11.7,7.9c0.2,0.2,0.4,0.5,0.5,0.8l0.4,4.1l1.8,21.5 c0.1,1.5,0.8,3,1.9,4l5.2,5.1c0.3,0.3,0.3,0.5,0.3,0.9l-0.8,10.2c0,0.3-0.2,0.7-0.4,0.8l-6.2,4.5l-0.2,0.2l6.3,11.1l8.9,11.4 c0.4,0.5,1.1,0.7,1.7,0.4l13.5-7.6c7.6-4.3,9.3-7.6,10.1-10.4c0.8-2.4,1.5-12.5,1.5-12.5v-0.3l-0.2-0.4c-1.6-1.9-0.9-4-0.4-5 c0.4-1.1,2.9-5.8,3.4-7c0,0,0,0,0,0c0.9-1.7,0.3-3.8-0.9-5.4C469.1,921.4,465.9,917.1,463.3,913.8z"/>
<path style="fill:#F0EFED;" id="map-area-cheongdo" d="M657.2,967.1c0.4,1,0.6,2,0.6,3c0,2.9-1.6,5.5-3.2,8c-0.6,1-1.3,2.1-1.8,3.1s-0.8,1.9-0.8,2.9l0,0 c0,0,0,0,0,0.1l0,0l0,0c0,0.3,0,0.5,0.1,0.7c0.3,1.7,1.7,3.2,4,4.8c0.3,0.2,0.4,0.5,0.5,0.8l0,0c0.1,0.4,0.1,0.8,0.1,1.2 c0,3.7-2.6,6.2-4.9,8.3l0,0c-0.9,0.9-1.7,1.6-2.3,2.3s-0.9,1.4-0.9,2.2c0,0.9,0.6,2.3,2.8,4.3l0.1,0.1c3,2.1,4.4,5.1,4.4,8.9 c0,2.9-0.9,6.1-2.5,9l-0.2,0.3l-5.4,4.3c-3.4,2.5-6.3,4.9-8.5,7.2c-2.2,2.4-3.5,4.8-3.5,7.5v0.1c0,1.8,0.6,3.6,1.8,5.4 c1.5,2.1,3.2,3,5.1,3.1c1.9,0.1,3.9-0.4,5.8-0.9c1.4-0.4,2.8-0.8,4.1-0.9s2.6,0,3.8,0.6l0.4,0.1c2.4,0.4,4.5,1.8,6.6,3.3 c2.8,2,5.7,5.7,5.7,5.7c2.8,3.1,5.2,5.6,7.6,6.8c1.2,0.6,2.4,0.9,3.7,0.7c1.3-0.2,2.5-0.8,3.8-1.9l8.7-3.7c2.6-0.2,5.3,0.7,8.7,3.7 c2.8,2.3,4.4,5.1,4.7,8.3c0,4.1-1.4,7-2.3,8c-0.8,1.1-0.1,2.7-0.1,2.7c0.2,0.7,0.4,1.3,0.7,1.9l1,1.8c1.1,1.9,2.3,4.3,2.4,6.8 c-0.2,1.7-1.4,4.3-2.8,4.6h-1c-1.7-0.2-3.7-0.9-5.9-1.8c-0.3-0.1-0.6-0.2-0.9-0.3l-5.4-2.3c-1.6-0.5-3.2-0.3-4.3-0.2 c-1.4,0-4.2,1.4-5.2,3.4c-2.6,1.2-2.9,2.2-3.2,3.1c-0.2,0.9,0.3,2.1,0.7,2.9s1,1.7,1.7,2.8l0,0c1.6,2.4,3.3,5,3.3,7.8 c0,0.4-0.1,0.9-0.3,1.5l-0.2,0.5l0.1,0.2c0.1,0.5,0.1,0.9,0.1,1.4c0,3.6-1.5,7.2-3.7,10.5s-5,6.5-7.5,9.3l-1.8,2 c-0.2,0.3-0.5,0.5-0.8,0.7c-1.2,0.6-1.2,1.7-0.7,3.7c0.1,2-1,10.3-3.6,13.2c-5.1,5.9-11.1,5-13.5,4.7c-0.4,0-0.7,0.2-0.9,0.5 c-1.1,1.2-4.3,4.6-8,6.4c-1.7,0.8-3.3,1.7-4.6,2.7c0,0-2.8,1.5-2.9,4.8c0,1.8,0.8,3.9,2.4,6.4c1.7,2.4,6.2,6,6.2,6 c1.9,1.5,3.8,3,5.3,4.7s2.5,3.5,2.6,5.6c-0.3,2.7-3.8,8.2-3.8,8.2l-11.7,16.6c0,0,5.3,4.3,8.3,7.1c0.6,0.5,1,1.1,1.4,1.8l5.6,10.6 c0,0,0.7-0.4,1.1-0.4c3.2-0.6,5.9,0.3,8.2,2c2.4,1.8,4.5,4.4,6.7,7.4c1.7,2.3,3.5,4.8,5.6,6.6c2.1,1.9,4.5,3.2,7.5,3.4 c0.3,0,6-0.7,11.7-1.3c2.8-0.3,5.7-0.6,7.8-0.9c1.1-0.1,1.9-0.2,2.6-0.3c0.7-0.1,1.6,0.1,1.6,0.1c4.7,1.9,15.7,19.6,19.2,23 c2.5,1.9,8.6,5.5,8.6,5.5c0.3,0.1,0.6,0.3,0.8,0.7c0.3,1.5,5.6,18.1,5.6,18.1c0.1,0.3,5,2.4,6.4,3.9c1.2,1.5,1.8,3.3,1.8,5.3 c0,2.4-0.7,4.9-1.5,7.5c-0.7,2.4-1.5,5-1.6,7.6c0,0.3-0.2,0.6-0.4,0.8l0,0l-11.9,10c-0.3,0.2-0.5,0.4-0.8,0.7 c-0.1,0.2-0.4,1,0.8,1.9l15.8,9.2c0,0,6.7-1,11.1-1.1c4.4-0.2,12.1,1.2,12.1,1.2c1.1,0.3,8.1,2.2,11,2.3s5.3,0.3,5.3,0.3l0,0 c0.2,0,0.3,0,0.4,0.1c4.2,1.6,6,4.8,8,8.3l2.3,3.3c0.7,1,1.5,1.8,2.4,2.3c1.9,1.1,4.2,1,7.5-0.8l0,0l4.7-2.1 c0.2-0.1-0.3-2.9-0.3-2.9c-2-11-7.5-18.4-15-27.2l0,0c-0.1-0.1-0.1-0.2-0.2-0.3c-0.4-0.8-0.5-1.6-0.5-2.4c0-2.2,2.1-3.2,3.4-4.3 c0.8-0.9,2.3-1.5,2.5-2s7,3.8,8.1,4.1c2.3,2.2,5.5,2.9,5.5,2.9c0.9,0.3,1.7,0.4,2.6,0.2c0.9-0.2,1.8-0.5,2.6-1.2v-0.1l0.2-0.3 l0.1-0.1c0.8-1.8,1.3-3.6,1.3-5.5c0-4.3-2-8.4-4-12.7l0,0c-2-4.2-4-8.6-4-13c0-0.7,0.1-1.4,0.1-2.1v-0.1l0.5-3.9l0,0 c0.2-3,0.5-6.7,1.9-9.8c0.7-1.5,1.7-2.9,3.1-4c1.4-1.1,3.2-1.8,5.7-2.1c2.8,0,5.5,0.7,8,1.3l0,0c1.7,0.4,3.5,1.3,4.9,1.2 c0.9,0,2.8-0.3,3.7-0.6c0.7-0.3,0.8-1.5,1.1-2.3c0.1-2.5-3.7-18.3-13.8-17.1c-5.2,1.1-8.8-0.6-10.8-2.3v0.1c-2.9-2.3-4.8-6-5-9.7 c0-0.3,0-0.5,0.2-0.7l0,0l9.1-15.8l0,0c0.1-0.2,0.3-0.3,0.4-0.4h0.1l21.7-11.9c0.3-0.1,0.6-0.2,0.8-0.1c2.5,0.9,3.9,2.1,4.4,3.7 c0.2,0.5,0.2,0.9,0.2,1.4c-0.1,1.4-0.7,3-0.7,3c-0.5,1-1.1,2-1.7,3c-0.4,0.8-1,1.6-1.4,2.4s-0.7,1.7-0.7,2.5c0,0.2,0,0.5,0,0.7 c0,0.8,0.1,1.5,0.4,2.1s0.7,1.1,1.3,1.5c1.1,0.8,2.6,1.4,4.3,2l0,0l0,0c1.8,0.8,4.3,2,4.5,2.1s1.8-0.6,1.8-0.6 c0.4-0.3,0.6-0.6,0.8-1.1l0.5-3.3c0.2-2.2,0.3-4.5,1.8-6.5c0.1-0.2,0.3-0.3,0.6-0.4c6.8-2.1,8.7-7.3,10.8-13.2l3.7-8.4 c0.1-0.2,0.2-0.3,0.4-0.4l30.2-17.5c0.2-0.1,0.4-0.2,0.6-0.1l24.3,1.7c0,0,0.2,0,0.3,0.1c0.2,0.1,0.3,0.2,0.5,0.3l3.6,3.5 c2.6,2.3,5.8,5.1,8.3,8.3c2.6,3.2,4.4,6.7,4.4,10.2c-0.1,1.1-0.5,3.5-0.5,3.5c0,0.1-0.1,0.3-0.2,0.3c-1.1,2.1-3.8,5.5-4,11 c-0.1,0.9,1.2,8.8,4.9,15.7l2.5,5.4c0.1,0.3,0,0.7-0.1,1c-2.4,4.9-7.3,6.9-11.8,8.7c-3.1,1.2-5.6,2.3-7.5,3.9s-3,3.6-3.2,6.6v0.1 v0.1l2.1,13.2c0,0,0,0,0,0.1s0,0.1,0,0.1v0.4c-1.1,3.3-4,5.5-6.7,7.5c-1.3,0.9-2.5,1.8-3.5,2.8s-1.4,1.7-1.7,3v0.2 c0,0.3-0.1,0.5-0.1,0.8v0.1c0,1.7,0.9,3.5,2.4,5.8l0,0c0.1,0.2,0.2,0.3,0.2,0.5v0.1c0,0.1,0,0.1,0,0.2s0,0.3,0,0.5 c0,0.4,0,1-0.1,1.7c-0.1,1.3-0.1,3.1-0.2,4.9c-0.1,1.8-0.2,3.5-0.2,4.8c0,0.7-0.1,1.2-0.1,1.6c0,0.2,0,0.3,0,0.4v0.1v0.2 c-0.5,2.7-1.3,4.6-2.3,6s-2.3,2.2-3.8,2.7c-2.9,1-6.6,0.6-10.2,0.2h-0.1c-3.6-0.4-7.3-0.8-11-0.1c-0.2,0-0.4,0-0.6-0.1 c-0.2-0.1-0.3-0.3-0.4-0.5l-3.2-7.2c-0.1-0.1-0.1-0.3-0.1-0.4c-0.3-2-1.2-3.6-2.6-4.7c-0.1-0.1-0.2-0.1-0.3-0.2 c-0.1,0-0.1-0.1-0.1-0.1H888c-0.1,0-0.1-0.1-0.2-0.2c-2.1-1.4-4.6-1.7-6.8-1.6s-4.1,0.5-4.9,0.8l0,0l-0.4,0.2 c-7.5,5.8-12.3,14.8-14.8,27.4l-0.1,0.2l2,7.7c3.7,13.6,7.3,26.9,18.6,34.4l2.5,1.1c0.9,0.1,1.7,0,2.6-0.3c1.8-0.6,3.8-1.9,6.1-3.5 l0,0c1.3-0.9,2.5-1.8,3.8-2.5s2.5-1.2,3.8-1.4h0.2c6.8,0.8,14.1,4.3,21.3,7.7l0,0c8.7,4.1,17.3,8.1,25.4,8.1 c7.8,0,17.2-4.1,20.3-12.3l0,0c0.2-0.3,0.5-0.5,0.9-0.5h13h0.2l0.1-0.2l0,0l0,0l0.3-0.5c0.8-1.4,2.8-4.4,5.7-7 c3-2.6,6.9-4.9,11.8-4.9h0.1h0.3h0.1h0.1l0.3-0.2c2.4-1.8,4.7-2.3,6.9-2.1c2.2,0.2,4.4,1.2,6.6,2.3c1.1,0.6,2.1,1.1,3.1,1.4 s1.9,0.5,2.8,0.3l0,0l0,0c0.1,0,0.2,0,0.3,0l3.2-0.2c4.2-0.3,9.3-0.6,16.4,3.7l0.7,0.4c0.2,0.1,0.2,0.1,0.4-0.3l0.2-0.3l0.5-0.6 c2.2-2.9,5.4-3.1,8.6-3.4l0,0c0.8-0.1,1.5-0.2,2.3-0.3l1.6-0.3l0,0h0.3v-0.3v-0.1v-0.2l0,0v-12.6c0-0.2,0-0.3,0.1-0.5l0,0l0,0 c3.4-8,8.9-10.5,14.3-13.2c4.2-2,8.3-4.1,11.7-8.5c0.3-0.4,0.8-0.4,1.3-0.2l0,0l18.9,10.9l0.3,0.1l0.4-0.2c3.1-1.2,5.9-2.1,8.6-1.9 c2.7,0.1,5.3,1.3,8.2,4.2c0.1,0.1,0.1,0.1,0.1,0.1c1.1,1.5,2.6,3.6,3.7,5.8c1.2,2.3,2.1,4.7,2.1,7.1v0.1l0,0c0,1-0.2,2.1-0.7,3.3 l-0.1,0.2l0,0v0.1v0.1v0.2c0.2,3.5,2.9,6,6.1,7.8s6.8,2.8,9.2,3.1l0.4,0.1h0.2l0.5-0.4c4.7-4.3,9.1-5.7,14.6-7.2l0,0 c3-0.8,5.9-1.6,8.9-3.1c0.3-0.2,0.7-0.2,1,0l29.9,16.3l0.6,0.3c0,0,0.2-1.1,0.4-1.5c1.6-3.9,3.5-7.8,5.2-11.2 c3.5-7,7.2-14.3,9-22.2v-0.3c0.5-12.2,4.4-23.7,8.2-35.1l0,0l4-12.5c0.8-2.8,1.4-5.7,1.9-8.7s0.9-6,1.4-8.9 c0.4-3.4,0.9-6.8,1.6-10.2c0.7-3.4,1.5-6.7,2.7-9.9c1.8-5,4.8-10.3,7.9-16c2.9-5.2,5.8-10.6,8-15.9c1.4-3.4,2.5-6.8,3.1-10.1 c0.4-2.1,0.7-4.1,0.7-6.2c0-6.1-2.1-11.4-6.3-16l-1.7-2c-0.4-0.4-0.7-0.9-0.8-1c-0.6-0.9-0.8-1.3-0.8-1.3s-0.1-1.6-1.5-0.2 c-1.3,1.4-3.4,4.2-3.4,4.2c-0.6,0.9-1.1,2-1.6,3.1l-2.8,4.8c-3.5,4.1-7.4,7.8-11.3,11.4l0,0l-3.4,3c-1.5,1.2-2.9,2.4-4,3.9 l-0.1,0.1l-1.1,2.4c-0.6,1.4-0.9,2.3-1.3,2.9s-0.8,1.1-0.8,1.1c-5.8,3.1-11.8,0.4-17.2-4.5c-5.5-4.9-10.3-11.8-13.7-16.6l0,0 l-1.6-2.3c-0.2-0.2-0.2-0.5-0.3-0.7c-0.1-0.5-0.1-1-0.1-1.4c0-2.7,1.2-4.8,2.8-6.5c1.7-1.7,3.8-3,5.8-4.2l0,0 c1.9-1.1,3.6-2.2,4.7-3.5c3.3-4,5-8.7,5-14.1l0,0v-0.1c0-7.3-3.1-14.6-5.8-20.2c0,0-2.6-4-3.2-5.3c-2.3-3.4-4.5-6.9-5.2-10.2l0,0 l0,0c-0.1-0.7-0.2-1.5-0.2-2.3l0,0c0-3,1-6,2-9h-0.1l0,0h0.1c0.8-2.5,1.7-5,1.8-7.4l0,0c0-0.2,0-0.5,0-0.7c0-0.4,0-0.8,0-1.3 c0-0.2,0-0.4,0-0.6c0-0.7,0-1.4,0-2.2l0,0v-0.1c0-2.3-0.1-4.7-0.1-7v-0.1v-0.1l0,0v-0.1l0,0c0-0.1,0-0.2,0-0.4 c-0.1-2.1-0.1-4.2-0.1-6.3h-0.1v-0.1c0-0.6,0-1.3,0-1.9c0-1.1,0.1-2.1,0.2-3.1l0,0l0.3-5.1l0,0v-0.1l0,0c0.6-9.4,1.2-19.9,3.3-29 c0,0,7.5-14.5,12.4-20.9l2-2.5c3.1-3.8,4.9-6.9,6.2-10.3c1.3-3.4,2-7.1,3-12.1l0.1-0.5c1.9-9.6,3.2-17.5,3.2-25.1v-0.1l0,0 c0-5.2-0.6-10.1-1.9-14.7c-0.9-3.4-2.2-6.7-3.9-10c0,0,0-0.1-0.1-0.1c-0.1-0.1-0.1-0.2-0.2-0.3c-0.5-1-1.1-1.9-1.6-2.9l0,0l0,0 l-0.1-0.5c-0.1-1.4-0.2-2.8-0.2-4.2l0,0c0-7.7,2-19.2,11.7-29.8c1.7-1.7,1.3-5.7,1.3-5.7l0,0c0.1-2.2,0.2-4.3,1.4-6.3 c1.7-2,2.9-2.6,2.9-2.6c0.8-0.4,1.9-1.6,1.9-1.6c0.3-0.5,0.6-1.2,0.7-2c0.3-1.7,0.6-2.9,0.6-2.9l0.8-3.5l0.3-1.1 c2.5-7.9,5.2-16.2,5.2-24.1V886c0-5.6-1.3-10.6-4-15c-8-13.2-12.9-29.6-14.5-48.7c-0.2-1.8-0.2-3.7-0.2-5.8l0.4-11.6v-0.1l0.3-5.6 h0.1l0.2-9.7l0,0c0.2-11.6,0.3-22.4,5.6-33.7c0.6-1.6,0.9-3.3,0.9-5c0-4-1.6-7.9-3.8-11.6c-2.2-3.7-5.2-7.3-7.9-10.6l0,0l-0.1-0.1 l-4.8-6.1l0,0l-0.1-0.3l-0.2-5.8v-1v-0.1c0-2.7-0.1-5.1-0.9-7.4c-0.5-1.5-1.3-2.9-2.5-4.2c-0.7-0.8-1.3-0.9-2.3-1.6l-0.5-0.3 l-0.2-0.2l-0.3,0.2l-0.6,0.4l0,0c0,0-12.2,8-18.8,11.2c-4,1.9-12.2,5.5-16.6,8.9c-2.1,1.5-3.7,4.3-4.4,5.9c-0.4,0.9-0.8,1.7-1,4.7 c0.2,6.8-2.9,10.4-10,14.5c-2.9,1.6-7.3,1.5-10.6-1.2c0,0-4.7-4.4-8.8-10.2c-4.1-5.8-7.5-8.8-11.3-12.2c-3-2.5-5.5-3.6-8.6-3.9 l-0.5-0.2l-0.3,0.1l-0.1,0.1l-0.3,0.5l0,0c-5.7,8-11.8,10.5-18,10.3s-12.5-3.1-18.5-5.9c-4.2-1.9-8.5-4-12.9-5.1l-0.2-0.2 c-3.6-2.3-6.7-3.1-9.1-2.4c-1.7,0.5-3.1,1.8-4.2,3.4c-1.2,1.6-2.2,3.7-3.2,5.7v0.1c-1.5,3.1-3.2,6.4-5.5,8.7s-5.2,3.7-9.4,3.1 l-0.4-0.1c-3.4-1.8-5.7-4.7-7.5-7.9c-1.8-3.3-2.9-7-3.9-10.3l-0.4-1.2l-0.1-0.3c-2.1-3.5-4.4-5.5-6.8-5.9c-2-0.3-4.1,0.6-6.1,2 s-4.1,3.4-6,5.3l0,0c-3.4,3.3-6.5,6-9.4,7.1l-0.9,0.4c-0.5,0.2-0.7,0.8-0.5,1.3l0.4,1c0.2,0.4,0.6,0.7,0.9,1.4 c0.1,0.2,0.7,2.8,0.8,4.5c0,1.2,0.1,2-0.8,3.1l-0.3,0.3c-5.2,2.7-10.5,0.1-14.6-1.9l-20.8-10.1l0,0l-0.3-0.1l-0.2,0.2l-0.5,0.6 c-3,3.6-6.2,4.9-9.4,5.2s-6.3-0.5-9.1-1.2l0,0c-0.4-0.1-0.9-0.2-1.3-0.3c-1.2-0.3-2.4-0.6-3.4-0.7c-1.4-0.1-2.8,0-3.9,0.7 c-1.5,1-2.5,3-3.2,6.1l-0.1,0.8l0.1,0.6l0.2,1.4c-0.1,1.8-1.1,4.6-1.1,4.6c-1,2.1-2.6,3.8-4.4,5.1c-1,0.6-2,1.2-3,1.5 c-0.4,0.1-0.8,0.1-1.1-0.1c-0.2-0.1-0.4-0.2-0.6-0.3c-0.1,0-0.1-0.1-0.2-0.1c-1.2-0.6-2.3-0.8-3.2-0.6c-0.7,0.1-1.3,0.3-1.9,0.7 c-0.8,0.5-1.4,1.3-2.1,2.2l-2,3.5c-1.6,2.8-3.1,5.3-5.2,6.6c-0.1,0-0.1,0.1-0.2,0.1c-0.1,0.1-0.2,0.1-0.4,0.2 c-0.6,0.3-1.2,0.5-1.8,0.6h-0.2H889c-0.2,0.1-0.4,0.2-0.6,0.4c-1.8,0.9-3.8,1.4-5.8,1.9c-0.2,0-0.3,0.1-0.5,0.1l0,0 c-2.5,0.5-4.8,1-6.6,2.1c-0.1,0-0.2,0.1-0.2,0.1c-1.9,1.2-2.8,3-3,6.2v0.2l0.1,0.3c0.3,1,0.6,2,0.6,2.9c0,2.4-0.8,4.9-2.1,7.3 c-1.2,2.4-2.9,4.8-4.4,7l0.1,0.1l0,0l-0.1-0.1c-1.2,1.7-2.5,3.7-3.5,5.5l-0.2,0.4v0.4l6.3,15.1c0.1,0.2,0.1,0.3,0.1,0.4 c0,0.2,0,0.3-0.1,0.5l-6.1,15.3l0,0l-0.5,0.5c-2,1.2-4.1,1.4-6.8,1c-1.2-0.2-2.9-0.9-4.1-1.3l0,0l0,0c-0.3-0.1-0.7-0.2-1-0.4 c-5.2-2.1-8.6-2.9-12.6,1.5c-0.1,0.1-0.2,0.2-0.3,0.3c-0.3,0.3-0.7,0.5-1,0.5c-3.5,0-6.9-0.2-9.3-1.3c-1.4-0.7-2.9-2.2-4-3.1 c-2.6-2.2-9.1-11.8-12.4-17.1c-1-1.6-2.3-3-3.7-4.1l-5.5-4.3l-11.8,8.1l-5.8,11.9l-0.5,0.5c-1.9,0.9-4.6,1.2-6.6,0.4 s-4.1-2.3-6.3-3.9c-3.6-2.5-6.7-4.6-9.8-5.1s-6.2,0.5-9.4,3.8l-6,9.5c-0.3,0.6-0.8,0.1-1.2-0.2l-2.2-1.5c-2.5-1.7-4.9-2.8-6.9-3.4 c-1-0.3-2-0.9-2.7-0.5c-16.6,11.3-8,24.7-1,39.1c0.3,0.5,0.2,1-0.2,1.4l-4.2,4.2c-0.3,0.3-0.7,0.4-1.1,0.3l-6.8-4.6 c-1.6-1.3-3.4-2.7-5.1-3.7s-3.4-1.6-4.8-1.3v0.2h-0.1v-0.1c-1.5,0.4-2.6,1.8-3.6,4l0,0c-0.2,0.3-0.5,0.5-0.8,0.6 c-0.4,0-0.8-0.2-1-0.5c-1.5-2.4-2.9-4.3-4.3-5.6c-1.3-1.3-2.7-2-3.9-2.1l0,0c-1.6-0.1-3.1,0.9-4.5,2.3c-1.5,1.4-2.9,3.3-4.5,5.4 l0.1,0.1c0,0,0,0,0,0.1l-0.1-0.1c-1.8,2.3-3.6,4.7-5.7,6.7c-1.3,1.3-3.6,2.3-5.4,2.8c-1.1,0.3-2.7,0.4-3.9,0.2l-1.2-0.2 c-0.7-0.2-1.4-0.3-2-0.2c-1,0.1-1.3,0.4-1.6,0.9c-1.2,2.8,0.4,8.3,7.6,12.4l0,0c3.4,2.4,7.2,5.5,8.7,9.7l0,0c0,0.1,0.1,0.2,0.1,0.3 c0,0.2,0,0.3-0.1,0.5l-6,13.5c-0.3,0.6-0.9,0.8-1.4,0.6c-5.4-2.4-10.5-7.8-14.8-12.1l-2.5-2.6l-0.2-0.2L658,894l-0.5,0.2 c-2.4,0.7-4.1,2.2-5.5,4.3l-3.9,8.1c-0.1,0.3-0.4,0.6-0.7,0.7l-13.8,3.5l0.9,1.7c2.6,4.6,6.4,7.5,10.7,10.5 c5.8,4,11.6,8.1,12.9,17.4l0.1,0.5v0.2l0.2,0.1l0,0l0.4,0.2c3.2,1.8,4.7,4.8,4.7,9.3l0,0c0,0.9,0,1.7-0.1,2.5l-0.1,2 c0,0.8-0.5,1.1-0.5,1.1c-2.1,1.3-3.8,2.6-5.1,3.9c-1.2,1.3-2,2.5-2.1,3.6c0,0,0,1.9,1.4,3.1l0.3,0.4 M675.5,908.9L675.5,908.9 l0.2-0.4L675.5,908.9z M704.9,862v-0.2V862L704.9,862z M887.9,1323.9L887.9,1323.9L887.9,1323.9L887.9,1323.9z M1068.7,724.7 L1068.7,724.7l0.1-0.2L1068.7,724.7z"/>
<path style="fill:#F0EFED;" d="M465.6,1147L465.6,1147l-0.1,0.4l-5,15.7l-0.1,0.3l0.2,0.2l0.3,0.2l0.6,0.4c2.9,2.1,5.7,3,8,2.5 c1.4-0.3,2.6-1.1,3.7-2.2s2.1-2.6,2.9-4.4c0.1-0.1,0.1-0.2,0.1-0.2c0.3-0.5,0.6-0.8,0.9-1.1c1.3-1.1,2.9-1.3,4.5-0.6 c1.4,0.7,2.8,2.1,3.9,3.5c0.4,0.7,0.8,1.3,0.9,2c0.3,0.7,0.3,1.3,0.3,1.7l0,0v0.1l-0.8,7.5c-0.1,0.5,0,0.6,1,1 c1.5,0.6,3.1,1.4,5.1,2.4c4.1,2.1,8.9,4.5,13,4.5c1.6,0,3.1-0.4,4.4-1.3l0.4-0.2l0.1-0.2l0.1-0.1l-0.1-0.1l0.2-0.1v-0.1l0.1-0.4 H510c0,0,0,0,0-0.1h0.2c0.4-2.9,1.4-7.8,3.6-12.4c2.2-4.5,5.7-8.6,10.9-10.1c0.2-0.1,0.5-0.1,0.8,0c2,0.5,3.8,1.6,5.2,2.8 c1.9,1.7,3.4,3.9,4.9,6l0,0c2.1,3,4.3,6.2,7.7,7.7c0.6,0.3,1.2,0.5,1.8,0.7l0.3,0.1l0.3-0.1c1.6-0.6,2.2-1.5,2.4-2.1 c0-0.1,0-0.1,0.1-0.2s0.1-0.2,0.1-0.3l0,0c0-0.2,0.1-0.4,0.1-0.5c0.1-0.4,0.1-0.8,0.1-1.2l0,0c0-2.5-1.4-6-4.3-10.7 c-0.1-0.1-0.1-0.3-0.2-0.5c0-0.1,0.1-0.2,0.2-0.3l7.9-11.9l-0.2-0.3c-0.7-0.7-1.1-1.5-0.7-1.8c0-0.1,0.5-1.2,0.5-1.3 c0,0-0.1-0.2-0.2-0.6c-0.2-5.2-2.6-10.6-4.5-16.5c0,0-5.5-12.4-4.7-18.9c0.1-0.8,0-1.6,0.1-2.3c0.3-2.2,1.1-4.4,2.3-6.4l0.1-0.2 l0.1-0.7l0.3-4.4c0.2-1.7,0.5-3.6,0.5-5.5c0-3.1-0.7-5.6-2.1-7.5l-0.2-0.3c-1.1-3.8-3-6.1-5.4-7.6c-0.1-0.1-6.6-2.7-8.1-3.2 c-3.8-1.1-7.1-2.1-10-4.4l-0.8-0.4l-4.8,1.3l-0.4,0.7c-2,4.6-6.2,6.9-11.2,9.3c-4.1,2-8.5,4-12,8c-0.1,0.1-0.2,0.2-0.4,0.3l0,0 c-2.9,1.3-5.9,1.2-8.5-0.4c-3-1.8-5.4-5.3-7.3-9.4s-2.9-8.9-3.4-13v-0.1l-0.4-3.1l0,0c-0.4-1.4-0.3-2.8-0.8-4 c-0.5-1.1-1.4-2.3-2.1-2.9l-1.5-0.4l-0.9,1.2c-1.9,2.8-2.2,6.1-2.2,9.1v3.6c0,3.2-1.4,5.9-3,8.6c-1.6,2.6-3.9,5.2-9.5,6.3 c-0.3,0.1-0.7,0-1-0.3c0,0-0.4-0.4-0.2-1.1c0.2-0.8,0.3-1.5,0.3-2.2s-0.4-2.9-2-4.4c-1.1-1.1-5.3-3.3-5.3-3.3 c-2-1.1-4.3-2.3-6.2-4.1c-1.8-1.7-2.6-4.5-2.6-7.5c0-1.3-0.3-4.1,0.3-5.8l-4.1-11.7c-1-2.9-1.9-5.8-2.6-8c-0.4-1.1-0.6-2-0.9-2.6 c-0.3-0.8-0.5-1.2-0.2-1.6c5-6.9,10-16.6,13-26.3c1.9-5.9,3.1-11.8,3.1-17.2l-0.3-6.3l-0.1-0.1c0,0-8-10-10.9-13.6l-6.9-12.1 c0,0-0.1-0.3-0.2-0.6c0-0.1,0-0.3,0.1-0.4c0.1-0.1,0.1-0.2,0.2-0.2l6.9-5.1c0.1-0.2,0.3-0.3,0.3-0.6l1.1-8.1l-0.1-0.4l-6.5-6.6l0,0 l0,0c-0.4-0.5-0.9-2.9-1-4.1c-0.2-2.4-0.5-5.6-0.8-8.9c-0.6-6.6-1.1-13.4-1.2-14.5v-0.7l-0.2-0.3l-11.8-7.8l-0.3-0.5l-10.2-17.9 c-0.1-0.2-0.2-0.4-0.2-0.6c0-0.1,0-0.2,0-0.2l2.6-11.5v-0.1v-0.1v-0.2c-0.1-0.5-0.5-2.5-0.9-4.4c-0.2-0.9-0.4-1.8-0.5-2.5 c-0.1-0.3-0.1-0.6-0.2-0.8l-1.4-18c0.1-0.1,0.2-0.3,0.3-0.4l8.1-8.1c0.4-0.4,0.9-0.5,1.4-0.4l14,3.8c0.2,0,0.3,0.1,0.5,0.2 l18.9,13.7l15.4-0.4l2.5-3.6c0.5-0.7,1.4-0.9,2-0.4c0.9,0.6,2,0.7,3.4,0.3c4.9-1.5,11.7-9.2,14.2-15.1c0.2-0.6,0.8-0.9,1.4-0.9 c2.7,0.1,5.3,2.2,7.8,4.3c2.6,2.1,5.4,4.4,7.9,4c1.6-0.2,3.1-1.4,4.7-3.6c0.3-0.4,0.5-0.9,0.6-1.3c0.3-0.6,0.4-1.2,0.4-1.8l0,0 c0-0.9-0.3-1.8-0.9-2.8l-3.3-4.1c-2.2-2.5-4.2-4.7-4.4-8.2v-0.3c0-3.5-1-5.8-2.8-7.7s-4.4-3.2-7.5-4.8c-2.7-1.3-5.4-2.6-7.6-4.7 c-2.1-2-3.5-4.4-3.5-8.5v-0.4c0-0.6,0.1-1.3,0.2-2.1l0.1-1.1l-0.1-0.1l-1.4-1.6c-3.4-4.2-7.1-8.9-8.1-15.2l-0.1-0.5 c-5.2-9.5-12-13.3-19.1-17.4v0.1c-7.6-4.3-15.3-8.7-20.1-20.5l-0.1-0.9l-20.9,1.5l-0.4,0.1c-4,6.6-8.6,10.8-13,11.6 c-2.7,0.5-5.5-0.3-8.4-2.4l-0.5-0.4l-0.2-0.2l-0.2,0.1l-0.6,0.4c-7.6,4.6-13.7,3.6-19.6,2.7c-3.2-0.5-6.5-1-10.1-0.7 c-3.7,0.4-7.6,1.6-12.2,4.6l-0.6,0.6c-1.3,6-5,10.4-9.9,13.4c-4.8,3-10.7,5-16.3,6.9l-3.6,1.2c-0.3,0.1-0.4,0.1-0.7-0.1h-0.1 c-0.3-0.2-0.5-0.4-0.5-0.7l-0.1-0.2c0-0.1-0.1-0.3-0.1-0.6c-0.1-0.5-0.3-1.3-0.5-2.2c-0.4-1.8-1-4.2-1.5-6.7 c-1.1-4.9-2.3-10-2.4-10.5l-0.1-0.4l-0.1-0.1l-0.2-0.2c-4.1-4.4-5.3-10-6.4-15c-1.4-6.3-2.7-12.5-8.8-16.6 c-12.2-10.5-25.4-13.3-39.4-16.3l0,0l-11.5-2.6l0,0c-0.3-0.1-0.5-0.2-0.7-0.6l-0.1-0.2c-4.2-8.1-11.2-11-18.5-14.3 c-6.3-2.8-11.9-5.5-16.3-10.7l-0.4-0.5l-0.2-0.2l-0.3,0.1l-6.3,2.5l-0.3,0.2c-3.2,2.6-4.8,5.4-4.8,8.8c0,2.7,1,5.4,2.1,8.5 s2.2,6.3,2.2,9.5v0.2c0,2.6-0.6,4.7-2.1,6.9v0.2c-0.3,0.5-1,0.3-1.5,0l-6.5-4.9l-0.1-0.1c-0.2-0.1-0.3-0.4-0.4-0.6 c-1.4-5.3-4.3-9.1-8.5-11.4c-4.3-2.2-9.9-2.9-16.8-2l-0.3,0.1c-3.6-0.2-6.9,1.3-9.3,4.1l-0.1,0.1c-1.5,1.9-2.4,4.1-2.4,6.3v0.2 c0,0.5,0,0.8,0.1,1.4v0.2c0,0.4-0.1,0.7-0.3,0.9c-1.4,1.2-2.4,2.3-3.1,3.3c-0.7,1-1.1,2-1.1,2.9v0.2v0.1c0.1,1.4,1.1,2.5,2.6,3.7 s3.4,2.3,5.9,3.6l0.1,0.1c2.9,1.6,5.9,3.3,8.2,5.3c2.3,2.1,3.8,4.4,3.8,7.5v0.1c0,0.6,0,1.2-0.2,2l0,0v0.5c0.2,1,0.2,1.7,0.2,2.3 v0.1c0,6.7-5.1,9.3-10,11.9l-0.1,0.1c-2.6,1.4-5.1,2.7-7.1,4.6s-3.3,4.3-3.6,7.8v0.1c0,0.3-0.2,0.6-0.4,0.8s-0.5,0.3-0.8,0.2h-0.1 l-8.3-1.7h-0.2l-9.4-3.1h-0.1c-0.3-0.1-0.5-0.3-0.7-0.6c0-0.2,0.1-0.4,0.2-0.7l1.2-2c1.8-3,3.4-5.6,3.8-8.8 c0.6-5.1,0.5-11-0.3-16.1c-0.2-1.8-0.5-3.5-0.9-5c-0.4-1.7-0.9-3.4-1.6-4.6c-0.4-0.6-0.8-1.2-1.3-1.5s-1.1-0.5-1.8-0.3 c-0.6,0.2-1.2,0.6-1.7,1.3c-0.5,0.6-1,1.5-1.5,2.4l0,0l-1.9,3c-3.3,3.5-7.1,5.9-11.1,6.8c-1.6,0.4-3.3,0.4-4.8,0.3 c-1.8,0-3.7-0.1-5.3,0.7c-2.3,1.2-4.6,4.2-6.9,8.8v0.1c-0.8,1.6-1.3,3.9-1.7,5.9c-0.5,2.7-1.1,5.4-2.4,7.4c-0.7,1-1.7,1.9-2.9,2.7 c-1.2,0.8-2.6,1.6-4,2.3h-0.1c-1.9,1-3.7,2.2-5,3.3l-0.1,0.1c-3.1,2.9-5.8,6.7-8.4,11c-6.1,10.4-9.7,18.9-10.6,25.3v0.1 c-0.2,1.2,0.3,3,1.1,4.6s1.9,3.2,3.2,4h0.1c0.3,0.2,0.6,0.3,1.1,0.4c0.4,0,0.9-0.1,1.4-0.5c0.2-0.2,1.8-1.9,3.4-3.7 c0.8-0.9,1.6-1.7,2.1-2.4c0.3-0.3,0.5-0.6,0.7-0.8c0.1-0.1,0.2-0.2,0.2-0.2c0.1-0.1,0.2-0.3,0.3-0.3c2.2-1,4.5-0.8,6.5,0.2 c2.1,1,3.9,2.8,5.2,4.8l0.1,0.1c1.4,2.2,2.2,4.5,2.2,6.7c0,2.1-0.7,3.9-2.1,5.3l-0.1,0.1l-0.3,0.2l-3.9,1.3c-1.9,0.5-3.4,1-4.4,1.5 s-1.7,1.1-2,1.8l-0.2,0.5v0.1l-0.1,0.2l0.1,0.2l0.1,0.1l3.1,3.9l0.2,0.2l0.3,0.1c5.8,1.9,10.5-1.2,14.5-3.8v-0.1 c2.4-1.6,4.8-3.1,7.3-3.9c2.5-0.7,5-0.7,7.9,1.1h0.1c0.3,0.2,0.6,0.6,0.6,1v0.1c0,0.1,0,0.2,0,0.2c-0.3,1.4-0.4,2.9-0.4,4.4l0,0 v0.1l0,0c0,0,0,0,0,0.1l0,0c0,5.5,1.7,10.4,3.5,15.6v0.1c1.7,5,3.3,10,3.4,15.2v0.1c0,2.9-0.6,5.8-1.9,8.8l-0.1,0.3l-0.1,0.1v0.1 l0.1,0.4c0.4,1.8,1.4,2.5,2,2.7h0.1c1.6,0.5,3.8,0,5.8-0.9s4-2.3,5.3-3.7c0.1-0.1,0.1-0.1,0.2-0.2l0,0l0,0c1.1-0.7,1.9-1.7,2.6-2.9 c0.6-1.2,1.1-2.4,1.5-3.7l0,0c0.4-1.2,0.8-2.4,1.4-3.3c0.5-0.9,1.1-1.7,2-2.1l0,0l0,0c0.9-0.4,2-0.4,3.2,0.1c0.1,0,0.2,0.1,0.3,0.2 l15.9,13.6c0,0,0.3,0.2,0.9-0.1c6.7-2.1,13-6.6,18-12.7l0.3-0.2c0.6-0.4,1.2-0.7,1.7-0.7c0.6,0,1.3,0.2,2.1,0.7 c0.9,0.6,1.9,1.6,2.6,2.8c0.8,1.2,1.2,2.5,1.2,3.5v0.6c-1.5,4.5-2.3,9.7-2.3,16h0.1c0,6.3,0.7,12,1.3,17.8l0.6-0.1v0.1l-0.7,0.1 c0.6,5.3,1.1,10.3,1.1,14.8h0.1c0,1.1,0,2.1-0.1,3.1c0,0.1,0,0.1,0,0.2l0.1,0.1l-0.2-0.1c-3.6,13-5.4,27-5.4,40.3 c-0.2,4.7-0.2,12.4-0.2,12.4l1.2,1.6c0.5,0.6,4.8,6,8.9,11.2c2.1,2.6,4.1,5.2,5.7,7.1c0.8,1,1.4,1.8,1.8,2.3 c0.2,0.3,0.4,0.5,0.5,0.6c0.3,0.4,0.5,1,0.5,1c0,0.1,0,0.2,0,0.3l-1.6,5.6l0,0l-0.4,0.6l-12.2,9.1l0.1,0.3l10.2,23.1l0.1,0.6 c0,0-0.1,0.3-0.2,0.6c-3,5.1-4.2,10-4.2,15.8c0,2.4,0.2,4.9,0.4,7.1s0.4,4.4,0.4,6.8c0,1.2-0.1,2.3-0.2,3.3 c-1.3,6.4-6,11.5-10.4,16.1h0.1c-3,3.2-5.7,6.2-7.2,9.2l0,0l0,0l-0.4,0.7l-0.1,0.2l0.3,0.3l1.8,1.3l0.1,0.1h0.2l0.4-0.1l0,0 c12-1.9,21,3.5,29.9,8.8l2.7,1.6h0.1c0.3,0.2,0.4,0.4,0.5,0.7v0.1c1.3,5,3.7,9.3,6.1,13.5c3,5.4,6.4,11.5,6.7,19v0.4v0.2l0.1,0.1 l0,0l20.8,23.3c0.2,0.2,0.3,0.5,0.3,0.8c0,0.2,0,0.3-0.1,0.4c-0.8,1.3-2.2,3.9-2.2,3.9s7.7,4.9,8.3,3.3l2.7-8.1l0,0 c2.3-5.3,5.3-8.1,8.7-9.9c3.4-1.7,7.1-2.3,10.8-2.8l0,0c7.8-0.5,14.6-6,16.1-7.6c6.9-4.6,10-13.2,12.8-20.7 c1.5-4.5,7.4-14.8,7.4-14.8c3.3-3.9,7.9-6.5,15.3-6.5c0,0,0.7,0,1-0.2c4.1-2.2,8.6-1.4,13.4-0.3c1.5,0.4,3,0.7,4.4,0.9 c1.4,0.1,2.6,0.1,3.6-0.3c0.9-0.3,6.4-0.1,7.9-0.1s2.3,0.2,2.3,0.2c2.6,1.7,6.8,4.6,10.4,8.2c3.6,3.7,6.6,8.1,6.6,13.1 c-0.2,1.2-1.5,5.8-1.5,5.8c1.7,4.3,5.4,7.2,8.9,8.2c3.4,1.1,7,1.1,9.1,1.1l0,0h0.4l0,0h0.1h0.2l0.3-0.4c3-3.1,6-4,8.9-3.9 c0.5,0,1,0.1,1.5,0.1c0.7,0.1,1.3,0.2,2,0.4c1.8,0.5,3.5,1.2,5.2,1.9v-0.1c0.1,0,0.1,0,0.2,0.1l2.5,1l0,0h0.1l0.2-0.1l0,0l0.3-0.3 l0,0l0,0l0,0c0.5-0.4,1-0.7,1.5-0.9c3.5-1.8,7.2-1.4,10.4-0.5c1.2,0.3,2.4,0.8,3.5,1.2v-0.1c0.1,0,0.1,0,0.2,0.1 c3.2,1.1,5.9,2.1,7.6,1.1c0.3-0.2,0.5-0.4,0.8-0.7c0.9-0.9,1.6-2.4,2-4.3l-0.2-0.1l0,0l0.2,0.1c0-0.2,0.2-0.4,0.3-0.6 c0.3-0.2,0.6-0.2,0.9-0.2l11.5,1.6l0.2-0.1c0.1,0,0.1-0.1,0.2-0.1l0,0c0.7-0.3,1.4-0.9,2.1-1.6s1.5-1.6,2.2-2.4 c1.5-1.8,3.1-3.7,5-4.9c0.2-0.1,0.4-0.3,0.6-0.4c1.7-0.9,3.6-1.3,5.6-0.5c0.1,0.1,0.2,0.1,0.3,0.2c4.1,3.7,6,7.4,7.1,10.5 c1.1,3.2,1.1,6.1,1.2,9c0,2.5,0.1,5.1,0.9,7.9s2.3,5.8,5.2,9.1C465.5,1146.4,465.6,1146.7,465.6,1147"/>
<path style="fill:#F0EFED;" d="M362.1,209.4h0.5l0,0l6.6,4.6c0.2,0.2,0.5,0.5,0.5,1.1c-0.3,2.6-2,5.3-3.6,7.7c-2.2,3.4-3.7,5.8-3.7,8.2 c0,0.8,0.2,1.6,0.5,2.5c0.1,0.2,0.2,0.3,0.2,0.5s-0.1,0.5-0.2,0.7c-1.1,1.6-2.5,2.6-4,2.9c-2.6,0.4-4.9-1.3-7.2-3.1l-0.4-0.3 c-1.7-1.3-2.8-2.1-3.6-2.3l-0.4-0.1l-0.5,0.2c-2.3,1-2.4,3.6-2.4,6.9c0,2.6-0.1,4.9-1.6,6.2c-0.7,0.6-1.7,0.9-2.9,0.9h-0.2 l-5.6,2.9l0.1,1c0.1,1,0.4,1.9,1.2,3.1c1.8,2.9,4.7,5.4,7.1,5.9c0.3,0.1,0.7,0.4,0.8,0.8c0.3,1.4,0.5,2.8,0.5,4.1 c0,8.8-5.9,18.6-11,26.2c-0.4,0.6-1,0.5-1.5,0.3c-4.6-2.9-6.2-6.6-7.8-10.2l-0.1-0.3c-1.3-2.9-2.5-5.6-5.1-8.1 c-0.3-0.3-0.4-0.6-0.4-0.9c0-1.9,0.9-4,1.7-6.1l0.2-0.4c1.3-2.9,1.8-4.9,1.8-6.6c0-0.9-0.3-1.7-0.9-2.6l-0.3-0.4l-3.2-0.7l-8.1,9.7 c-5.5,7.1-12.5,2.5-17.6-0.9l-0.2-0.2c-0.9-0.6-2.3-1.4-3.1-1.9l-0.7-0.4l-0.7,0.6c-2.9,2.3-4.4,4.8-4.6,7.3c0,1.8,0.9,3.5,2.9,5.2 l0.4,0.3h0.8c11.1,0,17.6,11.7,22.3,20.3c1.2,2.1,1.5,2.6,1.6,2.8c0.8,1.4,1.1,2.9,1.1,4.2c0,1.2-0.2,2.1-0.8,2.9 c-2,3.9-8.5,6.5-19.2,7.6h-0.5l-0.3,0.3c-1.4,1.4-2.1,2.9-2.1,4.5c0,2.3,1.3,5.1,3.5,9.2c1.3,2.4,2.6,4.7,3.1,6.9 c0,0.2,0,0.3,0.1,0.4c0,0.1,0,0.1,0,0.1c0,0.1-0.1,0.3-0.2,0.5c-1.8,3.7-2.2,11.9-2.6,20.7l-0.1,2.5c-0.6,13.1-1.2,26.6-6.1,31.6 c-0.4,0.4-1.1,0.4-1.5,0l-5.4-5.6c-0.2-0.2-0.3-0.5-0.3-0.9c0.1-1.5,0.1-3.1,0.1-4.8c0-12.4-2.4-28-9.1-34.2l-0.6-0.6l-0.7,0.3 c-8.2,3.4-19.5,5-26.1,0.9l-0.7-0.4l-4.1,3l0.3,1c0.7,2.3,1.1,4.3,1.1,6.2c0,4.4-1.1,8.8-2.2,13.1c-1,4.1-2.1,8.3-2.1,12.2 c0,1.3,0.2,2.6,0.4,3.9l0.1,0.4c1.6,2.6,2.4,6.1,2.4,10.7c0,1.9-0.1,3.7-0.2,5l-0.1,1.6l6.3,14.8c0.3,0.7,0.6,1.4,1,2.1 c0.3,0.7,0.6,1.4,1,2.1l0.9,1.9l17.3-19.8c0.2-0.3,0.6-0.3,0.9-0.3c0.1,0,10.5,0.9,11.5,6.9c0.7,4.5,6.8,11.1,9.3,12.8 c1.8,1.2,13.9,5,23.8,8.1l0.5,0.1l7.8-4.1c0.3-0.2,0.8-0.1,1.1,0.2c2.9,2.6,8.5,6.8,10.2,7.5c2.5,0.9,15.5,1.9,18.3,0.8l0.6-0.1 l0.3-0.6c1.8-4,11.4-21.2,15.1-27.6l0.9-1.7c0.1-0.2,0.4-0.4,0.7-0.5c0.3-0.1,0.6,0,0.9,0.2l11.3,8.6l0.7-1.3c2-3.1,6.9-11,10-15.6 c4-5.8,16.1-5.6,22.7-5.5h1.6c1.3,0,6.3,2,14.8,27.1c0,0.2,0.1,0.3,0.1,0.4l3.2,17.6v0.3c0,0.4-0.1,0.6-0.3,0.8l-9,10.3l4.6,6.2 l1.1-0.4c4.2-1.7,10.1-4,11.7-5.1c2.1-1.4,6.2,1.4,11.1,7.8c0.2,0.2,0.2,0.5,0.2,0.8c0,0.4-0.1,0.7-0.4,0.9L436.4,467l-0.8,14 c0,0.2-0.1,0.3-0.1,0.5l-6.5,11c-0.2,0.3-0.4,0.4-0.5,0.5l-15.8,8.3l-9,9.3c-0.3,0.3-0.6,0.4-1,0.3l-11.3-2.5 c-0.3-0.1-0.5-0.2-0.7-0.5l-6.9-11.2l-14.5,4l-11.3,4.2c-0.3,0.1-0.7,0.1-1-0.1c-14.6-11.7-22.3-19.2-23.7-22.9l-0.4-1.1l-1.2,0.3 c-1.7,0.6-3.1,1.2-4.3,1.8c-0.3,0.1-0.6,0.2-0.9,0.1l-8.1-3.4c-0.4-0.1-0.6-0.5-0.6-1.1v-0.1l2.3-15.7l-7.3-10.7l-0.4-0.4 l-10.4-2.2l-1.4,12.3c-0.1,0.4-0.3,0.8-0.6,0.9l-6.5,3.4c-0.3,0.1-0.6,0.2-0.9,0.1l-4.9-1.9l0.7,9.6l11.7,9.8 c0.3,0.2,0.4,0.5,0.4,0.9v15.3c0,0.3-0.1,0.5-0.3,0.7L287.6,516l-2.7,3.7l1.4,4c0.1,0.1,0.1,0.2,0.1,0.3c0,0.2-0.1,0.3-0.2,0.5 l-8.8,16.8l15.3,22.2c0.2,0.2,0.2,0.5,0.2,0.7v0.2c-0.1,0.4-0.3,0.6-0.5,0.8l-6,4c-0.4,0.3-1,0.2-1.4-0.2c-7-8.1-19.1-6.6-30.9-5.1 h-0.2c-7.9,1-14.9,1.7-20.2-0.1l-1.3-0.4l-0.4,1.3c-1.1,3.3-2.9,6.5-5,10c-3.3,5.5-5.2,9.4-5.2,12.6c0,2.5,1.3,4.7,3.9,6.7l0.6,0.5 l0.7-0.4c9.4-4.6,15.2-6.8,24.1,1.8c0.3,0.3,0.3,0.3,0.3,0.5l1.8,9.4c1.4,9.4,3.2,21.1,11.5,28.1l0.3,0.3h0.4 c6.7,0.3,12-2.9,17.7-6.3l0.2-0.1c6.8-4.1,13.8-8.4,22.6-4.4c0.1,0,0.1,0.1,0.2,0.1s0.1,0.1,0.2,0.1c2.5,2.6,3.8,5.1,3.8,7.5v0.6 c-0.4,4.1-4.5,7.1-8.5,10l-0.8,0.6c-3.1,2.3-6.7,4.8-7.8,7.9l-0.2,0.1v0.4l0.2,0.6c0.1,0.3,0.1,0.5,0.2,0.8 c0.2,0.7,0.3,1.5,0.3,2.2c0,3.6-1.3,7.5-2.6,11.2l-0.1,0.3c-1.3,3.8-2.6,7.3-2.6,10.6c0,5.5,3.4,9.4,11,12.6c0.5,0.2,0.6,0.6,0.6,1 v0.1l-0.1,0.1v0.1c-0.2,0.7-0.3,1.5-0.3,2.2c0,3.7,2.6,6.8,6.3,10.7l0.1,0.1c3.6,3.9,7.7,8.4,7.7,14.5v1.6l0.8,0.4 c5.2,2.3,8.2,6.1,11.4,10.5l0.3,0.5c2.7,3.6,5.5,7.3,10.3,9.3l0.6,0.3l0.6-0.4c9.9-6.4,17.2-5.2,23.7-4.1c6.4,1,11.9,1.9,19.4-3.1 c0.4-0.3,1-0.2,1.3,0.1c2.7,2.4,5.3,3.3,8.1,2.8c4.1-0.7,8.4-4.7,12-11.1c0.1-0.3,0.5-0.5,0.9-0.5l22.1-1.7c0.4,0,1,0.3,1.1,0.7 c4.3,12.2,11.8,16.4,19.7,20.9l0.2,0.1c6.4,3.7,13.1,7.4,18.3,15.6l1.1,1.9l1.1-1.9c1-1.6,1.1-3.2,1.3-4.9l0.1-0.6 c0.3-3,0.6-6.5,4.8-9.6c14.2-8.6,25.9-18.5,37.1-28.1l2.1-1.8c5.1-4.3,10.8-9.2,16.8-13.8l0.2-0.2l0.2-0.5 c2.8-9.2,10.4-11.1,16.5-12.7l0.7-0.2c0.2-0.1,0.4-0.1,0.6,0.1l15.3,5.9l0.6-0.8c4.1-5.4,8.8-5.5,12.6-5.6c4.3-0.1,8-0.2,11.9-5.5 c0.1-0.2,0.4-0.4,0.7-0.4l4.9-0.6l3-3.1l-0.3-0.8c-1.5-3.9-3.1-8.4-3.1-13.1c0-4.6,1.5-8.3,4.6-11.4c0.2-0.2,0.4-0.3,0.7-0.3 c1.5-0.2,3.2,0.9,5.1,2.2l0.6,0.4c3.2,2.2,6.6,4.3,9.8,3.3l0.6-0.1l2.7-5.5c2.5-5.6,4.9-10.8,11.7-14.1l1-0.4l-0.3-1.1 c-0.3-1-0.4-2.2-0.4-3.5c0-4.7,1.9-9.9,3.5-14.5l2.4-7.2l0.1-0.2v-0.2c0-0.3,0.5-6.6,0.8-10.8v-0.1c1-15.9,2.1-33.9,14-47.1 c4-4.2,3.3-7.2,3.9-11.3c0.8-5.8,1.8-10.4,6.3-13.6l0.2-0.2l0.2-0.3c0.6-1.1,0.8-2.3,0.8-3.5c0-3.7-2.7-6.8-6.4-10.5 c-3.2-3.4-6.7-7.1-6.7-11.8c0-1.2,0.3-2.4,0.8-3.8c0.1-0.2,0.2-0.4,0.3-0.5c4.2-2.9,9.2-4.8,14.1-6.6l0.4-0.1 c6.6-2.4,12.7-5.3,17-9.2l1.5-1.4l-1.8-0.8c-2.6-1.3-5-2.8-7-4.8c-3.8-3.7-7.1-6.9-11.8-4.3c-0.2,0.1-0.5,0.1-0.7,0 c-2.6-0.6-4.9-2.5-6.8-4.2l-0.1-0.1c-2.9-2.5-5.5-4.8-9.2-3c0,0-0.1,0-0.2,0c-11.7,2.2-20.6-11.4-24.4-17.2l-4.5-3.3 c-10.7-7.7-19.5-13-27.3-5.8c0,0-0.1,0.1-0.2,0.2c-2.8,1.6-6.7,1.5-9.7-0.2c-2.8-1.4-4.5-4-4.8-7.2c0-0.3,0.1-0.5,0.1-0.6 c4.7-7.5,8.2-18.4,8.2-25.7c0-2-0.2-3.5-0.7-4.8c-0.8-2.4-3-2.8-5.6-3.3c-2.7-0.5-6.3-1.1-7.4-5.3c0-0.2,0-0.3-0.1-0.4 c0-0.1,0-0.1,0-0.1c0-0.3,0.1-0.5,0.3-0.7l3.3-2.8c2.7-2.2,6.1-5,6.8-7.9c0.1-0.4,0.1-0.9,0.1-1.4c0-1.8-0.6-3.7-1.3-5.7l-0.1-0.3 c-0.8-2.3-1.7-4.8-1.7-7.4c0-0.5,0-1,0.1-1.5c0.4-2.4,1-4.1,1.6-5.6l0.1-0.2c0.8-2,1.5-3.8,1.5-6.7c0.2-10.2,2-15.4,11.8-19.3 l4.3-1.6c4.3-1.4,7.8-2.7,10.7-5.1c3.2-2.5,3.8-4.8,4.6-7.6l0.2-0.8c0.4-1.4,0.8-3.1,1.5-4.9c1.1-2.4,1.6-4.6,1.6-6.7 c0-6.2-4.9-10-12.5-15.1l-6.8-4.9c-3.7-3.1-5.4-7.1-6.8-10.2c-1.2-2.9-2.3-5.2-4.2-7.3c-3.1-3.5-9-4.7-13.8-5.6l-7.1-1.7 c0,0-0.3-0.1-0.6-0.8l-1.3-3.1c-1.2-2.7-3.1-6.8-3.1-10.4c0-1.7,0.5-3.2,1.7-4.8l0.3-0.4v-0.5c-0.1-10.3-3.4-22.2-9.6-25.1 l-0.3-0.1l-17.2,0.6c-3.7-0.8-5.2,1.2-7.3,4.2c-1.8,2.5-3.9,5.3-8.1,6.4c-0.4,0.1-0.8-0.1-1.1-0.5l-12.3-19.8 c-0.2-0.3-0.2-0.5-0.2-0.6v-0.1c0.1-2.9,1.7-5.3,3.2-7.7l0.7-1.1c2-3.1,3.9-6,3-10.1c-0.4-3.2-1.4-5.6-2.7-6.4 c-0.1-0.1-0.4-0.1-0.8-0.1c-1.2,0.1-2.1,0.9-3,1.6c-5.6,4.5-10.1,8.2-14.9,10.7l-5.1,2.9c-0.4,0.3-1.1,0.1-1.4-0.3 c-2.3-2.9-9.7-12.4-10-12.7c-3.9-3.4-5.8-7.1-5.8-11.8c0-2,0.3-3.9,0.6-5.7c0.2-1.5,0.5-3.3,0.5-5.1c0-4.1-1.7-7-5.6-9.7 c-0.1-0.1-0.2-0.1-0.3-0.2c-1.7-1.9-3.5-1.3-6.4-0.5c-1.8,0.5-4.3,1.3-6.3,0.2c-1.5-0.8-2.6-2.4-3.3-4.9c-1-3.2-0.1-6.3,0.7-9.1 c0.8-2.7,1.3-5,0.9-7.2l-0.4-1.7l-2.8,1.4c-4.1,2.1-8.4,4.2-13.4,7.7c-4.9,3.6-8.4,3.5-12.2,3.4h-0.3c-3.5-0.2-7.2-0.4-12,4.8 l-0.2,0.4c-0.5,1-0.5,2.6-0.6,4.4v0.9c0,4.3,0,10.3-5.2,12.3c-0.4,0.1-1,0-1.3-0.4c-4.7-6.1-10.5-6.5-16.6-7h-0.2 c-5.6-0.4-11.1-1.1-16-5.1l-0.9-0.7l-0.9,0.7c-7.1,6.2-14.6,10.3-22.9,14.6l-0.3,0.2c-6.4,3.4-13.6,7.2-20.6,12.5l-0.6,0.4v3.6 l0.6,0.4c4.8,3.3,5.1,9,5.4,14.6v0.4c0.2,4.3,0.5,8,2.4,10.7l0.6,0.9l8.4-3.6c0.3-0.1,0.5-0.1,0.8,0l6.5,2.8l1.8,0.1l6.9-2.9 c0.3-0.1,0.6-0.1,0.9,0c2.1,1,3.9,3.6,5.1,5.5l1.9,2.4L362.1,209.4z"/>
<path style="fill:#F0EFED;" id="map-area-gunsan" d="M473.5,1463.5c2.5,1.4,4.8,2.7,7.1,2.7l0,0c10.3-1.6,15,5.8,19.1,12.2l0.2,0.4c2.7,4.2,5.9,9,10.6,11.6 l0.9,0.4l0.7-0.7c4.9-4.7,5.3-10.3,5.3-15.1c0-1,0-2-0.1-3.2c0-0.5,0-1-0.1-1.6c0-0.5,0-1,0-1.5c0-4,0.3-8.2,2.5-12.3 c2.4-3.8,6.9-5.6,11.2-7.4l0.2-0.1c6.5-2.7,10.4-4.7,10.4-9.7c0-0.5-0.1-1.2-0.2-1.8l-0.1-0.3l-0.3-0.4c-4.1-4-6-8.8-6-15.1 c0-3.2,0.4-6.5,0.8-9.2l0.1-0.6c0.4-3,0.7-5.8,0.7-8.7c0-1.5-0.2-3.2-0.5-5.3l-0.1-0.3l-14.8-17.2c-0.2-0.3-0.3-0.6-0.3-0.8 c0-0.2,0-0.3,0.1-0.5l11.8-29.9l0,0c1.6-4.8,15.9-46.8,16-47.3l0.1-0.3v-0.1c0.9-12.9,9.4-19.7,17.6-26.4l0.5-0.4 c8.1-6.5,15.8-12.7,18.1-24.3v-0.1c0.1-0.3,0.2-0.6,0.5-0.7c0.4-0.2,0.7-0.2,1,0l3.6,1.9c4.2,2.4,7.1,3.8,9.8,1.2 c6.6-8.3,13.7-12.1,20.6-11.2l0.6,0.2l0.5-0.5c1.8-1.8,3.1-4.2,4.3-6.6c2-4.1,4.2-8.8,9.7-8.8h0.7l11.6-16.9 c0.1-0.1,0.2-0.2,0.2-0.3c2.2-2.4,3.2-4.6,3-6.4c-0.2-3.2-3.7-5.9-7-8.6c-2.4-1.9-5-4-6.6-6.5c-2.4-3.9-3.2-7-2.6-9.7 c0.1-0.4,0.2-0.7,0.5-1.2l0.3-0.6l-0.3-0.7c-2.1-3.9-10.5-8.1-14.2-7.8l-16.4,6.8c-0.2,0.1-0.6,0.1-0.8,0l-5.7-2 c-9.2-3.1-20.6-7-24.2-18.3l-0.1-0.3l-0.3-1.5l-0.6-0.3l-1.3,1.1c-0.4,0.3-0.9,0.8-2,2.4l-0.1,0.1c-1.4,2-3,4.2-5.6,4.2 c-0.2,0-0.4-0.1-0.7-0.2l-2.5-1.8l-0.1,0.1c-0.4-0.4-0.7-1.1-1-2.6c-0.7-3.1-2.1-6.4-5-8.1l-1-0.6l-7.3,11.1l0.4,0.8 c1.8,2.9,3.8,7.1,3.8,10.6c0,1.1-0.1,1.9-0.5,2.6c-0.4,1.1-1.5,3.1-4.9,4.1c-0.1,0-0.3,0-0.3,0h-0.1c-5.3-1.1-8.3-5.4-11-9.3 c-2.2-3.1-4.7-6.6-8.5-7.9l-0.4-0.1l-0.4,0.1c-7.7,2.8-11.4,13-12.4,21.8c0,0.3-0.1,0.5-0.4,0.7c-5.7,5.3-14,1.1-20.7-2.2l-1.3-0.7 c-2-1-3.8-1.9-5.4-2.4c-0.4-0.1-0.8-0.5-0.8-1.3c0.1-0.8,0.9-8,0.9-8.6v-0.4v-0.1c-0.4-1.3-2.5-4.5-4.4-4.9 c-0.8-0.1-1.5,0.4-2.1,1.4c-1.9,4.1-4.6,6.6-7.9,7.5c-3.6,0.9-7.7-0.5-11.6-4c-0.3-0.3-0.4-0.6-0.4-0.9c0-0.2,0-0.2,0.1-0.4 l5.2-16.2l-0.4-0.6c-5.6-6.9-5.7-12.5-5.8-17.5c-0.1-5.5-0.2-10.7-7.2-17.2l-0.2-0.2l-0.4-0.2c-2.9-0.7-5.3,1.9-8.2,5.4l-0.1,0.1 c-1.9,2.2-3.7,4.2-5.7,4.9c-0.1,0-0.2,0-0.2,0l-11.2-1.6l-0.4,1c-0.9,2.4-1.8,3.7-2.9,4.3c-2.7,1.6-6.1,0.4-9.4-0.8l-0.2-0.1 c-5.8-2-10.2-3.2-14.4,0.8c-0.3,0.3-0.7,0.4-1.1,0.2l-3.3-1.3c-6.8-2.8-11.2-4.2-16,1.6c-0.2,0.2-0.5,0.4-0.8,0.4 c-5.3,0-17.8,0-21.2-11.1c-0.1-0.1-0.1-0.1-0.1-0.3c0-0.2,0-0.3,0.1-0.5v-0.1c0.8-1.7,1.2-3.3,1.2-5.1c0-7.6-8.3-14.2-15.4-19 l-0.3-0.3h-8.7H331c-2.6,0.9-5.7,0.2-8.9-0.6c-4.3-1-8.8-2.1-12.7,0.4c-0.1,0.1-0.3,0.1-0.5,0.1h-0.8c-13.3,0-16.7,9.2-20.7,19.9 c-2.8,7.4-5.9,15.9-13.4,21.1l-0.2,0.2c-5,6.2-11.7,7.1-17,7.9c-6.7,1-13.7,2-17.8,11.3l-3.2,9.5c-0.1,0.3-0.4,0.5-0.6,0.6 c-0.3,0.1-0.6,0.1-0.9,0l-9.5-3.8l-0.5,0.3c-11.3,5.1-22.2,4-32.8,2.9l-0.8-0.1c-7.8-0.8-15.8-1.6-23.4,0.6l-0.2,0.1l-5.8,5.4 l0.7,1c2.9,4.6,5.8,4.7,10.2,4.3h0.5c2.4-0.2,4.9-0.4,7.9,0.4c5.5,1.9,9.2,7.8,10.8,12.5c0.7,2.1,1.1,4.1,1.1,5.9 c0,1.3-0.2,2.5-0.8,3.8l-0.1,0.3v0.4c0.2,2.3,0.9,3.9,2.2,5.3c2.1,2,5.5,3,9.5,2.9c3.3-0.1,6-1.1,8.9-2.2c3.9-1.5,9.1-2.3,15.8-2.6 l2.6-0.1c6.2-0.2,11.8-0.6,17-2.6l2.6-1.1c2.7-1.2,5.3-2.4,9.1-2h0.1c1.7,0.2,4.7,0.5,5.4,2.5c0.7,1.8-0.3,4.1-3,6.8 c-2.2,2.3-6.4,6.7-6.6,6.9c-2.8,3.1-5.9,3.3-8.8,3.5l-3.5,0.1c-3.6,0.1-7,0.2-10.5,0.9l-2.5,0.7c-2,0.4-3,0.7-3.6,0.9l-2.1,0.1 l-2.6,0.3c-0.1,0-0.4,0-0.6,0.1c-0.1,0-0.2,0-0.1,0c-0.9-0.2-2.2,0-3.3,2c-1,1.8-1.1,4.6,0.6,6.3l0.1,0.1 c2.6,3.9,8.2,7.3,13.1,10.2l0.6,0.4c6.7,4.1,13.6,8.3,15,14.7c0.8,3.3-0.2,7.1-2.8,11.1c-0.3,0.4-0.9,0.6-1.4,0.4 c-6.9-3.6-17.2-8.4-29-13.5c-8.3-4.5-17.9,2.2-28.8,20l-0.1,0.2c-5.2,14.9-17.5,19.9-28.3,24.4c-11.6,4.8-22.6,9.4-28,23.8 l-0.1,0.3v0.3c2,20,13.9,20,33,18.4h0.5c9.9-0.8,20-1.6,28.6,2.1c3.2,1.2,5.7,3.5,7.1,6.6c1.4,3.1,1.4,6.8,0.2,10.1 c-0.2,0.4-0.4,0.6-0.6,0.7c-0.2,0.1-0.6,0.1-1-0.1c-10.9-7.6-18.5-4.3-28,3.9c-0.2,0.2-0.5,0.3-0.8,0.3c-8.6-1.1-17,1.4-25.9,4.1 l-4.6,1.3l-25.2,32.9l8.2,2.8h0.1c0,0,0.1,0.1,0.2,0.1c2.3,1.4,3.7,3.2,4.1,5.3c0.1,0.2,0.1,0.6,0.1,0.9c0,2.5-1.4,5.3-4.3,8.6 l-0.6,0.6l0.3,0.7c0.8,2.7,1.3,5.5,1.6,8.7c0.6,5.6,1.1,10.4,8,15.3c0.3,0.2,0.4,0.7,0.4,1.2v0.2v0.1c-0.4,2.6-0.9,5.7-0.9,8.1 c0,2.1,0.4,3.2,1.3,3.8l9.8,5.3l13-9.8c0.5-0.3,1-0.3,1.3,0.1l9.6,8.9l3.2-1.1c5.8-1.9,9.3-3.3,9.3-8.1c0-0.6-0.1-1.4-0.2-2.1v-0.6 c0-0.4,0.3-0.9,0.7-1l2.2-1h0.1c0.2-0.1,0.3-0.1,0.5,0l12.1,2.2l0.4-0.9c1.5-2.9,4.2-4.7,7.3-6.7c3.7-2.4,5.5-3.7,5.5-5.7 c0-0.9-0.4-1.7-0.6-2.1c-0.1-0.2-0.2-0.4-0.2-0.5c0-0.2,0-0.3,0.1-0.5l0.9-1.8c3.1-5.6,6-11,6-16.4c0-3.2-1-6.3-3-9.4 c-0.1-0.1-0.2-0.4-0.2-0.6s0.1-0.5,0.1-0.7c5.4-8.4,12.1-12.1,18.5-10.1c0.1,0,0.2,0.1,0.2,0.1l0.1,0.1c2.4,1.8,5.5,0,10.3-3.2 c4.1-2.8,7.7-5,10.8-3.7c2,0.9,3.4,3.2,4.5,7.5l0.3,0.9l0.9,0.1c11.1,1.8,12.6,11,13.8,18.5c0.9,5.6,1.8,11.4,6.5,14.2l0.3,0.1h0.4 c3.3-0.2,6.7,2.4,9.7,4.7l0.3,0.2c4.1,3.1,6,4.3,7.5,3.8c0.9-0.3,1.5-1.4,2.2-3.7l0.1-0.4l-2.8-8.6c-0.1-0.1-0.1-0.1-0.1-0.3v-0.1 l0.1-0.1v-0.1c4.2-15.7,11.1-23.6,20.7-23.6c6.4,0.8,7.6,4.3,8.5,7.1l0.1,0.2c0.9,2.4,1.8,4.9,5.3,7c0.3,0.1,0.5,0.5,0.6,0.9 c0.1,0.5,0.1,0.8,0.1,1.3c0,4.4-2.6,7.4-5.4,10.5l-0.4,0.4c-1.8,1.9-3.1,3.7-4.1,5.4l-0.4,0.7l9.4,16.8c0,0.1,0.2,0.3,0.2,0.6 c0,0.3-0.1,0.5-0.3,0.7c0,0-9.2,11.2-9.7,11.9c-0.3,0.5-1,1.8-1,2.9c0,0.4,0.2,0.8,0.2,0.9c0.7,1.7,3.3,2.4,7.9,3.1l0.4,0.1 c2.1,0.4,3.9,0.7,5.1,1.4c1.8,1.5,3.4,4.3,4.8,6.8l1.6,2.6l6.9-3.7l0.9-0.5c7.7-4.2,15.7-8.6,22.7-10.1c0.4-0.1,0.8,0.1,1,0.4 l6,7.2l6.8-4.4c0.4-0.3,0.9-0.2,1.2,0.1c4.7,4.1,10.9,6.8,16.3,9.3c5.3,2.4,9.7,4.7,13.5,7.3l0.7,0.4l0.7-0.4 c10.8-7.6,17.8-6.5,26.8-1.8l0.9,0.4l16.8-19.7l0.2-0.3c6.2-4.3,12.1-1.1,16.9,1.6L473.5,1463.5z"/>
<path style="fill:#F0EFED;" id="map-area-hapcheon" d="M1079.7,1474C1079.7,1474,1079.7,1474,1079.7,1474c-2.6-1-5.5-2.3-8.1-3.8 c-0.1-0.1-0.2-0.1-0.3-0.2c-2.7-3.4-5.1-7.6-7.1-11.2c-3.3-5.9-7.4-13.2-13.2-18l-0.4-0.3h-0.6c-7.7,0-16.8-5.2-23.5-9.1l-3.9-2.3 c-0.4-0.2-0.6-0.6-0.6-1.1v-0.2c0.1-0.7,0.2-1.5,0.2-2.4c0-1.5-0.2-3-0.4-4.6c-0.2-1.5-0.4-3.2-0.4-4.7c0-3,0.6-6.7,4.7-11 c0.2-0.2,0.4-0.3,0.7-0.4c3.8-0.2,7-1.7,9.3-4.4c3.8-4.6,4.2-11.2,4.2-13.8v-1.4l-0.7-0.4c-7.2-4.7-12.3-4.2-15.9-3.9l-3.5,0.2 c-2.1,0.4-4.2-0.5-6.3-1.5l-0.8-0.4c-3.9-1.9-7.7-3.7-12,0c-0.3,0.3-0.6,0.3-0.7,0.3c-7.6-0.3-13.8,6-17,11.9 c-0.2,0.4-0.6,0.6-1,0.6H969l-0.4,0.6c-14.1,19.5-31.8,11.2-47.6,3.8c-6.8-3.2-13.8-6.5-20.3-7.3h-0.1h-0.2 c-1.8,0.3-3.7,1.6-6.4,3.4c-4,2.8-9,6.3-13.6,2.6c-11.8-7.9-15.6-21.8-19.3-35.3l-2.2-7.6l-1.3,0.4c-1.9,0.7-3.2,2.6-4.8,5.2 l-0.2,0.3c-1.8,2.9-3.9,6.1-7.8,7.1c-7.4,1.6-21.5,4.5-22,4.6h-0.1c-0.4,0.2-10.7,4.7-12.4,5.4H810l-0.3,0.3 c-8.6,4.5-11.8-0.9-14.7-5.7l-0.1-0.1c-1.7-2.9-3.7-6.2-7.1-7.7l-0.2-0.1h-0.4c-5.6,0.1-10.5-1-15.1-2l-0.9-0.2 c-7.2-0.9-11.9-1.9-20.9,0.3c-0.4,0.1-1.9-0.3-2.4-0.5c-0.1,0-0.2-0.1-0.3-0.1l-16.5-9.4l-0.2-0.1l-0.1-0.1 c-0.1-0.1-0.1-0.1-0.2-0.2c0-0.1-0.1-0.1-0.1-0.2c-0.1-0.1-0.1-0.1-0.1-0.2l-0.6-2.8v-0.6c0,0,0-0.1,0.1-0.2c0-0.1,0.1-0.2,0.1-0.3 v-0.1l12.8-11.1v-0.5c0.3-2.7,1.1-5.4,1.6-7.1c0.8-2.5,1.4-4.6,1.4-6.6c0-3.5-2.1-5.8-7.1-7.8c-0.4-0.2-0.6-0.4-0.7-0.8l-5.9-17.8 l-0.6-0.3c-7-2.4-11.6-9.2-15.2-14.6l-0.3-0.5c-2.8-4.2-6.3-9.4-11-12.6l-0.4-0.3l-22.8,2.6h-0.2c-6.9-0.3-11-5.9-14.6-10.9 c-4.9-6.6-8.2-10.5-14.6-8.2c-0.2,0.1-0.5,0.1-0.7,0c-0.3-0.1-0.5-0.4-0.6-0.7c-4.6-11.4-6.3-12.8-14.8-19.4l-0.3-0.3h-0.5 c-4.5-0.1-6.2,3.3-8,7.2l-0.2,0.5c-1.4,2.9-2.8,5.8-5.4,7.9c-0.2,0.2-0.5,0.3-0.8,0.2c-8.4-1.9-15.5,4.7-20,10.4l-0.1,0.1l0,0 c0,0,0,0.1-0.1,0.1c-3.9,3.7-8,1.4-11.9-0.9l-1.1-0.6c-0.7-0.4-1.6,0-1.8,0.8l0,0c-3.1,10.7-10.8,16.9-18.3,22.8l-0.2,0.1 c-8.7,7-16.3,13.1-17,25.2c0,0.1,0,0.1,0,0.1l-0.1,0.1L535,1350l-11,29.1l-0.1,0.2l14.7,16.9c0.1,0.1,0.2,0.2,0.2,0.5 c0.5,1.9,0.7,3.9,0.7,6.4c0,3.1-0.4,6.3-0.8,9.5l-0.1,0.6c-0.4,2.9-0.7,5.6-0.7,8.4c0,6.1,1.8,10.4,5.9,14.1 c0.1,0.1,0.3,0.4,0.4,0.7c0.2,1.1,0.3,2.1,0.3,3c0,6.9-6.3,9.5-11.8,11.7c-3.9,1.6-8.3,3.3-10.3,6.5c-2,3.7-2.1,7.6-2.1,11 c0,1,0,2,0.1,3.1c0,0,0,0.1,0,0.1v3.1c0,5.2-0.7,11.2-5.9,16.5l-0.8,0.8l0.7,1c5.4,8.3,6.1,17.1,6.1,24.6c0,2.4-0.1,4.9-0.2,7.4 c-0.1,2.6-0.1,5.2-0.1,7.9c0,6.2,0.4,11,1.4,15.7l0.1,0.4l0.4,0.2c2.2,1.9,4.8,3.7,6.8,5.1c7.3,5.1,14.9,10.4,14.9,21.2 c0,1.8-0.2,3.8-0.7,5.9l-0.1,0.7l17.9,20.3c0,0.1,0.1,0.2,0.2,0.3l15.7,30c0.1,0.2,0.2,0.4,0.2,0.6c0,0.1,0,0.2,0,0.3 c0,0.1,0,0.2-0.1,0.3c-5.3,12-14.2,23.7-23.4,20.8l-0.7-0.3l-0.9,0.8c-5.2,4.6-9.7,8.6-9.7,17.1c0,0.6,0,1.2,0.1,2v0.5l0.3,0.3 c4.8,5.6,10.5,9,16.5,12.2c3.3,1.8,5.8,3.3,8,4.8l1,0.7l2.8-3.6l-0.4-0.8c-1.2-2.4-1.9-4.6-1.9-6.6c0-1.1,0.2-2.3,0.5-3.6 c1.3-4.7,5-8.7,10.2-10.9c0.1-0.1,0.3-0.1,0.4-0.1l5-0.1c8-0.2,13.6,0,19.3,3.8l0.9,0.6l23.3-20.9c0.3-0.3,0.6-0.4,1-0.2l15.9,5.5 c3.9,0.9,7.6-1.9,9.4-4.9c0.5-0.7,2.6-4.2,0.8-6.8c-0.1-0.2-0.2-0.3-0.2-0.6c-0.8-5.9,4.4-10.8,8.6-14.8l3.6-3.6 c0.2-0.2,0.6-0.4,0.8-0.4c0.3,0,0.6,0.1,0.8,0.4l2.2,2.6c0.1,0.1,0.2,0.4,0.3,0.6l0.9,14.9c0,0.2-0.1,0.4-0.2,0.7 c-4.5,6.6-5.1,13.7-5.1,20.4v3.8c0,0.6,0,1.1,0.1,1.6c0,0.1,0,0.1,0,0.2v1.5c0,0.9-0.1,2-0.2,3.1v0.8h-0.3v1.1h0.5 c2.1,4.2,6.1,6.6,12.1,7.4h0.1c0.1,0,0.1,0,0.2,0.1l2.1,0.9c0.1,0,0.1,0.1,0.2,0.1c0.1,0,0.1,0.1,0.1,0.1l13.4,13l0.9-0.4 c4.5-2.2,9.6-1.2,14.4,0.1c4.9,1.3,7.9,2,9-0.5c0-0.1,0.1-0.1,0.1-0.2s0.1-0.1,0.1-0.2c1.5-1.6,1.1-3.1,0.6-5 c-0.6-2.5-1.4-5.7,3.3-8.7c0.4-0.2,0.8-0.2,1.1,0c3,1.8,6.6,2.6,11,3.4c6.1,1.3,11.9,2.8,16.3,7.1l0.9,0.9l0.9-0.7 c1.2-1,2.3-2.4,3.6-4.7c2.5-4.2,4.4-6.9,8.1-5.3l3.8,1.6c0.5,0.2,0.6,0.8,0.6,1.2l-1.6,15.2c-0.1,0.5-0.4,0.9-0.8,1l-15.2,4.1 c-0.7,0.2-1.1,0.9-0.9,1.6l0,0.2c2,5.9,8.6,7.6,16.4,9.2c2.3,0.5,4.8,1,6.4,1.7l1,0.4l3.1-4c0.3-0.4,0.9-0.5,1.4-0.3 c2,0.7,7.3,2.7,8.5,6.3c0.4,1.4,0.2,2.8-0.5,4.1c-0.1,0.1-0.2,0.2-0.3,0.4l-4.9,4.5c-0.1,0-0.2,0.1-0.2,0.1c-0.1,0-0.1,0.1-0.2,0.1 c-1.6,0.6-2.9,1.8-4.2,3l-0.7,0.6c-2,2-4.5,4.5-8.3,4.5h-0.8l-0.4,0.7c-0.4,0.8-1,1.9-2,3c-0.4,0.5-0.7,0.8-0.9,1 c-0.4,0.5-0.6,0.7-0.7,0.8l-0.1,0.2v0.5c0,0.5,0.1,1,1.8,2l0.4,0.3h0.5c11.3-1.2,14.3,7.4,17,14.9c2.5,7,4.6,11.6,10,12.6l0.6,0.2 l0.4-0.4c7.4-6.1,10.9-12.4,10.9-19.3c0-4.6-1.7-8.9-2.9-11.8c-0.1-0.1-0.1-0.2-0.1-0.5s0.1-0.6,0.2-0.7l10.6-12.6 c0.3-0.3,0.4-0.7,0.2-1.2l-1.2-4.4c0-0.1,0-0.2-0.1-0.3v-0.1v-0.2c0.7-3.3,4.3-5.8,7-7.6l0.2-0.1c0.6-0.5,0.7-1.4,0.2-1.9l-7.7-7.6 c-0.5-0.5-1.2-0.5-1.7-0.1l-7.7,6.7v0.5c-0.1,0.6-0.5,1.1-1.1,1.1H800c-0.6,0-1.1-0.5-1.1-1.2c0-0.3,0.1-0.6,0.4-0.8l1-1l-3.8-3.5 c-0.3-0.3-0.4-0.6-0.4-0.9c0-0.2,0-0.3,0.1-0.4l1.6-3.9c1.8-4.2,3.7-8.4,3.7-13.6c0-2-0.3-4-0.9-6.2c0-0.1,0-0.2-0.1-0.2 c0-0.1,0-0.1,0-0.1v-0.7c0-3.6,1.8-7.8,3.1-10.6l1.4-3.4c0-0.1,0.1-0.2,0.1-0.2c0-0.1,0.1-0.2,0.2-0.3c2.9-3.8,7.4-5.7,11.7-7.5 c6.2-2.5,10.7-4.8,11.9-10.7l0.3-1l-0.9-0.4c-4.1-2.1-5.9-5-5.9-9.1c0-1.6,0.2-3.4,0.5-5c0.1-0.4,0.1-0.9,0.2-1.3 c0.2-1.2,0.3-2.5,0.3-3.7c0-2.3-0.4-4-1.4-5.7l-0.1-0.1c-0.1-0.1-0.1-0.3-0.1-0.5s0-0.2,0.1-0.4c1.2-3.9,4.6-4.2,9.3-3.5 c2.1,0.2,3.1,0.3,3.8,0.1l0.4-0.1v-0.1l0,0c0,0,0.1-0.1,0.2-0.1l9.6-3.9c0.2-0.1,0.5-0.1,0.8-0.2c10.3-1.4,12.2,6.6,13.7,13 c1.1,4.7,2.2,9.5,6.3,11.3l0.4,0.1c4.3,0.5,6.7-2.4,9.8-8.4l0.4-0.7l-0.4-0.7c-5.1-7.8-7.5-15.6-7.5-24.6c0-5.9,1-12.2,2-18.8 l0.2-1.2c0.1-0.4,0.3-0.8,0.7-0.9c0.4-0.2,0.7-0.1,1,0.1c4.2,3,7.2,7.3,9.8,11c3.3,4.8,7.5,10.7,14.5,12.9l0.6,0.1l4.9-2.7 c0.2-0.1,0.5-0.2,1.1,0.1c6.4,4.3,6.8,7,7.1,11.9l0.3,3.3l0.3,0.3c6.2,7.3,13.2,6.7,20,6.2h0.3c4.3-0.3,9.2,0,13.2,2.3l0.2,0.1 c0.7,0.4,1.6,0,1.8-0.8l4.9-21c0.1-0.4,0-0.8-0.2-1.1l-0.3-0.4c0,0-9.9-11.6-10-11.6c-0.2-0.3-0.3-0.5-0.3-0.8v-0.3 c0-2.6,1.2-4.1,1.9-4.7c3.2-2.9,9.5-1.8,16.2-0.4c1.5,0.3,2.7,0.5,3.6,0.6c0.4,0.1,0.7,0.1,1.1,0.2l1,0.1l0.4-1 c1.1-2.5,6.1-14,6.8-15.4c0-0.1,0-0.1,0.1-0.2c3.5-12,11.9-11.4,21.7-10.8c4.3,0.3,8.7,0.6,13.1-0.2h0.4 c10,0.9,16.8-12.9,18.7-21.8c0.1-0.5,0.5-0.8,1-0.9c5.1-0.5,17.1-1.6,17.3-1.7c7.7-0.7,13.6-8,18.7-14.4l3.2-3.9 c3.1-3.7,6.5-7.4,10.8-9.6c2.6-1.4,5.7-2,8.7-2.6l0.4-0.1c2.3-0.4,4.2-1,6-1.4c3.8-0.9,5.6-3,6.3-5.6c0.7-2.7-0.3-12.5-1.9-14.8 C1092.6,1480.1,1087.3,1476.4,1079.7,1474z"/>
<path style="fill:#F0EFED;" id="map-area-gangwon" d="M735.1,631.3 c0.1,1.8,0.2,4.8,0.2,6.6c0,3.9,0.8,7.3,2.7,9c1.7,1.6,4.6,1.9,9.2,1.2c4.3-0.8,7.7-3.7,11.3-6.7l0.6-0.5c2.1-1.9,4.4-3.8,6.8-5.3 c4.6-2.7,8-1.8,11.6-0.8l0.3,0.1c2.2,0.6,4.3,1.1,6.6,0.7c2-0.3,4-2.2,5.8-4.1c2.9-3,7.7-7.5,13-3.4c1.8,1.4,3,3.4,4,5.3 c1.2,2.1,2.2,5.6,4.9,7c3,1.4,6.3,1.5,9.7,1.6h3.1c10,0.3,15.3,2.2,16.8,6c0.7,1.7,0.8,3.4,0.2,5.2c-1.2,3.2-4.7,5-6.1,5.7 l-2.5,0.9c-7.5,2.7-15.3,5.9-16.7,9.6c-0.2,0.7-0.2,1.4,0.1,2.1c1.9,3.8,4.5,6.3,8.2,7.2c3,0.7,5.8,0.1,8.3-1.9 c5.5-6,14.9-10.3,23-7c6,2.4,8,8.5,9.7,13.9l0.1,0.2c1.5,4.6,2.7,7.8,5.8,10.6l0.6,0.6l6.8-2.4c0.3-0.1,0.6-0.1,0.9,0.1l9.1,5.2 l0.7-0.7c3.2-3.4,7-5,10.7-4.3c4.5,0.9,8,4.7,9.6,10.1c0,0.1,0,0.2,0.1,0.3c0,0.1,0,0.1,0,0.1l0.5,4.2l0.1,0.4 c4.1,0.4,8.5,1.6,12.2,2.9c5.5,1.9,12.3,4.5,19.5,4.2c0.3,0,0.8,0.2,1,0.6l3.6,7.6l21.6,11.4c3.3,1.6,7.2,4.1,11.4,2.4l1.6-0.7 c0.2-0.2,0.4-0.6,0.4-1.1c0-0.8-0.4-1.6-1.1-3.2L981,732c-0.5-1-1.2-2.3-1.2-3.8c0-1.3,0.6-2.3,1.8-3.1c0.1-0.1,0.2-0.1,0.3-0.2 c0.1,0,0.1-0.1,0.1-0.1c2.8-0.7,6.7-4,9.8-6.9c4.4-4.2,8.9-8.2,13.9-7.5c3.2,0.5,6.4,3.3,8.9,7.5c0,0.2,0.1,0.3,0.2,0.4l0.5,1.5 c1.7,5.6,3.2,11.7,9.1,15l0.6,0.1c6.2,0.5,8.9-4.1,12.1-10.6c2-4,4.4-9,8.8-10.3c2.9-0.9,6.3-0.1,10.4,2.5l0.3,0.1 c4.1,1.2,8.2,3.1,11.9,4.7l1,0.5c12.5,5.8,24.4,11.3,34.8-4.7c0.2-0.3,0.6-0.4,1-0.5c3.7,0.1,7,1.4,10.4,3.8l0.4,0.2 c0.3,0.1,0.4,0.2,0.5,0.3l0.5,0.7c3.4,2.8,6.4,6.7,9.1,10.1l1.4,1.7c4.6,5.9,8.9,11.4,13.8,11.7h0.4c2.6,0,5.3-1.5,8.3-4.5 c3.2-2.8,3.4-5.9,3.6-9.1c0.2-3.6,0.4-7.7,5.5-11.4c4.8-3.7,10.2-6.4,16.2-9.3l0.4-0.2c6.7-3.2,13.3-6.4,19.9-12l0.5-0.5l-0.8-5.2 c-0.6-2.8,0-3.5-0.1-5.4v-0.4c0-3,0.9-4.7,2-6.6c0.6-1.1,1.3-2.4,1.8-4.2c0.1-0.5,0.2-1.1,0.2-1.9c0-2.2-0.6-4.7-1.2-6.8l-0.9-4.2 l-0.4-4.2c-0.2-3.1-0.4-6.3-1.9-8.8c-2.2-3.7-4.9-7.4-7.5-10.9l-4.3-6c-2.2-3.2-3.7-7.2-5.2-11.3l-0.1-0.3 c-1.4-3.8-2.7-7.4-4.7-10.1c-6.7-8.9-11.1-19.4-14.9-28.7c-2.5-5.9-5.1-12.1-8.2-17.9c-3.5-6.6-7.3-10.4-12.6-15.5l-2.1-2 c-5.2-5.1-5.5-11.6-5.8-17.3l-0.3-4.5c-0.7-8.2-1.4-16.7-7.5-22.2c-5.5-4.8-9.4-9.1-12.9-16.5c-1.3-2.7-1.9-5.3-1.9-8 c0-5.2,2.3-9.6,4.1-12.5l0.4-0.8l-4.5-6.3l-1.2-1.7c-2.3-3.2-4.7-6.4-6.8-9.9l-10.1-17.2l-0.9-1.6c-8.2-14.3-16.7-29.1-27.2-41.1 c-1.6-1.8-3.5-3.5-5.2-4.9l-0.6-0.6c-3.1-2.7-6.2-5.4-8-9.1c-1.6-3.4-2.6-7.6-3.4-11.2l-1.9-7.1c-2.6-7.7-7.2-14-12-20.7l-4.5-6.4 l-0.5-0.7c-2.5-3.7-5.5-8.2-7.3-12.9l-1.5-5.3c-0.6-2.7-1.2-5.5-2.8-7.7c-1.1-1.6-3-3-4.9-4.5l-0.6-0.5c-1.7-1.3-3.5-2.7-4.7-4.2 c-3.8-4.5-6.6-10.4-9.3-16.1l-3.7-7.5c-10.1-19-15.1-33.9-17.8-53.2c-1.9-13.4-7.1-27-12.1-40.2l-6-16.1l-0.2-0.3 c-7.1-9.4-8.3-17.7-9.4-25.1v-0.2c-1.3-9-2.4-16.8-12.2-25.5L932,108c-0.1-0.1-0.1-0.2-0.2-0.2c-1.7-3.1-2.4-6.1-2.4-9.5 c0-1.7,0.2-3.3,0.4-4.8s0.3-3,0.3-4.4c0-3.8-1.3-7-4.1-10.4c-7.7-9.7-9.5-21-11.3-31.9l-1.7-9.5l-0.1-0.4 c-0.1-0.2-12.5-24.4-13.5-26.3L899,10l-5.7-1.7l-6,0.9l-0.4,0.1c-10.3,6.4-11.2,16.1-11.2,25.4c0,1.7,0,3.4,0.1,5.3 c0,0.9,0,1.8,0.1,2.7c0,0.9,0,1.8,0,2.7c0,4.7-0.3,8.3-0.9,12.1c-0.7,16.6-15,31.4-27.6,44.5l-10.5,11.3c-0.1,0.1-0.2,0.2-0.3,0.2 s-0.1,0.1-0.2,0.1L801.8,130c-13.4,7.5-20,7.5-33.1,7.4h-5.2h-0.1c-6.9-1.2-14.3-4.3-20.8-7.1c-7.4-3.1-17.1-6.1-26-7h-0.4 l-16.3,10c-0.2,0.1-0.6,0.2-0.9,0.2l-2.1-0.7l-0.6-0.3l-14.8-13.3l-0.3-0.2c-2.8-1.3-5.7,0.1-9.6,2.1c-4,2.2-9.1,5-13.4,0.2 l-0.7-0.9l-1,0.7c-4.5,3.3-10,1.9-14.8,0.8h-0.2c-5.3-1.3-10.9-2.7-15.8,1.1c-0.2,0.2-0.5,0.2-0.7,0.2c-0.3,0-0.5-0.2-0.7-0.4 c-7.4-8.5-15-3.5-23.1,1.7c-4.8,3.1-8.8,5.6-13.1,6.5c-0.3,0.1-0.5,0-0.8-0.1c-0.2-0.1-0.4-0.4-0.5-0.7c-1.7-5.9-6-6.1-10.5-6.3 c-4.1-0.2-8.7-0.4-10.6-5.5c-0.9-2.8-2.3-4.6-4.1-5.6c-3.3-1.7-8-0.4-13.8,1.5c-5.5,1.9-12.3,4.2-16.6,0.4l-0.9-0.7l-5.1,4.3 c0,0-0.1,0.1-0.2,0.1c-6.5,3.1-11.4-1.9-15.4-5.8c-1.4-1.4-2.7-2.5-3.8-3.3l-0.4-0.3h-0.5c-4.2,0.4-8,1.1-11.9,1.9l-0.5,0.1 c-8.1,1.8-15.8,3.4-24.3-1.3l-1-0.6l-0.7,1c-5.6,7.6-11.1,11.2-16.1,13.9l-1,0.6l0.4,1.1c1,3.1,0.3,4.4-0.5,7.4l-0.1,0.4 c-0.9,2.8-1.5,5.3-0.8,7.6c1.4,4.6,3.2,4.3,7,3.3l0.7-0.2l-0.1-0.1c2.7-0.8,5.4-1.1,7.8,1.3c5.9,4.2,6.5,8.6,6.5,11.6 c0,1.8-0.3,3.5-0.6,5.3l-0.1,0.5c-0.3,1.7-0.6,3.3-0.6,5c0,4,1.6,7.2,5.3,10.3l8.4,11c0.3,0.4,0.9,0.5,1.4,0.3l3.5-1.9 c5.9-3.2,11.2-8.2,16-11.7c1.5-1.1,4.2-1,5.1-0.4c1.9,1.2,3.2,3.9,3.8,7.9c0.2,0.9,0.3,1.7,0.3,2.6c0,4-2.1,7.1-3.9,9.8 c-1.3,1.9-2.6,4-3.1,6.2l-0.1,0.6l11.6,18.7l1-0.6c2.2-1,3.5-2.8,5-4.8c1.9-2.7,4.1-5.8,9.3-5c0.2,0,15.5-0.6,17.2-0.7 c0.2,0,0.3,0,0.5,0.1c9.1,3.5,11.4,19.9,11.4,28.1c0,0.4-0.1,0.7-0.4,0.9c-1.1,1-1.6,2.4-1.6,4.2c0,2.7,1.4,6.1,2.8,9.4l1.2,2.8 l6.1,1.4c5.1,1,11.5,2.3,15,6.3c2.1,2.4,3.3,5,4.4,7.6l0.2,0.4c1.5,3.4,2.9,6.6,6.2,9.3l6.4,4.7c6.3,4.3,13.5,10.7,13.5,18.7 c0,2.2-0.6,4.9-1.9,7.7c-0.9,1.8-1.3,3.6-1.5,5l-0.1,0.2c-0.8,3.1-1.5,6-5.4,9.1c-3.4,2.6-6.7,3.1-10.8,4.4l-4.2,1.5 c-8.8,3.5-10.3,7.9-10.4,17.2c-0.1,3.3-0.9,5.4-1.7,7.7l-0.1,0.3c-0.6,1.5-1.1,3-1.4,4.9c-0.1,0.4-0.1,0.8-0.1,1.2 c0,1.9,0.6,3.7,1.2,5.6l0.3,0.9c0.8,2.2,1.6,4.5,1.6,6.8c0,0.7-0.1,1.4-0.2,2c-0.8,3.6-4.3,6.5-7.4,8.9l-3,2.5l1,1.1 c0.9,1,2.3,1.4,4.6,1.8c2.8,0.5,6,1.1,7.3,4.7c0.5,1.4,0.8,3.2,0.8,5.8c0,7.5-3.1,17.2-7.8,25.1l-0.3,0.4l0.1,0.6 c0.6,2.7,2.3,4,3.3,4.6c2.4,1.4,5.6,1.4,7.9,0c9.5-8.3,20.6-0.4,29.5,5.9l4.5,3.1c0.1,0,0.1,0.1,0.2,0.2c0,0.1,0.1,0.1,0.1,0.1 c4,6,12.2,18.4,22.4,16.7l0.3-0.1c4.6-2,8,1,11.1,3.6c1.6,1.4,3.4,2.9,5.2,3.5l0.4,0.1l0.5-0.2c5.5-2.3,9.8,1.8,13.2,5.1l0.2,0.2 c2.9,2.8,5.5,6.1,9,6.3c0.3,0,0.7,0.3,0.9,0.7c0.1,0.1,0.1,0.3,0.1,0.4c0,0.2-0.1,0.5-0.2,0.7c-5,6.8-12.7,10.3-20.4,13.1 c-5.3,1.9-9.6,3.6-13.3,6l-0.4,0.3l-0.3,0.8c0,0.1-0.1,0.3-0.1,0.4c-0.1,0.4-0.2,0.9-0.2,1.4c0,3.5,2.4,5.8,6,9.6 c0,0,0.2,0.3,0.2,0.3c0.6,0.8,1.5,1.6,2.2,2.3c0.7,0.8,1.4,1.6,2.1,2.4c1.3,1.6,2.3,3.5,2.5,5.6c0.3,2.6-0.7,5.6-2.6,7.4 c-3,2.9-4.8,8.8-4.7,11.8c0.1,4.2-0.7,8.5-3.9,12c-11.4,12.6-13.2,29.9-14.1,45.4l-1,11.8c0,0-6.2,17.3-6.2,21.5 c0,1.5,0.3,3.1,0.8,4.6l4.6,6.8l0.2,0.3c3.7,5.7,7.5,11.6,14.2,13.4h0.1h0.5c1.1-0.2,23.8-3.1,23.9-3.1c0.2,0,0.3,0,0.5,0.1 l13.1,4.8l0.5-0.2c3-1.4,9.4-6.4,6.8-15.8c-2-5.7-2.9-6.9-2.5-10.5c0.3-3.1,2.6-6.8,4.8-9.4c6.3-8.5,16.9-10.6,26.6-8.6 c2.9,0.6,5.5,2.1,7.4,4.4C734.9,622.8,734.8,625.4,735.1,631.3z"/>
<path style="fill:#F0EFED;" id="map-area-goesan" d="M944.9,723.8C944.9,723.8,944.8,723.7,944.9,723.8l-3.5-6.8h-0.8 c-6.7,0-12.7-1.9-18.3-3.9c-4.4-1.5-9-3.1-13.4-3.1c-0.6,0-1.1-0.5-1.1-1.2v-5.1l-0.1-0.4c-1.4-4.5-4.3-7.5-7.8-8.2 c-3.6-0.6-7.2,1.2-10,4.9c-0.2,0.3-0.7,0.7-1.4,0.3l-8.7-5c-0.4-0.2-0.8-0.2-1.2-0.1l-6.1,2.6c-0.5,0.2-0.8,0-1-0.2 c-4.6-3.3-6.2-8.7-7.8-13.5c-1.6-5.1-3.8-10.3-9-12.4c-7.1-2.9-15.6,1.6-20.5,7l-0.2,0.2c-2.9,2.3-6.3,2.9-9.9,2 c-4.4-1.1-7.5-3.6-9.5-8c-1-2.2-0.3-5,1-6.3c5.2-5.3,18.3-9.3,18.9-9.7c2.6-1.2,4.3-3,4.9-4.6c0.4-1,0.4-2.1-0.1-3.4 c-1-2.5-4.8-4.8-15.8-5.1H821c-3.7,0-7,0-10.6-1.9c-3.4-1.7-3.7-5.1-5.1-7.5c-1-1.8-2.2-3.6-3.7-4.7c-3.7-2.9-6.4-0.4-9.7,2.9 c-2,2.1-5.5,5-8.2,5.4c-2.9,0.5-5.6-0.2-7.8-0.9c-3-0.8-5.3-1.5-9.2,0.7c-2.3,1.3-4.5,3.2-6.6,5.1c-3.8,3.3-7.8,6.6-12.9,7.5 c-5.3,0.9-8.8,0-11-2.1c-3.3-2.4-3.5-11.9-3.4-15.1c0-1,0.1-2,0-3c-0.1-4.5-0.7-7.9-3.3-10.7c-1.5-1.6-3.5-2.6-5.6-3 c-1.3-0.2-2.3-0.3-3.4-0.4c-8.4-0.5-15.2,0.9-20.4,7.9c-1.4,1.7-3.5,4.5-4,6.4c-1.1,3.8-0.3,6.7,1.4,11c1.7,4.2,1.5,8.4-0.1,11.9 c-1.6,3.6-4.4,6.2-8.6,7.8c-0.2,0.1-0.5,0.1-0.8,0l-13.3-4.7c-0.8,0.2-16.4,2.2-24,3.1h-0.4c-7.8-2-12.2-8.8-16.1-14.8l-4.2-6 c0,0-0.5,0.3-1,0.5c-6.1,3-8.1,7.5-10.7,13.2l-3,6.2c0,0.1-0.1,0.2-0.3,0.3H615c-4.8,2.4-9.4-0.9-12.8-3.3 c-0.6-0.4-1.8-1.2-2.9-1.7l-1-0.4l-0.7,0.8c-2.1,2.6-3.1,5.4-3.1,8.4c0,3.5,1,7.5,3.5,13.9c0.1,0.1,0.1,0.3,0.1,0.4 c0,0.4-0.1,0.6-0.3,0.8l-3.8,4c-0.1,0.1-0.4,0.3-0.7,0.4l-5.1,0.6l-0.3,0.4c-4,4.8-8.1,5.3-12.7,5.6c-4.2,0.1-8.2,0.2-11.9,6.1 c-0.2,0.4-0.7,0.7-1.3,0.4l-15.1-5c-0.7-0.2-1.5-0.3-2.2-0.1c-5.9,1.5-11.8,3.5-13.9,11.5c0,0.1-0.2,0.4-0.5,0.6 c-6.9,5.3-13.4,10.9-19,15.6l-0.6,0.5c-11.2,9.6-22.9,19.5-37,28.1c-0.1,0-0.1,0.1-0.1,0.1c-3,2.4-2.9,4.8-3.2,7.8 c-0.2,2.5-0.4,5.6-3.3,8.4l-0.6,0.6l0.1,0.7c1.1,5.3,4.4,9.4,7.6,13.4l1.7,2.2c0.2,0.3,0.3,0.6,0.2,1c-1.7,9.4,3.8,12.1,9.5,14.8 c5.5,2.7,11.8,5.7,11.6,14.9c0.1,2.5,2.2,4.8,4.2,7.1c2.8,3.1,5.7,7,2.7,11.9c-2,2.8-4.1,4.4-6.4,4.7c-3.6,0.5-7-2.2-9.9-4.5 c-1.8-1.6-3.4-2.6-4.6-3.2l-1.2-0.6l-0.6,1.2c-2.9,6-8.7,12.9-14,14.5c-1.5,0.4-2.7,0.4-3.8,0.1l-0.9-0.3l-7.4,11l0.6,0.8 c1.5,2.2,2.3,4.6,2.3,7c0,3.6-1.6,7.2-4.9,11.2l-0.5,0.6l5.3,21.5c0,0.1,0,0.1,0.1,0.2c0.5,1.1,0.7,2.1,0.7,2.8 c0,1.9-0.7,3.5-1.3,4.9l-1,2.7l1.2,0.5c0.3,0.2,0.7,0.2,1.1,0.4c0.2,0.1,0.4,0.1,0.7,0.2c0.3,0.1,0.5,0.2,0.7,0.5l14.5,19l0.1,0.2 c0.1,0.1,0.2,0.3,0.2,0.4c0.1,0.4,0.1,0.6,0.1,1c0,2.5-1.4,5.2-2.6,7.6l-0.2,0.4c-1.6,3-2.2,4.5-2.2,5.7c0,0.5,0.1,0.9,0.4,1.3 c0.1,0.2,0.3,0.3,0.5,0.4l4.9,2.2h0.1c2.8,1,5.5,2,7.1,4.2l0.1,0.3c0,0.1,0.1,0.2,0.1,0.2l5.5,13.1c0.1,0.3,0.4,0.6,0.7,0.7 l15.9,7.2l0.7-0.7c1.9-2,4.9-4,7.9-3.5c1.5,0.2,4.1,1.2,5.5,5.9c0,0.1,0,0.1,0,0.2c0,0.1,0,0.2,0,0.2v9.6l1,0.1h0.1 c8.4,1.5,14.5,5.7,16.4,11.4c0.1,0.1,0.1,0.2,0.1,0.3c0,0.2,0,0.3-0.1,0.4c-1,2.5-3.3,4.9-5.7,7.5l-0.4,0.5c-4.4,4.6-9,9.4-9,15.8 c0,0.5,0,1.1,0.1,1.7v0.2c0,0.3-0.1,0.7-0.5,1c-3.8,2.6-5.4,5.7-5.4,10.3c0,1.6,0.2,3.1,0.3,4.8l0.1,0.5c0,0.4,0.1,0.8,0.1,1.3 c0.2,1.5,0.4,3.1,0.4,4.7c0,5.2-1.8,9.6-5.4,13.4l-0.7,0.7l2.6,5.5c0.3,0.6,0.9,0.9,1.5,0.7l4-1.1c0.4-0.1,0.8,0,1,0.3 c2.7,2.6,6,3.6,10.2,4.7c5.7,1.6,12.2,3.4,14.9,11.9l0.1,0.3l0.1,0.1c1.6,2.2,2.3,5,2.3,8.6c0,1.9-0.2,3.9-0.5,5.9v0.1l-0.3,4 c0,0.4-0.1,0.8-0.2,0.9c-1.7,2.6-2.5,5.4-2.5,8.7c0,5.6,2.3,11.7,4.5,17.6l0,0l0.2,0.6c2.2,5.7,4.3,11.6,4.5,17 c-0.1,0.3-0.2,0.8-0.3,1.1l0.7,1.4c5.3,1.7,7.1,7.1,7.8,9.9l0.3,1c0.1,0.3,0.2,0.5,0.5,0.7l1.6,1.2l1-0.2c1-0.4,2-1.4,3.1-3.1 l0.1-0.2c1.1-1.6,2.5-3.4,4.2-3.5c1.2-0.1,1.8-0.1,3,1.1c0.1,0.1,0.2,0.3,0.3,0.5c3.5,12.4,13.5,15.1,23,18.3l4.9,1.8 c0.3,0.1,0.7,0.1,1,0l15.4-6.4c0.2-0.1,0.5-0.1,0.8-0.2c4-0.4,12,3.1,15.5,7.6l0.9,1.1l0.9-0.8l0.1-0.1c1.5-1.1,3.2-2,5.2-3.1 l0.5-0.2c2.9-1.5,5.9-3.1,7-5.6c0.2-0.4,0.6-0.7,1.1-0.7h5.8h0.2c2.9-0.6,5.3-2.2,7.2-4.8c1.8-2.8,2.9-6.5,2.9-10.5 c0-1.6-0.1-3.1-0.4-4.3v-0.3c0-0.2,0.1-0.5,0.2-0.6l4.2-3.7c4.5-5,10.6-11.7,10.6-18.2c0-0.4,0-0.9-0.1-1.3v-0.2c0-0.1,0-0.2,0-0.2 l0.1-0.1c0.2-0.5,0.3-1.1,0.3-1.6c0-2.1-1.3-4.2-3-6.6l-0.1-0.1c-1.4-2-2.7-4.1-2.7-6.2c0-0.4,0.1-0.7,0.1-1.1v-0.2 c0.5-1.6,2.3-3.7,4.7-5l0.3-0.2c5.5-4.7,11.9-1.2,16.8,0.9c1.9,0.8,3.3,1.3,4.6,1.6l0.7,0.1l0.6-0.5l0.1-0.1c0.4-0.5,1-1.3,1-2.4 c0-1.4-0.9-3.3-2.2-5.6l-0.3-0.5c-1.1-2-2.2-4-2.2-5.9c0-0.3,0-0.6,0.1-0.9v-0.1c0-0.1,0.1-0.2,0.1-0.3c0-0.1,0.1-0.1,0.1-0.1 c1.6-1.9,2.5-4.2,2.5-6.6v-0.8c-0.2-2.5-1.6-5-3.9-6.8c-5.4-4.8-8.4-3.7-14.9,0.2c-7.1,5.7-12.7-0.5-17.8-6l-0.2-0.3 c-3.5-3.8-7.1-7.7-11.3-8.2c-0.1,0-0.3-0.1-0.4-0.1c-1.5-0.9-3.6-0.4-5.9,0.2l-0.7,0.2c-4.2,1.2-9.4,2.6-13.3-3 c-1.4-2.1-2.1-4.5-2.1-6.7c0-6.9,7.3-12.5,12.7-16.6l5.1-4l0.3-0.3l0.1-0.1c0.8-1.4,2-4.3,2-7.4c0-2.9-1.3-5.6-3.5-7.2 c-2.5-2.2-3.8-4.3-3.8-6.2c0-2.4,1.8-4.2,4-6.2c2.3-2.1,4-3.8,4.1-6.3v-0.7l-0.6-0.4c-2.4-1.9-3.7-3.6-4-5.4 c-0.1-0.5-0.1-0.8-0.1-1.3c0-2.7,1.7-5.3,2.9-7.3c1.5-2.3,2.8-4.5,2.8-6.7c0-0.7-0.1-1.4-0.4-2l-0.1-0.3l-0.1-0.1 c-1-1.2-1.6-2.6-1.6-3.7v-0.6c0.3-2.7,2.6-5.5,7.1-8.5l0.5-0.4l0.1-1.6v-0.1c0-0.5,0-0.9,0.1-1.3c0-0.4,0-0.8,0-1.2 c0-3.5-0.8-6.2-4.5-7.7c-0.4-0.2-0.7-0.5-0.8-1c-0.8-9-6.3-12.8-12.1-16.9c-4.6-3.2-10.3-7.1-13-14.5c-0.1-0.1-0.1-0.2-0.1-0.4 s0.1-0.3,0.2-0.5c0.2-0.3,0.4-0.5,0.7-0.6l14.6-3.9l0.3-0.7c2.6-6.7,5.2-12,11.8-13.1c0.1,0,0.5,0,0.8,0.3l3.3,3.3 c3,3.2,7.5,7.7,11.9,10.4h0.1l0,0c0.7,0.4,1.5,0.1,1.8-0.6l4.6-10.4l0.1-0.2l-0.3-0.6c-1.4-2.8-4-4.8-7.4-7.2 c-4.1-2.9-8.8-6.3-8.8-12.2c0-1.3,0.3-2.3,1-3.7c0.4-0.8,1.3-1.1,1.7-1.1l0.9,0c1,0,2,0,2.9,0.2l1.6,0.3c0.9,0.2,1.8,0.1,2.7-0.3 c3.9-1.8,7.2-5.8,10-9.4c3.4-4.5,6.4-8.8,10.7-8.6c2.5,0.1,5,2,7.9,5.8l0,0c0.5,0.7,1.5,0.7,2.1,0l0,0c1-1.2,2.1-2,3.1-2.3 c3.8-1,7.8,2.3,11.8,5.4c2.2,1.7,3.7,2.7,4.8,3.4l0.9,0.6l2.6-2.8l-0.5-0.9c-3.7-7-8.1-16.3-8.1-25.9c0-4.8,2.8-7.5,5.7-10.3 c1.8-1.9,2.8-2.9,2.8-2.9c3.3-4.2,8.5-1.1,14.4,3c0,0,0.1,0,0.1,0.1l1.1,0.9l5.4-8.7l0.1-0.1c8.3-8.7,15.9-3.4,22,0.8l0.1,0.1 c3.1,2.2,6.3,4.5,9.1,4.1l0.7-0.1l5.8-12.4c0.1-0.2,0.2-0.3,0.3-0.4l12.9-8.6c0.4-0.2,0.8-0.2,1.1,0c7.7,4.5,11.8,10.9,15.3,16.4 l0.1,0.1c4.6,7.2,8.3,12.8,17.8,13.2h0.6l0.4-0.4c5.5-5.6,11.3-3.3,15.5-1.7h0.1c3.6,1.5,6.4,2.4,8.9,0.9l0.4-0.3l5.5-13.7l0.1-0.2 l-7-15.5c-0.1-0.1-0.1-0.3-0.1-0.4c0-0.1,0.1-0.4,0.2-0.5c0.9-2,2.4-4.2,3.9-6.5l0.5-0.8c2.9-4.2,5.9-8.5,5.9-12.6c0-1-0.2-2-0.6-3 c-0.1-0.1-0.1-0.2-0.1-0.5c0.5-8.3,6.8-9.6,11.9-10.5c2.4-0.5,5-1,6.5-2.2c0.1-0.1,0.3-0.2,0.5-0.2c2.9-0.2,4.6-3,6.5-6.6 c2.8-5.1,5.6-9.2,11.9-6.6l0.5,0.1l0.5-0.3c2.3-1,4.4-3,5.6-5.1l0.1-0.1c0.6-1.3,0.9-2.3,0.9-3.5c0-0.6-0.1-1.3-0.3-2 c-0.1-0.1-0.1-0.1-0.1-0.3v-0.2c0.9-4.2,2.3-6.8,4.3-8.2c2.8-1.9,6.4-1,9.9-0.1l0.4,0.1c5,1.2,10.7,2.6,15.8-2.8l0.1-0.1l0.3-0.4 c0.3-0.3,0.4-0.7,0.3-1.1L944.9,723.8z"/>
</svg>
