<svg xmlns="http://www.w3.org/2000/svg" width="89.6" height="18" viewBox="0 0 89.6 18">
<path d="M4,4.8c0-1.4,1-2.3,2.4-2.3c1.4,0,2.2,0.8,2.6,2l2.6-1.1C10.9,1.4,9,0,6.5,0C3.4,0,1.2,2.2,1.2,5c0,5.8,8.1,3.8,8.1,7.6 c0,1.7-1.4,2.9-3.1,2.9c-1.8,0-3.1-1.2-3.5-3.1L0,13.2C0.6,16.1,3,18,6.1,18c3.3,0,6-2.4,6-5.5C12.2,6.4,4,8.3,4,4.8L4,4.8z"/>
<path d="M18.9,17.7h9.8v-2.5h-6.9V9.8h6.8V7.3h-6.8V2.7h6.9V0.2h-9.8V17.7z"/>
<path d="M44.4,0.1c-5,0-8.9,4-8.9,8.9s4,8.9,8.9,8.9c5,0,8.9-4,8.9-8.9S49.3,0.1,44.4,0.1z M44.4,15.2c-3.4,0-6-2.7-6-6.2 s2.6-6.2,6-6.2s6,2.7,6,6.2S47.7,15.2,44.4,15.2z"/>
<path d="M70.4,10.9c0,2.9-1.5,4.4-3.7,4.4s-3.8-1.5-3.8-4.4V0.3H60v10.6c0,4.5,2.9,7,6.6,7c3.7,0,6.6-2.5,6.6-7V0.3h-2.9L70.4,10.9 L70.4,10.9z"/>
<path d="M82.8,0.3h-2.9v17.4h9.7v-2.5h-6.8V0.3z"/>
</svg>
