<svg width="130" height="152" viewBox="0 0 133 152" xmlns="http://www.w3.org/2000/svg">
<path d="M48.9,125.6c-3.1,1.8-6.5,2.6-9.9,2.6c-8.3,0-11.6-5.4-11.6-13V56.5h18l1.5-4.7H27.3V29.2h-1c-5,11.1-14.4,24-26,27.1 c-0.1,0-0.1,0.2,0,0.2h12.5v61.8c0,12.4,6.7,18.6,17,18.6c12.3,0,18.1-9.2,19.2-11.1C49.1,125.6,49,125.5,48.9,125.6L48.9,125.6z"/>
<path d="M91.4,50.1C71,50.1,52.9,68,52.9,93.8c0,25.9,18.1,43,38.5,43c20.3,0,38.5-17.8,38.5-43.7C129.8,67.2,111.5,50.1,91.4,50.1z M92.4,133.7c-14.6,0-23.2-21.5-23.2-43.5c0-22,7.5-36.9,21.2-36.9c13.7,0,23.2,19.1,23.2,43.5C113.5,118.1,105.9,133.7,92.4,133.7z "/>
</svg>