<svg xmlns="http://www.w3.org/2000/svg" width="207" height="96" viewBox="0 0 207 96">
<path d="M62.7,82.6c0-1.4,1-2.3,2.4-2.3c1.4,0,2.2,0.8,2.6,2l2.6-1.1c-0.7-2-2.6-3.4-5.1-3.4c-3.1,0-5.3,2.2-5.3,5 c0,5.8,8.1,3.8,8.1,7.6c0,1.7-1.4,2.9-3.1,2.9c-1.8,0-3.1-1.2-3.5-3.1L58.7,91c0.6,2.9,3,4.8,6.1,4.8c3.3,0,6-2.4,6-5.5 C70.9,84.2,62.7,86.1,62.7,82.6L62.7,82.6z"/>
<path d="M77.6,95.5h9.8V93h-6.9v-5.4h6.8v-2.5h-6.8v-4.6h6.9V78h-9.8V95.5z"/>
<path d="M103.1,77.9c-5,0-8.9,4-8.9,8.9s4,8.9,8.9,8.9c5,0,8.9-4,8.9-8.9S108,77.9,103.1,77.9z M103.1,93c-3.4,0-6-2.7-6-6.2 s2.6-6.2,6-6.2s6,2.7,6,6.2S106.4,93,103.1,93z"/>
<path d="M129.1,88.7c0,2.9-1.5,4.4-3.7,4.4s-3.8-1.5-3.8-4.4V78.1h-2.9v10.6c0,4.5,2.9,7,6.6,7s6.6-2.5,6.6-7V78.1H129L129.1,88.7 L129.1,88.7z"/>
<path d="M141.5,78.1h-2.9v17.4h9.7V93h-6.8V78.1z"/>
<path d="M166.2,54.5c-1.6,0.8-3.2,1.2-4.9,1.2c-4.1,0-5.8-2.6-5.8-6.3V21.2h9l0.7-2.3h-9.7V8.1H155c-2.5,5.4-7.2,11.6-12.9,13 c-0.1,0-0.1,0.1,0,0.1h6.2V51c0,5.9,3.4,8.9,8.5,8.9C162.9,59.9,165.8,55.5,166.2,54.5C166.4,54.5,166.3,54.5,166.2,54.5 L166.2,54.5z"/>
<path d="M75,53.1c0.3,3,0.9,4.9,1.8,6.4l10.9-2.1c0.1,0,0.1-0.1,0-0.1c-1.7-0.1-5.9-0.8-5.9-7V18.2h-0.5l-12.5,2.9 c0,0-0.1,0.1,0,0.1c3.7,0.4,5.8,2,5.8,4.9v20.7c0,2,0.1,3.7,0.2,5.2c-1.9,2.4-4.9,4.1-8.5,4.1c-5.7,0-8-3.8-8-9.6V18.2h-0.5 l-12.5,2.9c0,0-0.1,0.1,0,0.1c3.7,0.4,5.8,2,5.8,4.9v21c0,7.7,3.7,12.7,11.6,12.7C68.3,59.9,72.9,56.4,75,53.1z"/>
<path d="M37.2,4.7c-3.5-2.6-8.3-4.4-13.3-4.4H0.7c0,0.1,0,0,0,0.1c1.8,0.3,5.5,1.2,5.5,5.8v46.9c0,4.9-3.8,5.5-5.5,5.8 c0,0.1,0,0.1,0,0.1h19.9c0-0.1,0-0.1,0-0.1c-1.6-0.3-6.3-1-6.3-5.8V2.6h7.6c4.8,0,12.9,2.2,12.9,15c0,9.5-5.5,15.9-16.4,16.2 c0,0-0.1,0-0.1,0.1c0,0,0,0.1,0.1,0.1c4.7,0.3,9.1,0.3,13.5-1c7-2.2,11.5-8.4,11.5-15.8C43.3,11.9,41.2,7.7,37.2,4.7z"/>
<path d="M135.5,53.1V18.2H135l-12.5,2.9v0.1c4,0.5,5.8,3.4,5.8,6.5V53c0,4.8-3.8,5.5-5.5,5.8c0,0.1,0,0.1,0,0.1h18.1 c0-0.1,0-0.1,0-0.1C139.3,58.6,135.5,57.9,135.5,53.1L135.5,53.1z"/>
<path d="M131.5,12.5c2.4,0,4.4-2,4.4-4.4c0-2.3-2-4.4-4.4-4.4s-4.4,2-4.4,4.4C127.1,10.4,129.1,12.5,131.5,12.5z"/>
<path d="M187.4,18.2c-10.1,0-19.1,8.6-19.1,21.1s9,20.7,19.1,20.7s19.1-8.6,19.1-21.1S197.4,18.2,187.4,18.2z M187.9,58.4 c-7.2,0-11.5-10.4-11.5-21s3.7-17.8,10.5-17.8s11.5,9.2,11.5,21C198.4,50.9,194.6,58.4,187.9,58.4z"/>
<path d="M95.5,27.8v25.3c0,4.8-3.8,5.5-5.5,5.8c0,0.1,0,0.1,0,0.1h18.1c0-0.1,0-0.1,0-0.1c-1.6-0.3-5.5-1-5.5-5.9V18.2h-0.5 l-12.5,2.9v0.1C93.8,21.7,95.5,24.7,95.5,27.8L95.5,27.8z"/>
<path d="M117.1,24.7c1.9-1.2,2.6-4.4,2.6-4.4s-2.1-2.1-6.3-2.1c-3.3,0-6.1,1.5-7.9,4.8c-1,1.7-1.3,3.6-1.3,3.6c1.4-2.7,4-3,5.3-2.8 c1.8,0.2,2.4,0.9,3.7,1.3C114.4,25.5,115.9,25.4,117.1,24.7z"/>
</svg>
