<svg width="490" height="152" viewBox="0 0 490 152" xmlns="http://www.w3.org/2000/svg">
<path d="M71.5,83.1V112c0,20.5,0.2,20.8,10.9,22.5v1.5c-6.2,0-11.9-0.8-18.1-0.8S50.9,136,44.6,136v-1.5 c12.4-1.7,12.8-2.7,12.8-32.8V70.5c0-7.1-2.7-9.7-8.4-9.7H27.2V112c0,20.5,0.2,20.8,10.9,22.5v1.5c-6.2,0-11.9-0.8-18.1-0.8 S6.5,136,0.3,136v-1.5c12.4-1.7,12.8-2.7,12.8-32.8V66.4c0-5.4-2-5.7-9.6-6.9v-1.3l9.4-1.2C14.6,29,38.3,10,60.8,10 c5.7,0,8.9,0.5,12.3,1.5v1L67.7,31c-11.1-5.9-18.3-8.9-26.7-8.9c-10.2,0-16.3,5.9-16.3,17.6c0,6.7,0.8,11.8,2.4,17.6h22.3 c9.1,0,14.8-0.5,22.7-2l1,0.7C72,62.2,71.5,70.5,71.5,83.1z"/>
<path d="M125.9,137.7c-23,0-38.1-15.8-38.1-37.6c0-25.5,19.8-44.7,44.4-44.7c8.9,0,15,1.5,21.8,4.9v1.2L146.1,75 c-10.8-7.9-18-11.8-27.7-11.8c-11.3,0-19.3,7.6-19.3,21.5c0,23.5,16,45.7,38,45.7c4.4,0,10.1-0.8,15.1-3.2l0.8,1.3 C147.4,133.1,138.4,137.7,125.9,137.7z"/>
<path d="M214.4,132.5c-3.7,0-6.2-2-6.2-6.7v-24.2c0-12.4,0.2-17,0.7-29.4c-4.7-10.9-12.8-16.8-23.9-16.8c-13.6,0-24,9.6-24,23.5 c0,1.3,0.2,3.9,0.3,4.9h1.5c0-11.4,6.2-17.6,15.8-17.6c9.4,0,16,5.7,16,19.7v8.9c-8.2,3-16.6,6.4-23.5,10.1 c-8.6,4.7-12.8,10.2-12.8,18c0,8.7,6.4,15,15.6,15c4.7,0,8.2-1.2,11.6-3.5l8.1-7.6c0.7,7.2,5.4,11.1,13.4,11.1c5,0,9.9-2.4,12.9-5 v-1.5C218.1,132,216.3,132.5,214.4,132.5z M193.6,124.1c-4.2,3.4-7.1,4.7-11.3,4.7c-6.4,0-10.6-4.7-10.6-10.9 c0-7.7,4.7-13.9,22.8-20.5L193.6,124.1z"/>
<path d="M270.7,123.7l0.8,1.3l-7.7,7.7c-4,3-7.7,4.9-12.8,4.9c-11.3,0-18.1-5.7-20.5-15.5V67.1c0-5.9-2-6.4-9.6-7.6v-1.3 c9.9-2.9,18.1-9.6,24.5-18.8l1.5,0.7c-1.7,5.9-2.4,11.6-2.4,17.3h25.5l0.2,0.8l-1.3,2.5h-24.4v54.1c0,8.1,3.5,13.6,12.6,13.6 C262.3,128.4,265.8,127.1,270.7,123.7z"/>
<path d="M291.6,37.2c-5.9,0-10.1-4-10.1-10.1s4.2-10.1,10.1-10.1s10.2,4,10.2,10.1S297.5,37.2,291.6,37.2z"/>
<path d="M272.1,136v-1.5c12.4-1.7,12.8-2.7,12.8-32.8V78.5c0-9.7-1.7-10.2-10.8-11.9v-1c9.1-2.5,17.5-6,25.4-10.2l1,0.7 c-1,6.2-1.5,14.4-1.5,27V112c0,20.5,0.2,20.8,10.9,22.5v1.5c-6.2,0-11.9-0.8-18.1-0.8S278.3,136,272.1,136z"/>
<path d="M358.4,55.4c-23.4,0-43,17.3-43,42.5c0,22.8,16.1,39.8,40.7,39.8c22.8,0,42.7-17.8,42.7-43 C398.7,71.7,382.9,55.4,358.4,55.4z M365.6,132c-21.8,0-38.5-25.2-38.5-47.5c0-13.4,7.7-23.2,20.8-23.2c21.7,0,39.3,24.9,39.3,47.2 C387.3,122.2,377.7,132,365.6,132z"/>
<path d="M479,112c0,20.2,0.3,21.2,10.8,22.3v1.7c-6.2,0-12.1-0.8-18.3-0.8s-10.2,0.8-16.5,0.8v-1.5c9.6-1.3,9.9-2.4,9.9-32.8V80.2 c0-8.7-3.5-13.4-11.8-13.4c-7.4,0-15.3,4.2-21.8,10.2v35.1c0,20.5,0.2,21,9.9,22.2v1.7c-6.2,0-11.4-0.8-17.6-0.8s-12.4,0.8-18.6,0.8 v-1.5c12.1-1.7,12.3-2.4,12.3-34.4V78.5c0-9.9-1.3-10.2-10.8-11.9v-1c7.7-2.2,16.6-6,24.5-10.2l1,0.7c-0.5,6.2-0.7,10.6-0.7,18.1 v0.5l13.4-12.3c5.2-3.7,10.2-7.1,17.8-7.1c7.4,0,14.1,3.7,17,9.4C479,77,479,89.5,479,112z"/>
</svg>
