<svg width="289" height="152" viewBox="0 0 289 152" xmlns="http://www.w3.org/2000/svg">
<path d="M153.2,123.9c0.7,6.3,1.9,10.2,3.8,13.3l22.4-4.3c0.1,0,0.1-0.2,0-0.2c-3.5-0.1-12.1-1.7-12.1-14.6V51.2h-1l-25.7,6.1 c0,0-0.1,0.2,0,0.2c7.6,0.8,11.9,4.2,11.9,10.1v43.1c0,4.2,0.2,7.7,0.3,10.8c-4,5-10,8.5-17.6,8.5c-11.7,0-16.6-7.9-16.6-19.9v-59 h-1L92,57.3c0,0-0.1,0.2,0,0.2c7.6,0.8,11.9,4.2,11.9,10.1v43.8c0,16.1,7.6,26.5,23.8,26.5C139.4,138,148.9,130.9,153.2,123.9z"/>
<path d="M75.3,23.1C68,17.7,58.3,14,47.9,14H0c0,0.1,0,0.1,0,0.2c3.7,0.6,11.3,2.6,11.3,12.1v97.5C11.3,134,3.4,135.4,0,136 c0,0.1,0,0.1,0,0.2h40.9c0-0.1,0-0.1,0-0.2c-3.4-0.7-12.9-2-12.9-12.2V18.7h15.6c10,0,26.7,4.6,26.7,31.2 c0,19.8-11.3,33.1-33.7,33.6c-0.1,0-0.1,0.1-0.1,0.1c0,0.1,0.1,0.1,0.1,0.1c9.7,0.6,18.8,0.7,27.7-2.1c14.5-4.6,23.7-17.5,23.7-32.9 C87.9,38.2,83.6,29.3,75.3,23.1z"/>
<path d="M277.7,123.9V51.2h-1L251,57.3c0,0-0.1,0.2,0.1,0.2c8.2,0.9,11.8,7.1,11.8,13.6v52.7c-0.1,10-7.9,11.4-11.3,12.2 c0,0.1,0,0.1,0,0.2H289c0-0.1,0-0.1,0-0.2C285.6,135.4,277.8,134,277.7,123.9L277.7,123.9z"/>
<path d="M269.6,39.3c5,0,9.1-4.2,9.1-9.1s-4.2-9.1-9.1-9.1c-5,0-9.1,4.2-9.1,9.1S264.6,39.3,269.6,39.3z"/>
<path d="M195.5,71.2v52.7c-0.1,10-7.9,11.4-11.3,12.2c0,0.1,0,0.1,0,0.2h37.3c0-0.1,0-0.1,0-0.2c-3.4-0.7-11.2-2.1-11.3-12.2V51.2 h-1l-25.7,6.1c0,0-0.1,0.2,0.1,0.2C191.8,58.5,195.5,64.7,195.5,71.2L195.5,71.2z"/>
<path d="M239.9,64.9c4-2.4,5.4-9.2,5.4-9.2s-4.4-4.4-13-4.4c-6.9,0-12.5,3.2-16.3,10c-2,3.6-2.7,7.6-2.7,7.6 c2.9-5.7,8.3-6.2,10.9-5.8c3.7,0.5,5,1.8,7.6,2.6C234.4,66.4,237.5,66.3,239.9,64.9z"/>
</svg>
