<svg width="26" height="37" viewBox="0 0 26 37" xmlns="http://www.w3.org/2000/svg">
<path d="M13.1006 36.7551C15.9505 29.9533 22.2958 25.6954 25.5465 24.1994C25.6458 24.1537 25.6101 24.0062 25.501 24.0109C19.1655 24.2868 13.7602 29.7072 13.0735 30.4224C13.0331 30.4645 12.9669 30.4645 12.9265 30.4224C12.2384 29.7058 6.81327 24.2655 0.461717 24.0093C0.35428 24.005 0.32266 24.1491 0.419749 24.1954C7.91917 27.7645 11.7925 33.8708 12.9085 36.7536C12.9417 36.8395 13.0651 36.84 13.1006 36.7551Z" />
<path d="M15 0C14.1682 12.2188 14.1634 19.36 14 32L12 32C11.9568 19.5972 11 -3.49691e-07 11 -3.49691e-07L15 0Z"/>
</svg>