<svg xmlns="http://www.w3.org/2000/svg" width="80px" height="80px" viewBox="0 0 80 80">
<path d="M27.5,37.9C27.5,37.9,27.5,37.9,27.5,37.9C27.5,37.9,27.5,37.9,27.5,37.9c2.1,0.2,4.1,0.2,6.1-0.4 c3.2-1,5.2-3.8,5.2-7.1c0-2.3-1-4.2-2.8-5.6c-1.6-1.2-3.7-2-6-2H19.5c0,0,0,0,0,0.1c0.8,0.1,2.6,0.6,2.6,2.7v21.2 c0,2.3-1.8,2.6-2.6,2.7c0,0,0,0,0,0.1h9.3c0,0,0,0,0-0.1c-0.8-0.2-2.9-0.5-2.9-2.7V23.9l3.1,0c2.2,0,5.8,1,5.8,6.8 C34.9,34.9,32.4,37.8,27.5,37.9L27.5,37.9z"/>
<path d="M32.2,59.9C32.2,60,32.2,60,32.2,59.9l9.4,0.1c0,0,0,0,0-0.1c-0.9-0.2-2.8-0.5-2.8-3V40.2h-0.3 l-6.5,2c0,0,0,0.1,0,0.1c2.1,0.2,3,1.3,3,2.9v11.7C35,59.4,33,59.8,32.2,59.9L32.2,59.9z"/>
<path d="M42.7,43.4c0.9,0.1,1.2,0.5,1.9,0.7c0.7,0.2,1.4,0.2,2-0.2c1-0.6,1.3-2.3,1.3-2.3s-1.1-1.1-3.2-1.1 c-1.7,0-3.1,0.8-4.1,2.4c-0.5,0.9-0.7,1.9-0.7,1.9C40.7,43.4,42.1,43.3,42.7,43.4L42.7,43.4z"/>
<path d="M60.1,35.9l0.4-1.2h-5.6v-5.6h-0.3c-1.3,2.8-3.7,6-6.7,6.7c0,0,0,0.1,0,0.1h3.2V49 c0,3.1,1.7,4.7,4.4,4.7c3.2,0,4.7-2.3,5-2.8c0,0,0-0.1,0,0c-0.8,0.4-1.7,0.6-2.6,0.6c-2.1,0-3-1.4-3-3.3V35.9L60.1,35.9L60.1,35.9z" />
</svg>
