<svg xmlns="http://www.w3.org/2000/svg" width="80px" height="80px" viewBox="0 0 80 80">
<path d="M17.6,13.6c12.6-13.7,32.2-13.7,44.8,0c0.1,0.2,0.4,0,0.3-0.2c-2.2-4-5.5-7.5-9.5-9.8 C41.1-4,24,0.9,17.3,13.5C17.2,13.6,17.5,13.8,17.6,13.6z"/>
<path d="M66.5,17.3c-0.2-0.1-0.3,0.2-0.2,0.3c13.7,12.6,13.7,32.2,0,44.8c-0.2,0.1,0,0.4,0.2,0.3 c4-2.2,7.5-5.5,9.8-9.5C84,41.1,79.1,24,66.5,17.3L66.5,17.3z"/>
<path d="M62.4,66.4c-12.6,13.7-32.2,13.7-44.8,0c-0.1-0.2-0.4,0-0.3,0.2c2.2,4,5.5,7.5,9.5,9.8 C38.9,84,56,79.1,62.7,66.5C62.8,66.3,62.5,66.2,62.4,66.4L62.4,66.4z"/>
<path d="M13.6,17.6c0.2-0.1,0-0.4-0.2-0.3c-4,2.2-7.5,5.5-9.8,9.5C-4,38.9,0.9,56,13.5,62.7 c0.2,0.1,0.3-0.2,0.2-0.3C-0.1,49.8-0.1,30.2,13.6,17.6L13.6,17.6z"/>
</svg>
