<svg width="24" height="24" viewBox="0 0 24 24" xmlns="http://www.w3.org/2000/svg">
<path d="M12,8.8c-1.7,0-3.2,1.5-3.2,3.2s1.5,3.2,3.2,3.2s3.2-1.5,3.2-3.2S13.7,8.8,12,8.8z M16.1,2.5H8c-3.1,0-5.5,2.4-5.5,5.4v8
	c0,3.1,2.4,5.5,5.5,5.5h8c3,0,5.4-2.4,5.4-5.5v-8C21.5,4.9,19.1,2.5,16.1,2.5z M12,17c-2.8,0-4.9-2.2-4.9-4.9c0-2.7,2.2-5,4.9-5
	c2.8,0,4.9,2.2,4.9,4.9C16.9,14.7,14.8,17,12,17z M17.1,8.1C16.5,8.1,16,7.6,16,7c0-0.6,0.5-1.1,1.1-1.1c0.6,0,1.1,0.5,1.1,1.1
	C18.2,7.6,17.7,8.1,17.1,8.1z" fill="black"/>
</svg>
