<svg width="24" height="24" viewBox="0 0 24 24" xmlns="http://www.w3.org/2000/svg">
<path d="M12.7,5c1.7-1.7,4.5-1.7,6.2,0c1.7,1.7,1.7,4.5,0,6.2l-3.1,3.1c-1.5,1.6-3.9,1.7-5.5,0.6
	c-0.6-0.4-0.7-1.2-0.3-1.7c0.4-0.6,1.2-0.7,1.7-0.3c0.7,0.5,1.7,0.4,2.3-0.2c0,0,0,0,0,0l3.1-3.1c0.7-0.7,0.7-1.9,0-2.6
	c-0.7-0.7-1.8-0.7-2.6-0.1l-0.1,0.2c-0.4,0.6-1.2,0.7-1.7,0.3c-0.6-0.4-0.7-1.2-0.3-1.7l0.2-0.3C12.6,5.1,12.7,5.1,12.7,5z M8.2,9.7
	c1.5-1.3,3.7-1.7,5.5-0.4c0.6,0.4,0.7,1.2,0.2,1.7c-0.4,0.6-1.2,0.7-1.8,0.2c-0.6-0.5-1.6-0.4-2.3,0.2l-3.1,3.2l0,0
	c-0.7,0.7-0.7,1.9,0,2.6c0.7,0.7,1.9,0.7,2.6,0l0.9,0.9l-0.9-0.9L9.7,17c0.5-0.5,1.3-0.5,1.8,0c0.5,0.5,0.5,1.3,0,1.8l-0.3,0.3
	c-1.7,1.7-4.5,1.7-6.2,0c-1.7-1.7-1.7-4.5,0-6.2L8.2,9.7C8.1,9.7,8.1,9.7,8.2,9.7z" fill="black" fill-rule="evenodd" clip-rule="evenodd"/>
</svg>
