<svg width="24" height="24" viewBox="0 0 24 24" xmlns="http://www.w3.org/2000/svg">
<path d="M12,6.2c-0.6,0-1.3,0.1-1.9,0.2V5.1V5c0,0,0-0.1,0-0.1C10,3.2,8.8,2,7.3,2C5.8,2,4.6,3.2,4.5,4.9c0,0,0,5.6,0,5.6v3.6
	c0,0,0,0.1,0,0.1c0,4.3,3.4,7.8,7.5,7.8c4.1,0,7.5-3.5,7.5-7.9C19.5,9.7,16.1,6.2,12,6.2z M12,20.8c-3.5,0-6.3-3-6.3-6.7V5
	c0-1,0.7-1.8,1.7-1.8C8.2,3.2,9,4,9,5v9c0,1.7,1.3,3.2,3,3.2c1.7,0,3-1.4,3-3.2s-1.3-3.2-3-3.2c-0.7,0-1.3,0.3-1.9,0.7v-1.4
	c0.6-0.3,1.2-0.5,1.9-0.5c2.3,0,4.1,1.9,4.1,4.3s-1.8,4.3-4.1,4.3c-2.3,0-4.1-1.9-4.1-4.3V5c0-0.3-0.3-0.6-0.6-0.6
	C7,4.4,6.8,4.7,6.8,5v9.2c0,0.1,0,0.3,0,0.4c0.2,2.9,2.5,5.1,5.2,5.1c2.9,0,5.2-2.5,5.2-5.5S14.9,8.6,12,8.6c-0.7,0-1.3,0.1-1.9,0.4
	V7.7c0.6-0.2,1.2-0.3,1.9-0.3c3.5,0,6.3,3,6.3,6.7C18.3,17.8,15.5,20.8,12,20.8z M10.1,14.1c0-1.1,0.8-1.9,1.9-1.9
	c1,0,1.9,0.9,1.9,1.9c0,1.1-0.8,1.9-1.9,1.9C11,16,10.1,15.2,10.1,14.1z" fill="black"/>
</svg>
