<svg width="24" height="24" viewBox="0 0 24 24" xmlns="http://www.w3.org/2000/svg">
<path d="M5.8,9.9c-0.2,0-0.5,0.1-0.6,0.3c-0.2,0.2-0.3,0.4-0.3,0.6s0.1,0.5,0.3,0.6c0.2,0.2,0.4,0.3,0.6,0.3c0.2,0,0.5-0.1,0.6-0.3
	c0.2-0.2,0.3-0.4,0.3-0.6s-0.1-0.5-0.3-0.6C6.2,10,6,9.9,5.8,9.9z M13.2,9.9c-0.2,0-0.5,0.1-0.6,0.3c-0.2,0.2-0.3,0.4-0.3,0.6
	s0.1,0.5,0.3,0.6c0.2,0.2,0.4,0.3,0.6,0.3c0.2,0,0.5-0.1,0.6-0.3c0.2-0.2,0.3-0.4,0.3-0.6s-0.1-0.5-0.3-0.6
	C13.7,10,13.5,9.9,13.2,9.9z M18.2,9.9c-0.2,0-0.5,0.1-0.6,0.3c-0.2,0.2-0.3,0.4-0.3,0.6s0.1,0.5,0.3,0.6c0.2,0.2,0.4,0.3,0.6,0.3
	s0.5-0.1,0.6-0.3c0.2-0.2,0.3-0.4,0.3-0.6s-0.1-0.5-0.3-0.6C18.7,10,18.5,9.9,18.2,9.9z M20.4,3.2H3.6c-1.3,0-2.4,1.1-2.4,2.4v9.7
	c0,1.3,1.1,2.4,2.4,2.4h6.6c0,0,1.3,3.5,1.7,3.5s1.9-3.5,1.9-3.5h6.7c1.3,0,2.4-1.1,2.4-2.4V5.6C22.8,4.3,21.7,3.2,20.4,3.2z
	 M7.5,12.2c-0.3,0.4-0.9,0.5-1.4,0.5c-0.5,0-0.9-0.1-1.1-0.4h0v0.3H3.6V7h1.3v2.1h0c0.3-0.3,0.8-0.4,1.3-0.4c0.5,0,0.9,0.3,1.2,0.6
	C7.8,9.7,8,10.2,8,10.8C8,11.4,7.8,11.8,7.5,12.2z M10.2,12.7H8.9c0,0,0-2.9,0-3.5c0-0.8-0.6-0.9-0.6-0.9V6.9c0,0,1.8,0.1,1.9,2.3
	C10.2,9.9,10.2,12.7,10.2,12.7z M15.3,11.6c-0.1,0.3-0.3,0.5-0.5,0.7c-0.2,0.2-0.4,0.3-0.7,0.4c-0.3,0.1-0.5,0.2-0.8,0.2
	c-0.3,0-0.6-0.1-0.8-0.2c-0.3-0.1-0.5-0.3-0.7-0.4c-0.2-0.2-0.4-0.4-0.5-0.7c-0.1-0.2-0.2-0.5-0.2-0.8c0-0.3,0.1-0.5,0.2-0.8
	c0.1-0.2,0.3-0.5,0.5-0.7c0.2-0.2,0.4-0.3,0.7-0.4c0.3-0.1,0.5-0.2,0.8-0.2c0.3,0,0.6,0.1,0.8,0.2c0.3,0.1,0.5,0.3,0.7,0.4
	c0.2,0.2,0.4,0.4,0.5,0.7c0.1,0.3,0.2,0.5,0.2,0.8C15.4,11.1,15.4,11.3,15.3,11.6z M20.4,12.1c0,1-0.2,1.6-0.6,2
	c-0.5,0.5-1.3,0.5-1.9,0.4v-1c0.5,0.1,1.2-0.3,1.2-1v-0.3h0c-0.3,0.4-0.7,0.6-1.3,0.6c-0.5,0-1-0.2-1.3-0.6
	c-0.3-0.4-0.5-0.8-0.5-1.5c0-0.7,0.2-1.2,0.5-1.6c0.3-0.4,0.8-0.6,1.4-0.6c0.5,0,0.8,0.1,1.1,0.4h0V8.8h1.3L20.4,12.1L20.4,12.1z" fill="black"/>
</svg>
