<svg width="24" height="24" viewBox="0 0 24 24" xmlns="http://www.w3.org/2000/svg">
<path d="M17.5,4.8c-1.2-1.2-3-1.8-4.8-1.8C9.8,3,8.1,4.2,7.1,5.2C5.9,6.4,5.2,8,5.2,9.6c0,2,0.8,3.5,2.2,4.1c0.1,0,0.2,0.1,0.3,0.1
	c0.3,0,0.5-0.2,0.6-0.5c0-0.2,0.2-0.6,0.2-0.8c0.1-0.4,0-0.6-0.2-0.8c-0.4-0.5-0.6-1-0.6-1.8c0-2.2,1.6-4.5,4.7-4.5
	c2.4,0,3.9,1.4,3.9,3.6c0,1.4-0.3,2.7-0.8,3.6c-0.4,0.7-1,1.4-2.1,1.4c-0.4,0-0.8-0.2-1.1-0.5c-0.2-0.3-0.3-0.7-0.2-1.1
	c0.1-0.5,0.3-0.9,0.4-1.4c0.3-0.8,0.5-1.6,0.5-2.3c0-1.1-0.7-1.8-1.6-1.8c-1.3,0-2.2,1.3-2.2,2.9c0,0.8,0.2,1.4,0.3,1.6
	c-0.2,0.7-1.1,4.6-1.3,5.4c-0.1,0.4-0.7,3.9,0.3,4.2c1.2,0.3,2.2-3.1,2.3-3.4c0.1-0.3,0.4-1.5,0.6-2.2c0.6,0.5,1.5,0.9,2.3,0.9
	c1.6,0,3.1-0.7,4.2-2.1c1-1.3,1.6-3.1,1.6-5.1C19.4,7.5,18.7,6,17.5,4.8z" fill="black"/>
</svg>
